<svg xmlns="http://www.w3.org/2000/svg" viewBox="0 0 500 500"><g id="freepik--background-complete--inject-8"><rect y="382.4" width="500" height="0.25" style="fill:#ebebeb"></rect><rect x="416.78" y="398.49" width="33.12" height="0.25" style="fill:#ebebeb"></rect><rect x="322.53" y="401.21" width="8.69" height="0.25" style="fill:#ebebeb"></rect><rect x="396.59" y="389.21" width="19.19" height="0.25" style="fill:#ebebeb"></rect><rect x="52.46" y="390.89" width="43.19" height="0.25" style="fill:#ebebeb"></rect><rect x="104.56" y="390.89" width="6.33" height="0.25" style="fill:#ebebeb"></rect><rect x="131.47" y="395.11" width="93.68" height="0.25" style="fill:#ebebeb"></rect><path d="M237,337.8H43.91a5.71,5.71,0,0,1-5.7-5.71V60.66A5.71,5.71,0,0,1,43.91,55H237a5.71,5.71,0,0,1,5.71,5.71V332.09A5.71,5.71,0,0,1,237,337.8ZM43.91,55.2a5.46,5.46,0,0,0-5.45,5.46V332.09a5.46,5.46,0,0,0,5.45,5.46H237a5.47,5.47,0,0,0,5.46-5.46V60.66A5.47,5.47,0,0,0,237,55.2Z" style="fill:#ebebeb"></path><path d="M453.31,337.8H260.21a5.72,5.72,0,0,1-5.71-5.71V60.66A5.72,5.72,0,0,1,260.21,55h193.1A5.71,5.71,0,0,1,459,60.66V332.09A5.71,5.71,0,0,1,453.31,337.8ZM260.21,55.2a5.47,5.47,0,0,0-5.46,5.46V332.09a5.47,5.47,0,0,0,5.46,5.46h193.1a5.47,5.47,0,0,0,5.46-5.46V60.66a5.47,5.47,0,0,0-5.46-5.46Z" style="fill:#ebebeb"></path><rect x="69.17" y="160.2" width="351.78" height="15" style="fill:#e6e6e6"></rect><rect x="417.96" y="158.61" width="3.44" height="18.17" style="fill:#e0e0e0"></rect><rect x="301.69" y="158.61" width="3.44" height="18.17" style="fill:#e0e0e0"></rect><rect x="185.43" y="158.61" width="3.44" height="18.17" style="fill:#e0e0e0"></rect><rect x="69.17" y="158.61" width="3.44" height="18.17" style="fill:#e0e0e0"></rect><rect x="351.04" y="158.61" width="23.62" height="18.17" style="fill:#e0e0e0"></rect><rect x="360.87" y="136.19" width="3.96" height="24.79" style="fill:#e0e0e0"></rect><circle cx="362.85" cy="134.71" r="10.12" transform="translate(11.02 296.03) rotate(-45)" style="fill:#e0e0e0"></circle><path d="M370,134.71a7.19,7.19,0,1,1-7.19-7.19A7.19,7.19,0,0,1,370,134.71Z" style="fill:#ebebeb"></path><rect x="69.17" y="190.2" width="351.78" height="15" style="fill:#e6e6e6"></rect><rect x="417.96" y="188.61" width="3.44" height="18.17" style="fill:#e0e0e0"></rect><rect x="301.69" y="188.61" width="3.44" height="18.17" style="fill:#e0e0e0"></rect><rect x="185.43" y="188.61" width="3.44" height="18.17" style="fill:#e0e0e0"></rect><rect x="69.17" y="188.61" width="3.44" height="18.17" style="fill:#e0e0e0"></rect><path d="M69.16,221.2v15H319.78a23.79,23.79,0,0,1,23.8,23.8V382.63h15V259.8A38.6,38.6,0,0,0,320,221.2Z" style="fill:#e6e6e6"></path><rect x="301.69" y="219.61" width="3.44" height="18.17" style="fill:#e0e0e0"></rect><rect x="185.43" y="219.61" width="3.44" height="18.17" style="fill:#e0e0e0"></rect><rect x="69.17" y="219.61" width="3.44" height="18.17" style="fill:#e0e0e0"></rect><rect x="349.36" y="372.27" width="3.44" height="18.17" transform="translate(732.44 30.28) rotate(90)" style="fill:#e0e0e0"></rect><rect x="349.36" y="267.01" width="3.44" height="18.17" transform="translate(627.18 -74.99) rotate(90)" style="fill:#e0e0e0"></rect></g><g id="freepik--Shadow--inject-8"><ellipse id="freepik--path--inject-8" cx="250" cy="416.24" rx="193.89" ry="11.32" style="fill:#f5f5f5"></ellipse></g><g id="freepik--Light--inject-8"><polygon points="257.43 298 189.69 299.17 276.43 231.29 257.43 298" style="fill:#407BFF"></polygon><polygon points="257.43 298 189.69 299.17 276.43 231.29 257.43 298" style="fill:#fafafa;opacity:0.6000000000000001"></polygon><circle cx="181.35" cy="199.16" r="100.35" style="fill:#407BFF"></circle><circle cx="181.35" cy="199.16" r="100.35" style="fill:#fafafa;opacity:0.7000000000000001"></circle></g><g id="freepik--Number--inject-8"><path d="M152.43,233.38l-9.55-.9-1.17,12.36-7-.66,1.16-12.35L108,229.2l.47-5,28.81-30.48,7.76.73-27.63,29.43,19.33,1.82,1-10.92,6.75.64-1,10.92,9.55.89Z" style="fill:#407BFF"></path><path d="M157.94,221c1.55-16.37,11.19-24.89,23-23.78S200.5,208.49,199,224.86s-11.18,24.89-22.89,23.79S156.4,237.38,157.94,221Zm33.83,3.19c1.21-12.86-3.64-19.84-11.46-20.58s-14,5.21-15.18,18.07,3.64,19.83,11.54,20.58S190.56,237,191.77,224.19Z" style="fill:#407BFF"></path><path d="M248.4,242.41l-9.56-.9-1.16,12.36-7-.66,1.17-12.35-27.94-2.63.47-5,28.81-30.48,7.76.73-27.63,29.43,19.32,1.82,1-10.92,6.75.64-1,10.92,9.56.9Z" style="fill:#407BFF"></path></g><g id="freepik--Text--inject-8"><path d="M143.25,173.72l-.42,4.5-18.77-1.77,2.28-24.23,18.32,1.72-.43,4.5-12.74-1.2-.49,5.27,11.25,1.06-.41,4.36-11.25-1.06-.53,5.61Z" style="fill:#407BFF"></path><path d="M162.73,180.09l-4-7.19-.27,0-4.89-.46-.63,6.75-5.61-.53,2.28-24.24,10.49,1c6.48.61,10.21,4.35,9.7,9.79a7.92,7.92,0,0,1-5.71,7.18l4.71,8.3Zm-3.41-20.16-4.57-.43L154,168l4.57.43c3.43.32,5.31-1.11,5.56-3.74S162.75,160.25,159.32,159.93Z" style="fill:#407BFF"></path><path d="M188.18,182.49l-4-7.19-.28,0-4.88-.46-.64,6.75-5.6-.53L175,156.8l10.49,1c6.47.61,10.2,4.34,9.69,9.78a7.89,7.89,0,0,1-5.7,7.18l4.7,8.3Zm-3.42-20.16-4.57-.43-.79,8.44,4.57.43c3.43.33,5.31-1.1,5.56-3.73S188.19,162.65,184.76,162.33Z" style="fill:#407BFF"></path><path d="M197.8,171.17c.68-7.2,6.79-12,14.44-11.29s12.76,6.55,12.08,13.78-6.83,12-14.44,11.29S197.12,178.37,197.8,171.17Zm20.84,2a7.62,7.62,0,1,0-8.31,7A7.42,7.42,0,0,0,218.64,173.13Z" style="fill:#407BFF"></path><path d="M242.84,187.63l-4-7.19-.27,0-4.89-.45-.63,6.75-5.61-.53,2.28-24.24,10.49,1c6.47.61,10.21,4.35,9.7,9.78a7.92,7.92,0,0,1-5.71,7.19l4.71,8.3Zm-3.41-20.16-4.57-.43-.8,8.45,4.57.43c3.43.32,5.31-1.11,5.56-3.74S242.86,167.79,239.43,167.47Z" style="fill:#407BFF"></path></g><g id="freepik--Bricks--inject-8"><path d="M430.07,409.93a24.81,24.81,0,0,0-2.83-.41,3,3,0,0,1-2.07-1.76c-2.49-1.91-4.23-5.26-5.68-7.41-1-.2-2-.44-2.93-.72l-.06,0a8.46,8.46,0,0,1-5,1.32c-1.88-.14-3.94-2-3.11-4.09.76-1.95,1.92-3.52,4.08-4a14.54,14.54,0,0,1,2.37-.17l.32,0s0,0,.05-.05-.33.16-.17-.1a3,3,0,0,1,3.22-1.45c4-1.43,5.73-1.25,5.73-5.58a7.05,7.05,0,0,1,.27-1.83c0-.57,0-1.14,0-1.72.09-2,1.55-5.46.7-6.88-1-1.63-3.53-2.66-4.68-4.53a3.26,3.26,0,0,1-.18-.38,5.23,5.23,0,0,1-2.47-1.32,2.86,2.86,0,0,1-2.9-.88l-1.63-.28a3,3,0,0,1-1.73.41c-1.33,1.76-4.29,2.5-5.46,0-2.08-4.47-.94-10.39,5.17-9.61a4.55,4.55,0,0,1,2,.79,13.61,13.61,0,0,1,3.06.18,4.87,4.87,0,0,1,2.43-.68h3.92c0-.12,0-.22.06-.35a33.5,33.5,0,0,0,0-5,18.12,18.12,0,0,1,1-7.17l-.34-.75c-4.08-.8-11.39-.42-13.06-.84a2.87,2.87,0,0,1-2.05-1.61,4.1,4.1,0,0,1-1-1.44,14.15,14.15,0,0,1-.91-4,3.15,3.15,0,0,1,1.6-2.79,10.6,10.6,0,0,1,1.53-.61,7.07,7.07,0,0,1,2.12-1.59,4.51,4.51,0,0,1,3.52-1.52h.29a11.26,11.26,0,0,0,3.24-1.82c1.57-1.33,3-2.9,5.31-2.59l.09,0v-12c-6.2-.15-12.51-2.14-16.07-7.53-1.29-2-.14-3.73,1.55-4.41a1.05,1.05,0,0,1,.71-.82l8.81-2.72L404,286.58l-15.4-5.22s-4.11,11.18-9.48,11.14-13.82,10.9-14.74,16.5,5.94,8.19,0,11.13-4,10.47-6.56,15.67c-2.33,4.77-9.91.42-13.65,1.37-6.6,1.69-5,11.57-13.2,12.48-1.77.2-3.57-.1-5.35,0a11.49,11.49,0,0,0-4.6,1.35,3.82,3.82,0,0,0-1.68,1.52c-1.47,2.93,3.74,6.73,1.49,9.11-2.94.31-5.35,2.38-8.07,3.52-6.31,2.63-13.41,0-20.1-1.36a87,87,0,0,0-18.08-1.4c-4.39,0-9.63.26-8,3.94l.36.26a7.61,7.61,0,0,1,2.69,3.61,4.05,4.05,0,0,1,.87,1.31,3.24,3.24,0,0,1-.54,2.88c-1,4.38-6.75,6.48-13.3,7.51a1.21,1.21,0,0,0,.08.77,77.83,77.83,0,0,1-14.48.87,22.65,22.65,0,0,1-5.53-.5c-8,.32-20.44,1.37-27-3-6.33-4.22-5.62-10.59-13.62-13.2-4.47-1.46-3.92-5.08-6.07-8.42-3.12-4.87-8.23-3.2-10.63-8.12-1.61-3.32-6.79-3.27-8.8-6.37-1.14-1.77-.93-4.07-.49-6.13a2.48,2.48,0,0,1,.58-1.32c.39-.37,1-.45,1.41-.78.89-.67.78-2,1.13-3.07,1-3.05,5.2-3.42,6.52-6.2-6.51-4.84-16.7-7.75-15.4-18.2.52-4.15-12.66-6.11-16.35-12s-10.92,3.65-16.54-8.5-29.16-9.53-31.63-9.52-6.78,12.06-13,13.68c-3.78,1-1.22,5.16,1.38,9a3.53,3.53,0,0,1,2.5.29.57.57,0,0,0,.13.08,6.43,6.43,0,0,1,3.23.06c2,.61,3,2.34,3.66,4.17a2.54,2.54,0,0,1,.13,1.12,3.59,3.59,0,0,1,1.06,1.65,3.23,3.23,0,0,1-2.26,4,1.54,1.54,0,0,1-.31.05l-.17.17a3.32,3.32,0,0,1-3.59.25,7.7,7.7,0,0,1-1.28-.73c-.56,1.14-1.81,2.08-4.48,2.65-6.23,1.33-7.72,8.78-6.23,13.38a2.73,2.73,0,0,1,.06,1.57c2.44,0,4.9.29,7.23.34,6.32.26,6.36,10,0,9.85-.33,0-.66,0-1,0a5.3,5.3,0,0,1-3.25,3,22,22,0,0,0-4.09,2.1c.42,3.9,1.25,8.53.72,12.53a16.87,16.87,0,0,1,1.86.5A8.17,8.17,0,0,1,87,362.16a3.2,3.2,0,0,1,3.29-.08,3.25,3.25,0,0,1,1.58,2.6,6.34,6.34,0,0,1,.68.19,2.93,2.93,0,0,1,.4-.19,2.55,2.55,0,0,1,1.25-.28,2.51,2.51,0,0,1,1.24.28,2.46,2.46,0,0,1,1,.67,5.84,5.84,0,0,1,.39.48l.4.31a3.25,3.25,0,0,1,.84,1.43c0,.28.07.57.11.86a2.31,2.31,0,0,1-.28,1.24,2.37,2.37,0,0,1-.67,1,2.31,2.31,0,0,1-1,.67,2.41,2.41,0,0,1-1.24.28,5.92,5.92,0,0,1-.62-.06,2.69,2.69,0,0,1-1.69,1.13,9.29,9.29,0,0,1-5.33-.45,6.67,6.67,0,0,1-2.28.11,7.61,7.61,0,0,1-1.53-.38,12,12,0,0,1-3.59,1.5,92.91,92.91,0,0,1-.15,10.31c0,.4,0,.8,0,1.22A22.85,22.85,0,0,1,86,388.58a4,4,0,0,1,1.45,1.95l.08,0a8.63,8.63,0,0,1,4.4.84c1.93.89,2,3.72.66,5.08-.35.35-.7.67-1.05,1a3.24,3.24,0,0,1-2.36,3,11.19,11.19,0,0,1-1.35.25,6.85,6.85,0,0,1-4.12,1.41h-.19a3.2,3.2,0,0,1-3.11,2.41,5.77,5.77,0,0,0-.72,0h0c.11,0-.65.39-.39.17a4.6,4.6,0,0,0-.81,1,12,12,0,0,1-3.93,3.93,3.15,3.15,0,0,1-1.75.4,32.22,32.22,0,0,0-2.26,3.78H433.34a4.47,4.47,0,0,0,.07-.91A6.26,6.26,0,0,1,430.07,409.93Z" style="fill:#263238"></path><path d="M430.07,409.93a24.81,24.81,0,0,0-2.83-.41,3,3,0,0,1-2.07-1.76c-2.49-1.91-4.23-5.26-5.68-7.41-1-.2-2-.44-2.93-.72l-.06,0a8.46,8.46,0,0,1-5,1.32c-1.88-.14-3.94-2-3.11-4.09.76-1.95,1.92-3.52,4.08-4a14.54,14.54,0,0,1,2.37-.17l.32,0s0,0,.05-.05-.33.16-.17-.1a3,3,0,0,1,3.22-1.45c4-1.43,5.73-1.25,5.73-5.58a7.05,7.05,0,0,1,.27-1.83c0-.57,0-1.14,0-1.72.09-2,1.55-5.46.7-6.88-1-1.63-3.53-2.66-4.68-4.53a3.26,3.26,0,0,1-.18-.38,5.23,5.23,0,0,1-2.47-1.32,2.86,2.86,0,0,1-2.9-.88l-1.63-.28a3,3,0,0,1-1.73.41c-1.33,1.76-4.29,2.5-5.46,0-2.08-4.47-.94-10.39,5.17-9.61a4.55,4.55,0,0,1,2,.79,13.61,13.61,0,0,1,3.06.18,4.87,4.87,0,0,1,2.43-.68h3.92c0-.12,0-.22.06-.35a33.5,33.5,0,0,0,0-5,18.12,18.12,0,0,1,1-7.17l-.34-.75c-4.08-.8-11.39-.42-13.06-.84a2.87,2.87,0,0,1-2.05-1.61,4.1,4.1,0,0,1-1-1.44,14.15,14.15,0,0,1-.91-4,3.15,3.15,0,0,1,1.6-2.79,10.6,10.6,0,0,1,1.53-.61,7.07,7.07,0,0,1,2.12-1.59,4.51,4.51,0,0,1,3.52-1.52h.29a11.26,11.26,0,0,0,3.24-1.82c1.57-1.33,3-2.9,5.31-2.59l.09,0v-12c-6.2-.15-12.51-2.14-16.07-7.53-1.29-2-.14-3.73,1.55-4.41a1.05,1.05,0,0,1,.71-.82l8.81-2.72L404,286.58l-15.4-5.22s-4.11,11.18-9.48,11.14-13.82,10.9-14.74,16.5,5.94,8.19,0,11.13-4,10.47-6.56,15.67c-2.33,4.77-9.91.42-13.65,1.37-6.6,1.69-5,11.57-13.2,12.48-1.77.2-3.57-.1-5.35,0a11.49,11.49,0,0,0-4.6,1.35,3.82,3.82,0,0,0-1.68,1.52c-1.47,2.93,3.74,6.73,1.49,9.11-2.94.31-5.35,2.38-8.07,3.52-6.31,2.63-13.41,0-20.1-1.36a87,87,0,0,0-18.08-1.4c-4.39,0-9.63.26-8,3.94l.36.26a7.61,7.61,0,0,1,2.69,3.61,4.05,4.05,0,0,1,.87,1.31,3.24,3.24,0,0,1-.54,2.88c-1,4.38-6.75,6.48-13.3,7.51a1.21,1.21,0,0,0,.08.77,77.83,77.83,0,0,1-14.48.87,22.65,22.65,0,0,1-5.53-.5c-8,.32-20.44,1.37-27-3-6.33-4.22-5.62-10.59-13.62-13.2-4.47-1.46-3.92-5.08-6.07-8.42-3.12-4.87-8.23-3.2-10.63-8.12-1.61-3.32-6.79-3.27-8.8-6.37-1.14-1.77-.93-4.07-.49-6.13a2.48,2.48,0,0,1,.58-1.32c.39-.37,1-.45,1.41-.78.89-.67.78-2,1.13-3.07,1-3.05,5.2-3.42,6.52-6.2-6.51-4.84-16.7-7.75-15.4-18.2.52-4.15-12.66-6.11-16.35-12s-10.92,3.65-16.54-8.5-29.16-9.53-31.63-9.52-6.78,12.06-13,13.68c-3.78,1-1.22,5.16,1.38,9a3.53,3.53,0,0,1,2.5.29.57.57,0,0,0,.13.08,6.43,6.43,0,0,1,3.23.06c2,.61,3,2.34,3.66,4.17a2.54,2.54,0,0,1,.13,1.12,3.59,3.59,0,0,1,1.06,1.65,3.23,3.23,0,0,1-2.26,4,1.54,1.54,0,0,1-.31.05l-.17.17a3.32,3.32,0,0,1-3.59.25,7.7,7.7,0,0,1-1.28-.73c-.56,1.14-1.81,2.08-4.48,2.65-6.23,1.33-7.72,8.78-6.23,13.38a2.73,2.73,0,0,1,.06,1.57c2.44,0,4.9.29,7.23.34,6.32.26,6.36,10,0,9.85-.33,0-.66,0-1,0a5.3,5.3,0,0,1-3.25,3,22,22,0,0,0-4.09,2.1c.42,3.9,1.25,8.53.72,12.53a16.87,16.87,0,0,1,1.86.5A8.17,8.17,0,0,1,87,362.16a3.2,3.2,0,0,1,3.29-.08,3.25,3.25,0,0,1,1.58,2.6,6.34,6.34,0,0,1,.68.19,2.93,2.93,0,0,1,.4-.19,2.55,2.55,0,0,1,1.25-.28,2.51,2.51,0,0,1,1.24.28,2.46,2.46,0,0,1,1,.67,5.84,5.84,0,0,1,.39.48l.4.31a3.25,3.25,0,0,1,.84,1.43c0,.28.07.57.11.86a2.31,2.31,0,0,1-.28,1.24,2.37,2.37,0,0,1-.67,1,2.31,2.31,0,0,1-1,.67,2.41,2.41,0,0,1-1.24.28,5.92,5.92,0,0,1-.62-.06,2.69,2.69,0,0,1-1.69,1.13,9.29,9.29,0,0,1-5.33-.45,6.67,6.67,0,0,1-2.28.11,7.61,7.61,0,0,1-1.53-.38,12,12,0,0,1-3.59,1.5,92.91,92.91,0,0,1-.15,10.31c0,.4,0,.8,0,1.22A22.85,22.85,0,0,1,86,388.58a4,4,0,0,1,1.45,1.95l.08,0a8.63,8.63,0,0,1,4.4.84c1.93.89,2,3.72.66,5.08-.35.35-.7.67-1.05,1a3.24,3.24,0,0,1-2.36,3,11.19,11.19,0,0,1-1.35.25,6.85,6.85,0,0,1-4.12,1.41h-.19a3.2,3.2,0,0,1-3.11,2.41,5.77,5.77,0,0,0-.72,0h0c.11,0-.65.39-.39.17a4.6,4.6,0,0,0-.81,1,12,12,0,0,1-3.93,3.93,3.15,3.15,0,0,1-1.75.4,32.22,32.22,0,0,0-2.26,3.78H433.34a4.47,4.47,0,0,0,.07-.91A6.26,6.26,0,0,1,430.07,409.93Z" style="fill:#fafafa;opacity:0.8"></path><rect x="388.63" y="402.19" width="35.34" height="12.05" style="fill:#263238"></rect><rect x="350.13" y="402.19" width="35.34" height="12.05" style="fill:#263238"></rect><rect x="311.62" y="402.19" width="35.34" height="12.05" style="fill:#263238"></rect><rect x="273.12" y="402.19" width="35.34" height="12.05" style="fill:#263238"></rect><rect x="234.61" y="402.19" width="35.34" height="12.05" style="fill:#263238"></rect><rect x="196.11" y="402.19" width="35.34" height="12.05" style="fill:#263238"></rect><rect x="157.6" y="402.19" width="35.34" height="12.05" style="fill:#263238"></rect><rect x="119.09" y="402.19" width="35.34" height="12.05" style="fill:#263238"></rect><rect x="80.59" y="402.19" width="35.34" height="12.05" style="fill:#263238"></rect><rect x="388.63" y="373.43" width="35.34" height="12.05" style="fill:#263238"></rect><rect x="350.13" y="373.43" width="35.34" height="12.05" style="fill:#263238"></rect><rect x="311.62" y="373.43" width="35.34" height="12.05" style="fill:#263238"></rect><rect x="273.12" y="373.43" width="35.34" height="12.05" style="fill:#263238"></rect><rect x="196.11" y="373.43" width="35.34" height="12.05" style="fill:#263238"></rect><rect x="157.6" y="373.43" width="35.34" height="12.05" style="fill:#263238"></rect><rect x="119.09" y="373.43" width="35.34" height="12.05" style="fill:#263238"></rect><rect x="80.59" y="373.43" width="35.34" height="12.05" style="fill:#263238"></rect><rect x="388.63" y="344.68" width="35.34" height="12.05" style="fill:#263238"></rect><rect x="350.13" y="344.68" width="35.34" height="12.05" style="fill:#263238"></rect><rect x="311.62" y="344.68" width="35.34" height="12.05" style="fill:#263238"></rect><rect x="157.6" y="344.68" width="35.34" height="12.05" style="fill:#263238"></rect><rect x="119.09" y="344.68" width="35.34" height="12.05" style="fill:#263238"></rect><rect x="80.59" y="344.68" width="35.34" height="12.05" style="fill:#263238"></rect><rect x="388.63" y="315.92" width="35.34" height="12.05" style="fill:#263238"></rect><rect x="350.13" y="315.92" width="35.34" height="12.05" style="fill:#263238"></rect><rect x="169.25" y="304.27" width="12.05" height="35.34" transform="translate(-173.3 435.38) rotate(-79.46)" style="fill:#263238"></rect><rect x="119.09" y="315.92" width="35.34" height="12.05" style="fill:#263238"></rect><rect x="80.59" y="315.92" width="35.34" height="12.05" style="fill:#263238"></rect><rect x="369.38" y="387.81" width="35.34" height="12.05" style="fill:#263238"></rect><rect x="330.88" y="387.81" width="35.34" height="12.05" style="fill:#263238"></rect><rect x="292.37" y="387.81" width="35.34" height="12.05" style="fill:#263238"></rect><rect x="253.86" y="387.81" width="35.34" height="12.05" style="fill:#263238"></rect><rect x="215.36" y="387.81" width="35.34" height="12.05" style="fill:#263238"></rect><rect x="176.85" y="387.81" width="35.34" height="12.05" style="fill:#263238"></rect><rect x="138.35" y="387.81" width="35.34" height="12.05" style="fill:#263238"></rect><rect x="99.84" y="387.81" width="35.34" height="12.05" style="fill:#263238"></rect><rect x="369.38" y="359.05" width="35.34" height="12.05" style="fill:#263238"></rect><rect x="330.88" y="359.05" width="35.34" height="12.05" style="fill:#263238"></rect><rect x="292.37" y="359.05" width="35.34" height="12.05" style="fill:#263238"></rect><rect x="253.86" y="359.05" width="35.34" height="12.05" style="fill:#263238"></rect><rect x="176.85" y="359.05" width="35.34" height="12.05" style="fill:#263238"></rect><rect x="138.35" y="359.05" width="35.34" height="12.05" style="fill:#263238"></rect><rect x="99.84" y="359.05" width="35.34" height="12.05" style="fill:#263238"></rect><rect x="369.38" y="330.3" width="35.34" height="12.05" style="fill:#263238"></rect><rect x="330.88" y="330.3" width="35.34" height="12.05" style="fill:#263238"></rect><rect x="138.35" y="330.3" width="35.34" height="12.05" style="fill:#263238"></rect><rect x="99.84" y="330.3" width="35.34" height="12.05" style="fill:#263238"></rect><rect x="383.63" y="287.16" width="35.34" height="12.05" style="fill:#263238"></rect><rect x="346.43" y="293.53" width="35.34" height="12.05" transform="translate(-107.05 281.68) rotate(-37.27)" style="fill:#263238"></rect><rect x="119.09" y="287.16" width="35.34" height="12.05" style="fill:#263238"></rect><rect x="80.59" y="287.16" width="35.34" height="12.05" style="fill:#263238"></rect><rect x="369.38" y="301.54" width="35.34" height="12.05" style="fill:#263238"></rect><rect x="138.35" y="301.54" width="35.34" height="12.05" transform="matrix(1, -0.09, 0.09, 1, -27.33, 15.47)" style="fill:#263238"></rect><rect x="99.84" y="301.54" width="35.34" height="12.05" style="fill:#263238"></rect><rect x="381.03" y="261.14" width="12.05" height="35.34" transform="translate(70.74 635.86) rotate(-84.23)" style="fill:#263238"></rect><rect x="99.84" y="272.78" width="35.34" height="12.05" style="fill:#263238"></rect><g style="opacity:0.9"><rect x="388.63" y="402.19" width="35.34" height="12.05" style="fill:#fafafa"></rect><rect x="350.13" y="402.19" width="35.34" height="12.05" style="fill:#fafafa"></rect><rect x="311.62" y="402.19" width="35.34" height="12.05" style="fill:#fafafa"></rect><rect x="273.12" y="402.19" width="35.34" height="12.05" style="fill:#fafafa"></rect><rect x="234.61" y="402.19" width="35.34" height="12.05" style="fill:#fafafa"></rect><rect x="196.11" y="402.19" width="35.34" height="12.05" style="fill:#fafafa"></rect><rect x="157.6" y="402.19" width="35.34" height="12.05" style="fill:#fafafa"></rect><rect x="119.09" y="402.19" width="35.34" height="12.05" style="fill:#fafafa"></rect><rect x="80.59" y="402.19" width="35.34" height="12.05" style="fill:#fafafa"></rect><rect x="388.63" y="373.43" width="35.34" height="12.05" style="fill:#fafafa"></rect><rect x="350.13" y="373.43" width="35.34" height="12.05" style="fill:#fafafa"></rect><rect x="311.62" y="373.43" width="35.34" height="12.05" style="fill:#fafafa"></rect><rect x="273.12" y="373.43" width="35.34" height="12.05" style="fill:#fafafa"></rect><rect x="196.11" y="373.43" width="35.34" height="12.05" style="fill:#fafafa"></rect><rect x="157.6" y="373.43" width="35.34" height="12.05" style="fill:#fafafa"></rect><rect x="119.09" y="373.43" width="35.34" height="12.05" style="fill:#fafafa"></rect><rect x="80.59" y="373.43" width="35.34" height="12.05" style="fill:#fafafa"></rect><rect x="388.63" y="344.68" width="35.34" height="12.05" style="fill:#fafafa"></rect><rect x="350.13" y="344.68" width="35.34" height="12.05" style="fill:#fafafa"></rect><rect x="311.62" y="344.68" width="35.34" height="12.05" style="fill:#fafafa"></rect><rect x="157.6" y="344.68" width="35.34" height="12.05" style="fill:#fafafa"></rect><rect x="119.09" y="344.68" width="35.34" height="12.05" style="fill:#fafafa"></rect><rect x="80.59" y="344.68" width="35.34" height="12.05" style="fill:#fafafa"></rect><rect x="388.63" y="315.92" width="35.34" height="12.05" style="fill:#fafafa"></rect><rect x="350.13" y="315.92" width="35.34" height="12.05" style="fill:#fafafa"></rect><rect x="169.25" y="304.27" width="12.05" height="35.34" transform="translate(-173.3 435.38) rotate(-79.46)" style="fill:#fafafa"></rect><rect x="119.09" y="315.92" width="35.34" height="12.05" style="fill:#fafafa"></rect><rect x="80.59" y="315.92" width="35.34" height="12.05" style="fill:#fafafa"></rect><rect x="369.38" y="387.81" width="35.34" height="12.05" style="fill:#fafafa"></rect><rect x="330.88" y="387.81" width="35.34" height="12.05" style="fill:#fafafa"></rect><rect x="292.37" y="387.81" width="35.34" height="12.05" style="fill:#fafafa"></rect><rect x="253.86" y="387.81" width="35.34" height="12.05" style="fill:#fafafa"></rect><rect x="215.36" y="387.81" width="35.34" height="12.05" style="fill:#fafafa"></rect><rect x="176.85" y="387.81" width="35.34" height="12.05" style="fill:#fafafa"></rect><rect x="138.35" y="387.81" width="35.34" height="12.05" style="fill:#fafafa"></rect><rect x="99.84" y="387.81" width="35.34" height="12.05" style="fill:#fafafa"></rect><rect x="369.38" y="359.05" width="35.34" height="12.05" style="fill:#fafafa"></rect><rect x="330.88" y="359.05" width="35.34" height="12.05" style="fill:#fafafa"></rect><rect x="292.37" y="359.05" width="35.34" height="12.05" style="fill:#fafafa"></rect><rect x="253.86" y="359.05" width="35.34" height="12.05" style="fill:#fafafa"></rect><rect x="176.85" y="359.05" width="35.34" height="12.05" style="fill:#fafafa"></rect><rect x="138.35" y="359.05" width="35.34" height="12.05" style="fill:#fafafa"></rect><rect x="99.84" y="359.05" width="35.34" height="12.05" style="fill:#fafafa"></rect><rect x="369.38" y="330.3" width="35.34" height="12.05" style="fill:#fafafa"></rect><rect x="330.88" y="330.3" width="35.34" height="12.05" style="fill:#fafafa"></rect><rect x="138.35" y="330.3" width="35.34" height="12.05" style="fill:#fafafa"></rect><rect x="99.84" y="330.3" width="35.34" height="12.05" style="fill:#fafafa"></rect><rect x="383.63" y="287.16" width="35.34" height="12.05" style="fill:#fafafa"></rect><rect x="346.43" y="293.53" width="35.34" height="12.05" transform="translate(-107.05 281.68) rotate(-37.27)" style="fill:#fafafa"></rect><rect x="119.09" y="287.16" width="35.34" height="12.05" style="fill:#fafafa"></rect><rect x="80.59" y="287.16" width="35.34" height="12.05" style="fill:#fafafa"></rect><rect x="369.38" y="301.54" width="35.34" height="12.05" style="fill:#fafafa"></rect><rect x="138.35" y="301.54" width="35.34" height="12.05" transform="matrix(1, -0.09, 0.09, 1, -27.33, 15.47)" style="fill:#fafafa"></rect><rect x="99.84" y="301.54" width="35.34" height="12.05" style="fill:#fafafa"></rect><rect x="381.03" y="261.14" width="12.05" height="35.34" transform="translate(70.74 635.86) rotate(-84.23)" style="fill:#fafafa"></rect><rect x="99.84" y="272.78" width="35.34" height="12.05" style="fill:#fafafa"></rect></g><path d="M299.48,416.52a6.86,6.86,0,0,0-3-2.18c-2.29-.74-2.19-3.11-4.46-4.13s-3.51.09-10.46-.25-2.79-1-11.48-2.78-3.67-.07-7.29-.82-5.85-.89-9.17-1.93-6.15-1.65-9-4.62-5.79-1.27-8.42-1-7.1,1-19.2,2.71-3.68,3.35-6.84,6-8.68-.53-11.31,1.27-9.2,4-13.24,3.81c-3.26-.15-4.86,2.79-5.36,3.93Z" style="fill:#263238"></path><path d="M299.48,416.52a6.86,6.86,0,0,0-3-2.18c-2.29-.74-2.19-3.11-4.46-4.13s-3.51.09-10.46-.25-2.79-1-11.48-2.78-3.67-.07-7.29-.82-5.85-.89-9.17-1.93-6.15-1.65-9-4.62-5.79-1.27-8.42-1-7.1,1-19.2,2.71-3.68,3.35-6.84,6-8.68-.53-11.31,1.27-9.2,4-13.24,3.81c-3.26-.15-4.86,2.79-5.36,3.93Z" style="fill:#fafafa;opacity:0.7000000000000001"></path><polygon points="212.19 403.35 216.97 410.38 249.23 402.52 244.27 395.44 212.19 403.35" style="fill:#263238"></polygon><polygon points="212.19 403.35 216.97 410.38 249.23 402.52 244.27 395.44 212.19 403.35" style="fill:#fafafa;opacity:0.8"></polygon><polygon points="244.93 410.38 253.86 402.45 258.87 405.38 265.43 406.27 257.2 414.72 244.93 410.38" style="fill:#263238"></polygon><polygon points="244.93 410.38 253.86 402.45 258.87 405.38 265.43 406.27 257.2 414.72 244.93 410.38" style="fill:#fafafa;opacity:0.8"></polygon><path d="M172.7,416.52c-1.25-1.26-3.37-3.24-4.32-3.41a10.67,10.67,0,0,0-4.35,0c-2.37.36-2.17-1.93-4.35-2.73S153.35,408,151,407s-3.76,0-5.34.86-4.75.33-8.87,2.5-7.35,3.86-10.12,4.34a15.25,15.25,0,0,0-4.49,1.8Z" style="fill:#263238"></path><path d="M172.7,416.52c-1.25-1.26-3.37-3.24-4.32-3.41a10.67,10.67,0,0,0-4.35,0c-2.37.36-2.17-1.93-4.35-2.73S153.35,408,151,407s-3.76,0-5.34.86-4.75.33-8.87,2.5-7.35,3.86-10.12,4.34a15.25,15.25,0,0,0-4.49,1.8Z" style="fill:#fafafa;opacity:0.7000000000000001"></path></g><g id="freepik--speech-bubble--inject-8"><path d="M333.07,169H375.8a8.84,8.84,0,0,1,8.85,8.84v15a8.84,8.84,0,0,1-8.85,8.84H347.4l-13,13.9,7-13.9h-8.38a8.84,8.84,0,0,1-8.85-8.84v-15A8.84,8.84,0,0,1,333.07,169Z" style="fill:#407BFF"></path><path d="M335.16,184.48a5.07,5.07,0,1,1,5.08,4.88A4.84,4.84,0,0,1,335.16,184.48Zm8.77,0a3.71,3.71,0,1,0-3.69,3.66A3.59,3.59,0,0,0,343.93,184.48Z" style="fill:#fff"></path><path d="M346.52,185.64a3.76,3.76,0,1,1,3.76,3.69A3.59,3.59,0,0,1,346.52,185.64Zm6.19,0a2.44,2.44,0,1,0-2.43,2.54A2.38,2.38,0,0,0,352.71,185.64Z" style="fill:#fff"></path><path d="M363.32,185.64a3.51,3.51,0,0,1-3.65,3.69,3.1,3.1,0,0,1-2.52-1.17v3.73h-1.31V182h1.25v1.15a3.09,3.09,0,0,1,2.58-1.21A3.5,3.5,0,0,1,363.32,185.64Zm-1.32,0a2.44,2.44,0,1,0-2.44,2.54A2.39,2.39,0,0,0,362,185.64Z" style="fill:#fff"></path><path d="M364.22,188.48l.54-1a4.73,4.73,0,0,0,2.54.75c1.21,0,1.71-.37,1.71-1,0-1.63-4.56-.22-4.56-3.1,0-1.29,1.16-2.16,3-2.16a5.25,5.25,0,0,1,2.63.65l-.56,1a3.69,3.69,0,0,0-2.08-.58c-1.15,0-1.71.43-1.71,1,0,1.7,4.58.31,4.58,3.12,0,1.31-1.2,2.14-3.12,2.14A5.17,5.17,0,0,1,364.22,188.48Z" style="fill:#fff"></path><path d="M371.66,188.46a.87.87,0,0,1,.9-.88.88.88,0,0,1,0,1.75A.88.88,0,0,1,371.66,188.46Zm.12-8.75h1.54l-.26,6.53h-1Z" style="fill:#fff"></path></g></svg>