<?xml version="1.0" encoding="UTF-8" standalone="no"?>
<svg
   viewBox="0 0 500 500"
   version="1.1"
   id="svg322"
   sodipodi:docname="deleted.svg"
   inkscape:version="1.2.2 (732a01da63, 2022-12-09)"
   xmlns:inkscape="http://www.inkscape.org/namespaces/inkscape"
   xmlns:sodipodi="http://sodipodi.sourceforge.net/DTD/sodipodi-0.dtd"
   xmlns="http://www.w3.org/2000/svg"
   xmlns:svg="http://www.w3.org/2000/svg">
  <defs
     id="defs326" />
  <sodipodi:namedview
     id="namedview324"
     pagecolor="#505050"
     bordercolor="#ffffff"
     borderopacity="1"
     inkscape:showpageshadow="0"
     inkscape:pageopacity="0"
     inkscape:pagecheckerboard="1"
     inkscape:deskcolor="#505050"
     showgrid="false"
     inkscape:zoom="1.314"
     inkscape:cx="323.05936"
     inkscape:cy="264.07915"
     inkscape:window-width="1600"
     inkscape:window-height="837"
     inkscape:window-x="-8"
     inkscape:window-y="327"
     inkscape:window-maximized="1"
     inkscape:current-layer="svg322" />
  <g
     id="freepik--background-simple--inject-61">
    <path
       d="M418.84,123.09S394.33,73.35,340.19,66s-91.92,28.56-131.76,47c-20.86,9.65-44.69,5.9-66.84,10.57C70.78,138.46,44.1,232,73.6,285.22c25.54,46.06,70.48,70,138.92,75.53s116.44,12,177.72-33.16S447.44,188.5,418.84,123.09Z"
       style="fill:#0756BD"
       id="path2" />
    <path
       d="M418.84,123.09S394.33,73.35,340.19,66s-91.92,28.56-131.76,47c-20.86,9.65-44.69,5.9-66.84,10.57C70.78,138.46,44.1,232,73.6,285.22c25.54,46.06,70.48,70,138.92,75.53s116.44,12,177.72-33.16S447.44,188.5,418.84,123.09Z"
       style="fill:#fff;opacity:0.7000000000000001"
       id="path4" />
  </g>
  <g
     id="freepik--Envelope--inject-61">
    <path
       d="M385.84,310.43H124.53a14.37,14.37,0,0,1-14.35-14.35V146.56a14.37,14.37,0,0,1,14.35-14.35H385.84a14.36,14.36,0,0,1,14.35,14.35V296.08A14.36,14.36,0,0,1,385.84,310.43ZM124.53,136.21a10.36,10.36,0,0,0-10.35,10.35V296.08a10.36,10.36,0,0,0,10.35,10.35H385.84a10.36,10.36,0,0,0,10.35-10.35V146.56a10.36,10.36,0,0,0-10.35-10.35Z"
       style="fill:#0756BD"
       id="path7" />
    <path
       d="M255.19,223.32a2,2,0,0,1-1-.26L112.76,143.43a2,2,0,1,1,2-3.48L255.18,219l141.1-80.14a2,2,0,0,1,2,3.48l-142.09,80.7A2,2,0,0,1,255.19,223.32Z"
       style="fill:#0756BD"
       id="path9" />
  </g>
  <g
     id="freepik--Floor--inject-61">
    <ellipse
       cx="257.26"
       cy="406.64"
       rx="202.28"
       ry="7.46"
       style="fill:#0756BD"
       id="ellipse12" />
    <ellipse
       cx="257.26"
       cy="406.64"
       rx="202.28"
       ry="7.46"
       style="fill:#fff;opacity:0.5"
       id="ellipse14" />
  </g>
  <g
     id="freepik--Plant--inject-61">
    <path
       d="M101.15,284.4s.93-3.4,1-3.62c.36-2.57-.46-7.76-3.09-9a3.43,3.43,0,0,0-4.68,2.07c-.71,1.93.19,4.3,1.24,5.93C96.82,281.67,101.14,284.4,101.15,284.4Z"
       style="fill:#0756BD"
       id="path17" />
    <path
       d="M116.4,265.89c-2.9-.32-6.34,3.65-7.39,6-.1.21-1.16,3.58-1.1,3.58H108c-.55.62-1.13,1.3-1.75,2-1.13,1.39-2.4,3-3.66,4.79a60.84,60.84,0,0,0-3.79,6.05,45.41,45.41,0,0,0-3.25,7.29s0,.07,0,.1c0-.86,0-3.24,0-3.42-.33-2.58-2.49-7.36-5.35-7.89a3.45,3.45,0,0,0-4,3.24c-.16,2,1.32,4.09,2.77,5.39,1.63,1.45,6.16,2.87,6.52,3A61.56,61.56,0,0,0,93.5,304c-.28,1.56-.51,3.14-.72,4.72,0-.73,0-1.39,0-1.49-.33-2.57-2.49-7.36-5.36-7.89a3.45,3.45,0,0,0-4,3.24c-.17,2,1.32,4.1,2.77,5.39s5.3,2.6,6.32,2.92c-.07.61-.15,1.22-.22,1.83-.35,2.92-.69,5.83-1.11,8.68-.14,1-.32,2-.5,3,0-.66,0-1.21,0-1.29-.33-2.58-2.49-7.36-5.35-7.89a3.45,3.45,0,0,0-4,3.24c-.16,2,1.32,4.09,2.77,5.39s4.93,2.46,6.15,2.86c-.22,1-.43,2-.68,3-.19.65-.32,1.29-.54,1.94s-.42,1.28-.62,1.91c-.44,1.21-.88,2.45-1.34,3.61-.31.81-.62,1.58-.93,2.35.16-1,.42-3,.43-3.13a13.38,13.38,0,0,0-1.8-6.5,3.84,3.84,0,0,0,0-.76,3.45,3.45,0,0,0-4.22-2.93c-2.81.75-4.59,5.69-4.72,8.29,0,.15.09,1.82.17,2.87-.14-.61-.27-1.2-.43-1.83-.29-1.25-.62-2.48-1-3.81-.2-.63-.39-1.27-.59-1.92s-.45-1.31-.68-2c-.55-1.52-1.19-3-1.87-4.55,1.09-.26,5-1.24,6.49-2.43s3.18-3.11,3.16-5.17a3.43,3.43,0,0,0-3.72-3.52c-2.89.31-5.4,4.92-5.93,7.47,0,.16-.2,2-.28,3-.41-.9-.82-1.81-1.27-2.71-1.29-2.6-2.68-5.2-4.06-7.8-.42-.79-.83-1.59-1.24-2.38.39-.09,5-1.16,6.72-2.49,1.54-1.18,3.18-3.12,3.16-5.17a3.45,3.45,0,0,0-3.72-3.53c-2.89.32-5.4,4.93-5.93,7.47,0,.19-.28,2.88-.31,3.57-.91-1.75-1.8-3.51-2.61-5.28A60.9,60.9,0,0,1,59,296.93c.18,0,5-1.13,6.77-2.49,1.54-1.18,3.17-3.12,3.15-5.17a3.45,3.45,0,0,0-3.72-3.53c-2.89.32-5.4,4.93-5.93,7.47,0,.17-.22,2.22-.28,3.2h-.17a44.74,44.74,0,0,1-1.48-7.77c-.16-1.45-.24-2.84-.28-4.19.92-.11,5.1-.67,6.84-1.72S67.4,280,67.61,278A3.44,3.44,0,0,0,64.3,274c-2.91,0-5.91,4.3-6.71,6.77,0,.13-.34,1.55-.53,2.58,0-.61,0-1.24,0-1.83,0-2.2.14-4.21.28-6,.09-1,.18-1.92.28-2.78.85-.58,4.21-2.95,5.25-4.65s1.84-4.05,1.08-6a3.45,3.45,0,0,0-4.74-1.95c-2.59,1.34-3.27,6.54-2.84,9.1,0,.23,1,3.62,1.06,3.59l.05,0c-.11.82-.23,1.7-.33,2.67-.18,1.78-.36,3.8-.41,6a60,60,0,0,0,.17,7.13,44.57,44.57,0,0,0,1.32,7.88l0,.09c-.46-.72-1.81-2.69-1.93-2.83-1.7-2-6.14-4.76-8.82-3.62A3.44,3.44,0,0,0,46,295.1c1,1.8,3.36,2.69,5.28,3,2.16.32,6.72-1,7.09-1.11a59.61,59.61,0,0,0,2.76,7.65c.63,1.45,1.3,2.9,2,4.33-.41-.61-.79-1.15-.85-1.22-1.7-2-6.14-4.76-8.82-3.62A3.44,3.44,0,0,0,51.89,309c1,1.8,3.36,2.69,5.28,3s5.86-.76,6.89-1.06c.27.55.54,1.1.82,1.65,1.32,2.63,2.65,5.25,3.87,7.86.43.91.82,1.84,1.22,2.76-.37-.55-.69-1-.74-1.06-1.7-2-6.14-4.77-8.82-3.63a3.45,3.45,0,0,0-1.53,4.9c1,1.8,3.36,2.69,5.28,3s5.48-.67,6.7-1c.38,1,.76,1.91,1.08,2.85.21.65.45,1.26.62,1.92l.54,1.94c.3,1.24.61,2.52.87,3.74.19.85.35,1.66.52,2.48-.42-.92-1.28-2.7-1.37-2.85-1.38-2.2-5.34-5.63-8.17-4.92a3.45,3.45,0,0,0-2.25,4.61c.71,1.93,2.92,3.17,4.77,3.74,2,.62,6.57,0,7.14,0,.27,1.36.52,2.67.74,3.92.76,4.32,1.23,7.95,1.52,10.49,0,.45.1.86.14,1.24H68.25L71,407.2H86.87l2.7-52.73H81.41l.18-.38c1.12-2.33,2.68-5.68,4.35-9.79.54-1.29,1.08-2.68,1.62-4.12.55.11,5,1,7.12.55,1.89-.43,4.19-1.5,5-3.37a3.44,3.44,0,0,0-1.9-4.76c-2.76-.93-7,2.21-8.51,4.3-.09.12-.93,1.57-1.44,2.49.22-.59.44-1.15.65-1.76.44-1.2.85-2.41,1.29-3.71l.57-1.93c.21-.64.35-1.34.52-2,.38-1.57.68-3.19,1-4.82,1,.38,4.81,1.69,6.75,1.55s4.37-.85,5.49-2.57a3.44,3.44,0,0,0-1.16-5c-2.58-1.33-7.22,1.12-9.06,3-.12.11-1.29,1.58-1.92,2.39.15-1,.31-2,.44-3,.35-2.89.63-5.82.91-8.74.09-.9.19-1.79.28-2.68.37.14,4.8,1.79,7,1.63,1.94-.13,4.37-.84,5.49-2.57a3.44,3.44,0,0,0-1.16-5c-2.59-1.33-7.22,1.13-9.07,3-.13.14-1.82,2.25-2.22,2.8.2-2,.43-3.92.73-5.84A60.2,60.2,0,0,1,96,296.41c.17.07,4.79,1.81,7,1.66,1.93-.14,4.36-.85,5.48-2.57a3.45,3.45,0,0,0-1.15-5c-2.59-1.33-7.23,1.13-9.07,3-.12.12-1.41,1.73-2,2.5l-.15-.07a43.81,43.81,0,0,1,3.06-7.3c.66-1.3,1.36-2.5,2.07-3.65.83.41,4.63,2.26,6.65,2.34s4.43-.36,5.74-1.95a3.45,3.45,0,0,0-.6-5.09c-2.43-1.61-7.31.32-9.34,1.94-.11.09-1.14,1.11-1.87,1.86.33-.51.66-1.05,1-1.54,1.22-1.83,2.45-3.44,3.55-4.85.63-.8,1.22-1.5,1.77-2.16,1,0,5.14-.14,6.94-1s3.77-2.36,4.2-4.37A3.45,3.45,0,0,0,116.4,265.89ZM84.35,343.63c-1.74,4-3.35,7.31-4.51,9.6l-.64,1.24H79c-.06-.45-.12-.94-.2-1.48-.35-2.57-.9-6.22-1.77-10.57-.27-1.37-.58-2.83-.92-4.33a39.73,39.73,0,0,0,4-1.87c1.49,1.61,5.3,3.5,5.8,3.74C85.38,341.24,84.86,342.47,84.35,343.63Z"
       style="fill:#0756BD"
       id="path19" />
    <path
       d="M49.47,283.27c2.09.92,7.2.8,7.2.8s-1.09-3.34-1.19-3.55c-1.12-2.34-4.67-6.21-7.55-5.82A3.44,3.44,0,0,0,45.17,279C45.64,281,47.69,282.5,49.47,283.27Z"
       style="fill:#0756BD"
       id="path21" />
    <path
       d="M49.47,283.27c2.09.92,7.2.8,7.2.8s-1.09-3.34-1.19-3.55c-1.12-2.34-4.67-6.21-7.55-5.82A3.44,3.44,0,0,0,45.17,279C45.64,281,47.69,282.5,49.47,283.27Z"
       style="fill:#fff;opacity:0.30000000000000004"
       id="path23" />
    <path
       d="M101.15,284.4s.93-3.4,1-3.62c.36-2.57-.46-7.76-3.09-9a3.43,3.43,0,0,0-4.68,2.07c-.71,1.93.19,4.3,1.24,5.93C96.82,281.67,101.14,284.4,101.15,284.4Z"
       style="fill:#fff;opacity:0.30000000000000004"
       id="path25" />
    <path
       d="M58.33,297a59.61,59.61,0,0,0,2.76,7.65c.63,1.45,1.3,2.9,2,4.33-.41-.61-.79-1.15-.85-1.22-1.7-2-6.14-4.76-8.82-3.62A3.44,3.44,0,0,0,51.89,309c1,1.8,3.36,2.69,5.28,3s5.86-.76,6.89-1.06c.27.55.54,1.1.82,1.65,1.32,2.63,2.65,5.25,3.87,7.86.43.91.82,1.84,1.22,2.76-.37-.55-.69-1-.74-1.06-1.7-2-6.14-4.77-8.82-3.63a3.45,3.45,0,0,0-1.53,4.9c1,1.8,3.36,2.69,5.28,3s5.48-.67,6.7-1c.38,1,.76,1.91,1.08,2.85.21.65.45,1.26.62,1.92l.54,1.94c.3,1.24.61,2.52.87,3.74.19.85.35,1.66.52,2.48-.42-.92-1.28-2.7-1.37-2.85-1.38-2.2-5.34-5.63-8.17-4.92a3.45,3.45,0,0,0-2.25,4.61c.71,1.93,2.92,3.17,4.77,3.74,2,.62,6.57,0,7.14,0,.27,1.36.52,2.67.74,3.92.76,4.32,1.23,7.95,1.52,10.49,0,.45.1.86.14,1.24H68.25L71,407.2H86.87l2.7-52.73H81.41l.18-.38c1.12-2.33,2.68-5.68,4.35-9.79.54-1.29,1.08-2.68,1.62-4.12.55.11,5,1,7.12.55,1.89-.43,4.19-1.5,5-3.37a3.44,3.44,0,0,0-1.9-4.76c-2.76-.93-7,2.21-8.51,4.3-.09.12-.93,1.57-1.44,2.49.22-.59.44-1.15.65-1.76.44-1.2.85-2.41,1.29-3.71l.57-1.93c.21-.64.35-1.34.52-2,.38-1.57.68-3.19,1-4.82,1,.38,4.81,1.69,6.75,1.55s4.37-.85,5.49-2.57a3.44,3.44,0,0,0-1.16-5c-2.58-1.33-7.22,1.12-9.06,3-.12.11-1.29,1.58-1.92,2.39.15-1,.31-2,.44-3,.35-2.89.63-5.82.91-8.74.09-.9.19-1.79.28-2.68.37.14,4.8,1.79,7,1.63,1.94-.13,4.37-.84,5.49-2.57a3.44,3.44,0,0,0-1.16-5c-2.59-1.33-7.22,1.13-9.07,3-.13.14-1.82,2.25-2.22,2.8.2-2,.43-3.92.73-5.84A60.2,60.2,0,0,1,96,296.41c.17.07,4.79,1.81,7,1.66,1.93-.14,4.36-.85,5.48-2.57a3.45,3.45,0,0,0-1.15-5c-2.59-1.33-7.23,1.13-9.07,3-.12.12-1.41,1.73-2,2.5l-.15-.07a43.81,43.81,0,0,1,3.06-7.3c.66-1.3,1.36-2.5,2.07-3.65.83.41,4.63,2.26,6.65,2.34s4.43-.36,5.74-1.95a3.45,3.45,0,0,0-.6-5.09c-2.43-1.61-7.31.32-9.34,1.94-.11.09-1.14,1.11-1.87,1.86.33-.51.66-1.05,1-1.54,1.22-1.83,2.45-3.44,3.55-4.85.63-.8,1.22-1.5,1.77-2.16,1,0,5.14-.14,6.94-1s3.77-2.36,4.2-4.37a3.45,3.45,0,0,0-2.88-4.24c-2.9-.32-6.34,3.65-7.39,6-.1.21-1.16,3.58-1.1,3.58H108c-.55.62-1.13,1.3-1.75,2-1.13,1.39-2.4,3-3.66,4.79a60.84,60.84,0,0,0-3.79,6.05,45.41,45.41,0,0,0-3.25,7.29s0,.07,0,.1c0-.86,0-3.24,0-3.42-.33-2.58-2.49-7.36-5.35-7.89a3.45,3.45,0,0,0-4,3.24c-.16,2,1.32,4.09,2.77,5.39,1.63,1.45,6.16,2.87,6.52,3A61.56,61.56,0,0,0,93.5,304c-.28,1.56-.51,3.14-.72,4.72,0-.73,0-1.39,0-1.49-.33-2.57-2.49-7.36-5.36-7.89a3.45,3.45,0,0,0-4,3.24c-.17,2,1.32,4.1,2.77,5.39s5.3,2.6,6.32,2.92c-.07.61-.15,1.22-.22,1.83-.35,2.92-.69,5.83-1.11,8.68-.14,1-.32,2-.5,3,0-.66,0-1.21,0-1.29-.33-2.58-2.49-7.36-5.35-7.89a3.45,3.45,0,0,0-4,3.24c-.16,2,1.32,4.09,2.77,5.39s4.93,2.46,6.15,2.86c-.22,1-.43,2-.68,3-.19.65-.32,1.29-.54,1.94s-.42,1.28-.62,1.91c-.44,1.21-.88,2.45-1.34,3.61-.31.81-.62,1.58-.93,2.35.16-1,.42-3,.43-3.13a13.38,13.38,0,0,0-1.8-6.5,3.84,3.84,0,0,0,0-.76,3.45,3.45,0,0,0-4.22-2.93c-2.81.75-4.59,5.69-4.72,8.29,0,.15.09,1.82.17,2.87-.14-.61-.27-1.2-.43-1.83-.29-1.25-.62-2.48-1-3.81-.2-.63-.39-1.27-.59-1.92s-.45-1.31-.68-2c-.55-1.52-1.19-3-1.87-4.55,1.09-.26,5-1.24,6.49-2.43s3.18-3.11,3.16-5.17a3.43,3.43,0,0,0-3.72-3.52c-2.89.31-5.4,4.92-5.93,7.47,0,.16-.2,2-.28,3-.41-.9-.82-1.81-1.27-2.71-1.29-2.6-2.68-5.2-4.06-7.8-.42-.79-.83-1.59-1.24-2.38.39-.09,5-1.16,6.72-2.49,1.54-1.18,3.18-3.12,3.16-5.17a3.45,3.45,0,0,0-3.72-3.53c-2.89.32-5.4,4.93-5.93,7.47,0,.19-.28,2.88-.31,3.57-.91-1.75-1.8-3.51-2.61-5.28A60.9,60.9,0,0,1,59,296.93c.18,0,5-1.13,6.77-2.49,1.54-1.18,3.17-3.12,3.15-5.17a3.45,3.45,0,0,0-3.72-3.53c-2.89.32-5.4,4.93-5.93,7.47,0,.17-.22,2.22-.28,3.2h-.17a44.74,44.74,0,0,1-1.48-7.77c-.16-1.45-.24-2.84-.28-4.19.92-.11,5.1-.67,6.84-1.72S67.4,280,67.61,278A3.44,3.44,0,0,0,64.3,274c-2.91,0-5.91,4.3-6.71,6.77,0,.13-.34,1.55-.53,2.58,0-.61,0-1.24,0-1.83,0-2.2.14-4.21.28-6,.09-1,.18-1.92.28-2.78.85-.58,4.21-2.95,5.25-4.65s1.84-4.05,1.08-6a3.45,3.45,0,0,0-4.74-1.95c-2.59,1.34-3.27,6.54-2.84,9.1,0,.23,1,3.62,1.06,3.59l.05,0c-.11.82-.23,1.7-.33,2.67-.18,1.78-.36,3.8-.41,6a60,60,0,0,0,.17,7.13,44.57,44.57,0,0,0,1.32,7.88l0,.09c-.46-.72-1.81-2.69-1.93-2.83-1.7-2-6.14-4.76-8.82-3.62A3.44,3.44,0,0,0,46,295.1c1,1.8,3.36,2.69,5.28,3C53.4,298.39,58,297.07,58.33,297ZM80.1,336.22c1.49,1.61,5.3,3.5,5.8,3.74-.52,1.28-1,2.51-1.55,3.67-1.74,4-3.35,7.31-4.51,9.6l-.64,1.24H79c-.06-.45-.12-.94-.2-1.48-.35-2.57-.9-6.22-1.77-10.57-.27-1.37-.58-2.83-.92-4.33A39.73,39.73,0,0,0,80.1,336.22Z"
       style="fill:#fff;opacity:0.30000000000000004"
       id="path27" />
  </g>
  <g
     id="freepik--Mails--inject-61"
     transform="matrix(1.0987351,0,0,1.0987351,-0.8052801,-44.844797)">
    <rect
       x="377.92001"
       y="350.85999"
       width="19.01"
       height="12.49"
       transform="rotate(-2.79,387.79883,357.46316)"
       style="fill:#0756bd"
       id="rect30" />
    <path
       d="m 378.23,364.31 a 0.51,0.51 0 0 1 -0.5,-0.48 l -0.6,-12.47 a 0.52,0.52 0 0 1 0.12,-0.36 0.53,0.53 0 0 1 0.35,-0.17 l 19,-0.92 a 0.47,0.47 0 0 1 0.53,0.47 l 0.61,12.48 a 0.53,0.53 0 0 1 -0.13,0.36 0.48,0.48 0 0 1 -0.35,0.16 l -19,0.93 z m -0.08,-12.5 0.56,11.48 18,-0.88 -0.56,-11.48 z"
       style="fill:#263238"
       id="path32" />
    <path
       d="m 387.42,357.61 a 0.45,0.45 0 0 1 -0.25,-0.07 l -9.8,-5.78 a 0.49,0.49 0 0 1 -0.18,-0.68 0.51,0.51 0 0 1 0.69,-0.18 l 9.51,5.61 8.92,-6.51 a 0.51,0.51 0 0 1 0.7,0.11 0.5,0.5 0 0 1 -0.11,0.7 l -9.18,6.7 a 0.49,0.49 0 0 1 -0.3,0.1 z"
       style="fill:#263238"
       id="path34" />
    <rect
       x="391.87"
       y="402.13"
       width="19.01"
       height="4.1100001"
       transform="matrix(1,-0.07,0.07,1,-27.96,29.83)"
       style="fill:#0756bd"
       id="rect36" />
    <path
       d="m 392,407.41 a 0.5,0.5 0 0 1 -0.5,-0.46 l -0.29,-4.1 a 0.51,0.51 0 0 1 0.46,-0.54 l 19,-1.36 a 0.51,0.51 0 0 1 0.54,0.46 l 0.29,4.1 a 0.49,0.49 0 0 1 -0.12,0.37 0.51,0.51 0 0 1 -0.34,0.17 l -19,1.36 z m 0.24,-4.13 0.23,3.1 18,-1.29 -0.23,-3.11 z"
       style="fill:#263238"
       id="path38" />
    <path
       d="m 401.38,404.68 h -0.08 l -9.62,-1.37 a 0.5,0.5 0 0 1 -0.43,-0.57 0.51,0.51 0 0 1 0.57,-0.42 l 9.52,1.35 9.23,-2.7 a 0.5,0.5 0 0 1 0.62,0.34 0.51,0.51 0 0 1 -0.34,0.62 l -9.33,2.73 z"
       style="fill:#263238"
       id="path40" />
    <rect
       x="394.89999"
       y="389.42999"
       width="19.01"
       height="7.5999999"
       transform="rotate(14.36,404.49539,393.37421)"
       style="fill:#0756bd"
       id="rect42" />
    <path
       d="m 412.66,399.76 h -0.12 L 394.13,395 a 0.5,0.5 0 0 1 -0.36,-0.61 l 1.88,-7.35 a 0.5,0.5 0 0 1 0.61,-0.36 l 18.41,4.71 a 0.52,0.52 0 0 1 0.31,0.23 0.46,0.46 0 0 1 0,0.38 l -1.88,7.36 a 0.56,0.56 0 0 1 -0.23,0.31 0.58,0.58 0 0 1 -0.21,0.09 z m -17.8,-5.57 17.44,4.47 1.64,-6.4 -17.44,-4.46 z"
       style="fill:#263238"
       id="path44" />
    <path
       d="m 404.4,393.73 a 0.54,0.54 0 0 1 -0.3,-0.1 l -8.26,-6 a 0.51,0.51 0 0 1 -0.11,-0.7 0.5,0.5 0 0 1 0.7,-0.1 l 8.1,5.92 10,-1.3 a 0.5042073,0.5042073 0 0 1 0.13,1 l -10.15,1.32 z"
       style="fill:#263238"
       id="path46" />
    <rect
       x="379.75"
       y="371.66"
       width="19.01"
       height="12.49"
       transform="rotate(-28.93,389.24365,377.89498)"
       style="fill:#0756bd"
       id="rect48" />
    <path
       d="m 384,388.47 h -0.14 a 0.48,0.48 0 0 1 -0.3,-0.24 l -6,-10.93 a 0.49,0.49 0 0 1 0.19,-0.68 l 16.64,-9.19 a 0.5,0.5 0 0 1 0.68,0.19 l 6,10.93 a 0.51,0.51 0 0 1 -0.2,0.68 l -16.63,9.2 a 0.53,0.53 0 0 1 -0.24,0.04 z m -5.37,-11.24 5.56,10.06 15.76,-8.71 -5.56,-10.06 z"
       style="fill:#263238"
       id="path50" />
    <path
       d="m 389.25,378.41 v 0 l -11.33,-0.86 a 0.5012235,0.5012235 0 1 1 0.07,-1 l 11,0.84 5.15,-9.77 a 0.49,0.49 0 0 1 0.67,-0.21 0.5,0.5 0 0 1 0.21,0.68 l -5.3,10.06 a 0.49,0.49 0 0 1 -0.47,0.26 z"
       style="fill:#263238"
       id="path52" />
    <rect
       x="417.39001"
       y="396.98001"
       width="19.01"
       height="5.1399999"
       transform="rotate(-11.59,427.06701,399.67635)"
       style="fill:#0756bd"
       id="rect54" />
    <path
       d="m 418.09,404.48 a 0.48,0.48 0 0 1 -0.48,-0.4 l -1,-5 a 0.51,0.51 0 0 1 0.07,-0.38 0.49,0.49 0 0 1 0.32,-0.21 l 18.62,-3.83 a 0.51,0.51 0 0 1 0.38,0.08 0.49,0.49 0 0 1 0.21,0.31 l 1,5 a 0.5,0.5 0 0 1 -0.39,0.59 l -18.62,3.82 z m -0.44,-5.15 0.84,4.06 17.64,-3.62 -0.84,-4.06 z"
       style="fill:#263238"
       id="path56" />
    <path
       d="m 426.89,400.05 v 0 l -9.83,-0.61 a 0.49,0.49 0 0 1 -0.47,-0.53 0.47,0.47 0 0 1 0.53,-0.46 l 9.69,0.6 8.68,-4.37 a 0.5,0.5 0 1 1 0.45,0.89 l -8.8,4.43 a 0.42,0.42 0 0 1 -0.25,0.05 z"
       style="fill:#263238"
       id="path58" />
    <rect
       x="378.70892"
       y="278.33081"
       width="19.064102"
       height="7.1001492"
       transform="rotate(9.180542)"
       style="fill:#0756bd;stroke-width:1.00285"
       id="rect60" />
    <path
       d="m 347.85,345.47 h -0.08 l -18.78,-3 a 0.5,0.5 0 0 1 -0.41,-0.57 l 1.1,-7 a 0.48,0.48 0 0 1 0.2,-0.33 0.49,0.49 0 0 1 0.37,-0.09 l 18.78,3 a 0.49,0.49 0 0 1 0.41,0.57 l -1.1,7 a 0.49,0.49 0 0 1 -0.49,0.42 z m -18.21,-3.87 17.79,2.8 0.95,-6 -17.79,-2.81 z"
       style="fill:#263238"
       id="path62" />
    <path
       d="m 339,340.5 a 0.42,0.42 0 0 1 -0.24,-0.07 l -8.84,-5 a 0.5,0.5 0 0 1 0.49,-0.87 l 8.67,4.88 9.76,-2 a 0.50990195,0.50990195 0 0 1 0.2,1 l -9.94,2 z"
       style="fill:#263238"
       id="path64" />
    <rect
       x="318.66"
       y="326.03"
       width="19.01"
       height="7.0799999"
       transform="matrix(0.99,0.16,-0.16,0.99,55.31,-47.07)"
       style="fill:#0756bd"
       id="rect66" />
    <path
       d="m 337,335 h -0.08 l -18.78,-2.95 a 0.5,0.5 0 0 1 -0.41,-0.58 l 1.1,-7 a 0.46,0.46 0 0 1 0.2,-0.32 0.49,0.49 0 0 1 0.37,-0.09 l 18.78,2.95 a 0.5,0.5 0 0 1 0.41,0.58 l -1.1,7 a 0.46,0.46 0 0 1 -0.2,0.32 A 0.45,0.45 0 0 1 337,335 Z m -18.21,-3.87 17.79,2.8 0.95,-6 -17.79,-2.8 z"
       style="fill:#263238"
       id="path68" />
    <path
       d="M 328.16,330.07 A 0.51,0.51 0 0 1 327.92,330 l -8.84,-5 a 0.51,0.51 0 0 1 -0.19,-0.69 0.5,0.5 0 0 1 0.68,-0.19 l 8.67,4.89 9.76,-2 a 0.5,0.5 0 0 1 0.59,0.39 0.51,0.51 0 0 1 -0.39,0.59 l -9.94,2 z"
       style="fill:#263238"
       id="path70" />
    <rect
       x="353.17001"
       y="345.92999"
       width="19.01"
       height="9.0500002"
       transform="rotate(43.6,362.68868,350.49798)"
       style="fill:#0756bd"
       id="rect72" />
    <path
       d="m 366.43,360.79 a 0.47,0.47 0 0 1 -0.34,-0.13 l -13.77,-13.11 a 0.5,0.5 0 0 1 0,-0.71 l 6.24,-6.56 a 0.51,0.51 0 0 1 0.35,-0.15 0.48,0.48 0 0 1 0.36,0.14 L 373,353.38 a 0.49,0.49 0 0 1 0,0.7 l -6.25,6.56 a 0.49,0.49 0 0 1 -0.35,0.15 z m -13.05,-13.62 13,12.42 5.56,-5.84 -13,-12.41 z"
       style="fill:#263238"
       id="path74" />
    <path
       d="m 372.68,354.24 a 0.41,0.41 0 0 1 -0.16,0 l -10,-3.27 a 0.49,0.49 0 0 1 -0.31,-0.3 l -3.76,-9.83 a 0.5,0.5 0 1 1 0.93,-0.36 l 3.67,9.61 9.78,3.2 a 0.50559371,0.50559371 0 0 1 -0.15,1 z"
       style="fill:#263238"
       id="path76" />
    <rect
       x="350.23001"
       y="372.51999"
       width="19.01"
       height="12.49"
       transform="rotate(37.82,359.75563,378.82682)"
       style="fill:#0756bd"
       id="rect78" />
    <path
       d="m 363.41,390 a 0.47,0.47 0 0 1 -0.3,-0.1 l -15,-11.66 a 0.53,0.53 0 0 1 -0.19,-0.33 0.55,0.55 0 0 1 0.1,-0.37 l 7.66,-9.86 a 0.51,0.51 0 0 1 0.71,-0.09 l 15,11.65 a 0.53,0.53 0 0 1 0.19,0.33 0.52,0.52 0 0 1 -0.1,0.37 l -7.66,9.87 a 0.5,0.5 0 0 1 -0.41,0.19 z m -14.31,-12.22 14.22,11 7.05,-9.07 -14.22,-11.01 z"
       style="fill:#263238"
       id="path80" />
    <path
       d="m 371.07,380.16 v 0 l -11.33,-0.9 a 0.51,0.51 0 0 1 -0.44,-0.34 l -3.67,-10.76 a 0.5,0.5 0 0 1 0.94,-0.32 l 3.57,10.45 11,0.87 a 0.5,0.5 0 0 1 0,1 z"
       style="fill:#263238"
       id="path82" />
    <polygon
       points="356.22,396.75 340.62,400.31 347.76,403.67 363.36,400.12 "
       style="fill:#0756bd"
       id="polygon84" />
    <path
       d="m 347.76,404.17 a 0.49,0.49 0 0 1 -0.21,0 l -7.14,-3.36 a 0.51,0.51 0 0 1 -0.28,-0.51 0.48,0.48 0 0 1 0.38,-0.43 l 15.6,-3.56 a 0.47,0.47 0 0 1 0.33,0 l 7.13,3.36 a 0.52,0.52 0 0 1 0.29,0.51 0.51,0.51 0 0 1 -0.39,0.43 l -15.6,3.56 z m -5.61,-3.69 5.67,2.67 14,-3.2 -5.66,-2.67 z"
       style="fill:#263238"
       id="path86" />
    <path
       d="m 340.62,400.81 a 0.5,0.5 0 1 1 0,-1 l 11.19,-0.09 4.1,-3.35 a 0.49,0.49 0 0 1 0.7,0.07 0.5,0.5 0 0 1 -0.07,0.7 l -4.23,3.46 a 0.52,0.52 0 0 1 -0.32,0.11 l -11.36,0.1 z"
       style="fill:#263238"
       id="path88" />
    <rect
       x="370.76999"
       y="395.95001"
       width="19.34"
       height="7.1300001"
       transform="rotate(5.43,380.46374,399.58638)"
       style="fill:#0756bd"
       id="rect90" />
    <path
       d="m 389.73,404.48 h -0.05 l -19.25,-1.83 a 0.51,0.51 0 0 1 -0.45,-0.55 l 0.68,-7.1 a 0.48,0.48 0 0 1 0.18,-0.34 0.52,0.52 0 0 1 0.36,-0.11 l 19.25,1.83 a 0.49,0.49 0 0 1 0.45,0.54 l -0.67,7.11 a 0.57,0.57 0 0 1 -0.18,0.34 0.54,0.54 0 0 1 -0.32,0.11 z M 371,401.7 l 18.26,1.73 0.58,-6.1 -18.26,-1.74 z"
       style="fill:#263238"
       id="path92" />
    <path
       d="m 380.44,400 a 0.44,0.44 0 0 1 -0.22,-0.05 l -9.28,-4.46 a 0.5,0.5 0 1 1 0.43,-0.9 l 9.12,4.38 9.79,-2.59 a 0.5153882,0.5153882 0 1 1 0.25,1 l -10,2.64 z"
       style="fill:#263238"
       id="path94" />
    <rect
       x="333.07999"
       y="349.23001"
       width="19.01"
       height="9.6999998"
       transform="rotate(27.19,342.59575,354.0747)"
       style="fill:#0756bd"
       id="rect96" />
    <path
       d="m 348.82,363.23 a 0.68,0.68 0 0 1 -0.23,-0.05 l -16.9,-8.69 a 0.5,0.5 0 0 1 -0.22,-0.67 l 4.43,-8.63 a 0.5,0.5 0 0 1 0.68,-0.21 l 16.9,8.68 a 0.51,0.51 0 0 1 0.25,0.29 0.5,0.5 0 0 1 0,0.38 l -4.46,8.67 a 0.51,0.51 0 0 1 -0.45,0.23 z m -16.23,-9.4 16,8.23 4,-7.74 -16,-8.23 z"
       style="fill:#263238"
       id="path98" />
    <path
       d="m 353.26,354.6 v 0 h -10.67 a 0.49,0.49 0 0 1 -0.4,-0.21 l -6.24,-8.66 a 0.5,0.5 0 0 1 0.12,-0.7 0.49,0.49 0 0 1 0.69,0.12 l 6.09,8.45 h 10.42 a 0.52,0.52 0 0 1 0.5,0.51 0.51,0.51 0 0 1 -0.51,0.49 z"
       style="fill:#263238"
       id="path100" />
    <polygon
       points="369.93,403.88 353.02,401.04 347.32,404.68 364.22,407.52 "
       style="fill:#0756bd"
       id="polygon102" />
    <path
       d="m 364.22,408 h -0.08 l -16.91,-2.85 a 0.5,0.5 0 0 1 -0.18,-0.91 l 5.71,-3.64 a 0.47,0.47 0 0 1 0.35,-0.08 l 16.9,2.85 a 0.49,0.49 0 0 1 0.41,0.39 0.51,0.51 0 0 1 -0.22,0.53 l -5.71,3.71 a 0.5,0.5 0 0 1 -0.27,0 z m -15.54,-3.63 15.44,2.6 4.45,-2.84 -15.44,-2.6 z"
       style="fill:#263238"
       id="path104" />
    <path
       d="m 358.62,404.78 a 0.47,0.47 0 0 1 -0.25,-0.07 l -5.6,-3.24 a 0.5,0.5 0 0 1 -0.18,-0.68 0.51,0.51 0 0 1 0.69,-0.19 l 5.47,3.18 11.16,-0.4 a 0.52,0.52 0 0 1 0.52,0.49 0.49,0.49 0 0 1 -0.48,0.51 l -11.31,0.4 z"
       style="fill:#263238"
       id="path106" />
    <polygon
       points="455.48,404.7 438.58,401.86 432.87,405.5 449.78,408.35 "
       style="fill:#0756bd"
       id="polygon108" />
    <path
       d="m 449.78,408.84 h -0.09 L 432.79,406 a 0.49,0.49 0 0 1 -0.41,-0.39 0.51,0.51 0 0 1 0.22,-0.52 l 5.71,-3.64 a 0.48,0.48 0 0 1 0.35,-0.08 l 16.91,2.85 a 0.5,0.5 0 0 1 0.4,0.39 0.49,0.49 0 0 1 -0.22,0.53 l -5.75,3.63 a 0.48,0.48 0 0 1 -0.22,0.07 z m -15.55,-3.62 15.44,2.6 4.45,-2.84 -15.44,-2.6 z"
       style="fill:#263238"
       id="path110" />
    <path
       d="m 444.18,405.6 a 0.43,0.43 0 0 1 -0.25,-0.07 l -5.6,-3.24 a 0.51,0.51 0 0 1 -0.19,-0.68 0.52,0.52 0 0 1 0.69,-0.19 l 5.47,3.18 11.17,-0.4 a 0.51,0.51 0 0 1 0.51,0.49 0.49,0.49 0 0 1 -0.48,0.51 l -11.31,0.4 z"
       style="fill:#263238"
       id="path112" />
  </g>
  <g
     id="freepik--Character--inject-61"
     transform="matrix(1.2405363,0,0,1.2405363,-36.158323,-97.705847)">
    <path
       d="m 158.46,389.15 c -1.56,0 -3.61,0.46 -4.91,0.4 l -1.06,-0.05 0.67,-3.37 1.07,0.05 c 6.81,1.94 13.25,-4 14.55,-8.24 1.3,-4.24 1,-21.52 0.87,-32 0,-2.59 -0.07,-4.65 -0.07,-5.86 0,-19.06 0.5,-82.16 6.89,-94.32 6.74,-12.84 19.62,-19.55 29.94,-15.62 a 48.64,48.64 0 0 1 15.68,9.86 l -2,2 a 46.64,46.64 0 0 0 -14.68,-9.22 c -9,-3.42 -20.34,2.72 -26.42,14.29 -4.84,9.22 -6.56,55.85 -6.56,93 0,1.2 0,3.25 0.07,5.82 0.23,15.83 0.37,28.45 -1,32.88 -1.5,4.91 -7.66,10.38 -13.04,10.38 z"
       style="fill:#263238"
       id="path239" />
    <path
       d="m 120.25,348.91 h 28.47 a 8.17,8.17 0 0 1 8.17,8.17 v 11.08 h -44.8 v -11.09 a 8.17,8.17 0 0 1 8.16,-8.16 z"
       style="fill:#263238"
       id="path245" />
    <path
       d="m 156.89,368.65 h -44.8 a 0.5,0.5 0 0 1 -0.5,-0.5 v -11.08 a 8.66,8.66 0 0 1 8.66,-8.66 h 28.47 a 8.67,8.67 0 0 1 8.67,8.66 v 11.08 a 0.5,0.5 0 0 1 -0.5,0.5 z m -44.3,-1 h 43.8 v -10.58 a 7.67,7.67 0 0 0 -7.67,-7.66 h -28.47 a 7.67,7.67 0 0 0 -7.66,7.66 z"
       style="fill:#263238"
       id="path247" />
    <path
       d="m 149.5,403.17 h -29.75 a 5,5 0 0 1 -4.93,-4.42 l -4.31,-39.12 h 48 L 154.13,399 a 4.65,4.65 0 0 1 -4.63,4.17 z"
       style="fill:#0756bd"
       id="path249" />
    <path
       d="m 149.5,403.67 h -29.75 a 5.46,5.46 0 0 1 -5.43,-4.86 L 110,359.69 a 0.52,0.52 0 0 1 0.13,-0.39 0.48,0.48 0 0 1 0.37,-0.17 h 48 a 0.5,0.5 0 0 1 0.37,0.17 0.51,0.51 0 0 1 0.12,0.39 l -4.34,39.4 a 5.14,5.14 0 0 1 -5.15,4.58 z m -38.43,-43.54 4.24,38.57 a 4.46,4.46 0 0 0 4.44,4 h 29.75 a 4.15,4.15 0 0 0 4.13,-3.69 l 4.28,-38.85 z"
       style="fill:#263238"
       id="path251" />
    <rect
       x="109.25"
       y="356.48001"
       width="50.169998"
       height="8.5200005"
       style="fill:#263238"
       id="rect253" />
    <path
       d="m 159.41,365.5 h -50.16 a 0.5,0.5 0 0 1 -0.5,-0.5 v -8.52 a 0.5,0.5 0 0 1 0.5,-0.5 h 50.16 a 0.5,0.5 0 0 1 0.5,0.5 V 365 a 0.5,0.5 0 0 1 -0.5,0.5 z m -49.66,-1 h 49.16 V 357 h -49.16 z"
       style="fill:#263238"
       id="path255" />
    <circle
       cx="130.7"
       cy="393.07999"
       r="12.62"
       style="fill:#263238"
       id="circle257" />
    <path
       d="m 130.7,406.2 a 13.12,13.12 0 1 1 13.12,-13.12 13.14,13.14 0 0 1 -13.12,13.12 z m 0,-25.24 A 12.12,12.12 0 1 0 142.82,393.08 12.13,12.13 0 0 0 130.7,381 Z"
       style="fill:#263238"
       id="path259" />
    <path
       d="m 305.41,317.69 a 1.89,1.89 0 0 1 -1.26,-0.48 l -83.68,-74.58 a 1.8909521,1.8909521 0 0 1 2.52,-2.82 l 83.68,74.57 a 1.91,1.91 0 0 1 0.16,2.68 1.94,1.94 0 0 1 -1.42,0.63 z"
       style="fill:#ffffff"
       id="path271" />
    <path
       d="m 305.41,318.19 a 2.39,2.39 0 0 1 -1.59,-0.61 L 220.14,243 a 2.3942013,2.3942013 0 0 1 3.18,-3.58 L 307,314 a 2.39,2.39 0 0 1 -1.59,4.18 z m -83.68,-78.36 a 1.39,1.39 0 0 0 -0.92,2.43 l 83.68,74.58 a 1.43,1.43 0 0 0 2,-0.12 1.4,1.4 0 0 0 -0.11,-2 L 222.7,240.15 a 1.38,1.38 0 0 0 -0.97,-0.32 z"
       style="fill:#263238"
       id="path273" />
    <path
       d="m 312.75,325.32 a 3.32,3.32 0 0 1 -2.14,-0.78 L 296.1,312.23 a 3.31,3.31 0 1 1 4.28,-5.05 l 14.51,12.3 a 3.31,3.31 0 0 1 -2.14,5.84 z"
       style="fill:#263238"
       id="path275" />
    <path
       d="m 312.75,325.82 a 3.8,3.8 0 0 1 -2.46,-0.9 l -14.52,-12.31 a 3.8,3.8 0 0 1 -1.33,-2.59 3.75,3.75 0 0 1 0.89,-2.78 3.83,3.83 0 0 1 5.38,-0.44 l 14.51,12.3 a 3.81,3.81 0 0 1 -2.47,6.72 z m -14.51,-18.93 a 2.83,2.83 0 0 0 -2.15,1 2.81,2.81 0 0 0 0.33,4 l 14.51,12.31 a 2.92,2.92 0 0 0 4,-0.33 2.83,2.83 0 0 0 -0.33,-4 l -14.51,-12.3 a 2.81,2.81 0 0 0 -1.85,-0.68 z"
       style="fill:#263238"
       id="path277" />
    <path
       d="m 341.23,327.82 c 0,0 -13.74,-8.24 -17.61,-8.55 l -25.48,4.08 0.25,1.45 c -0.09,2.44 17.52,11.3 20.36,10.67 2.84,-0.63 18.36,-3.66 22.4,-6 a 11.89,11.89 0 0 0 0.08,-1.65 z"
       style="fill:#ffffff"
       id="path279" />
    <path
       d="m 318.46,336 c -3.3,0 -15.1,-5.79 -19.06,-9.08 -1,-0.86 -1.5,-1.51 -1.51,-2.07 l -0.25,-1.41 a 0.52,0.52 0 0 1 0.09,-0.38 0.54,0.54 0 0 1 0.33,-0.2 l 25.48,-4.08 h 0.12 c 3.94,0.31 17.26,8.27 17.83,8.61 a 0.51,0.51 0 0 1 0.24,0.43 c 0,1.9 -0.08,1.94 -0.33,2.09 -3.58,2.06 -15.66,4.6 -20.82,5.68 l -1.72,0.37 a 1.64,1.64 0 0 1 -0.4,0.04 z m -19.74,-12.23 0.16,1 c 0,0 0,0.07 0,0.1 0,0.03 0,0.37 1.17,1.34 4.14,3.44 16.46,9.31 18.58,8.82 l 1.74,-0.36 c 4.58,-1 16.62,-3.5 20.32,-5.46 0,-0.24 0,-0.65 0,-1.06 -1.85,-1.09 -13.59,-8 -17.1,-8.32 z"
       style="fill:#263238"
       id="path281" />
    <path
       d="m 323.62,317.69 c 0,0 -23.34,4.27 -25.23,5.53 -1.89,1.26 17.52,11.3 20.36,10.67 2.84,-0.63 18.31,-3.75 22.4,-6 1.19,-0.65 -12.41,-9.79 -17.53,-10.2 z"
       style="fill:#263238"
       id="path283" />
    <path
       d="m 318.51,334.41 c -3.65,0 -19.6,-8.07 -20.67,-10.58 a 0.78,0.78 0 0 1 0.27,-1 c 1.92,-1.29 23,-5.17 25.42,-5.61 h 0.13 c 4.87,0.39 17.66,8.63 18,10.43 a 0.65,0.65 0 0 1 -0.32,0.71 c -3.68,2 -16.3,4.71 -21.06,5.73 l -1.47,0.32 a 1.83,1.83 0 0 1 -0.3,0 z m -19.7,-10.85 c 1.17,2.14 17.58,10.33 19.83,9.84 l 1.48,-0.32 c 4.59,-1 16.54,-3.53 20.47,-5.46 -1.44,-1.69 -12.3,-9 -16.95,-9.43 -9.07,1.67 -22.84,4.4 -24.83,5.37 z"
       style="fill:#263238"
       id="path285" />
    <path
       d="m 333.58,363.87 a 0.49,0.49 0 0 1 -0.44,-0.28 l -1.27,-2.49 a 0.5,0.5 0 0 1 0.22,-0.67 0.49,0.49 0 0 1 0.67,0.22 l 1.27,2.49 a 0.49,0.49 0 0 1 -0.22,0.67 0.46,0.46 0 0 1 -0.23,0.06 z"
       style="fill:#263238"
       id="path287" />
    <path
       d="m 330.79,358.38 a 0.49,0.49 0 0 1 -0.44,-0.28 L 320.62,339 a 0.49,0.49 0 0 1 0.22,-0.67 0.5,0.5 0 0 1 0.67,0.22 l 9.73,19.13 a 0.5,0.5 0 0 1 -0.22,0.67 0.46,0.46 0 0 1 -0.23,0.03 z"
       style="fill:#263238"
       id="path289" />
    <path
       d="m 319,352.6 a 0.49,0.49 0 0 1 -0.48,-0.36 l -4.59,-15.86 a 0.5,0.5 0 0 1 0.34,-0.62 0.51,0.51 0 0 1 0.62,0.34 l 4.57,15.9 a 0.5,0.5 0 0 1 -0.34,0.62 z"
       style="fill:#263238"
       id="path291" />
    <line
       x1="344.44"
       y1="330.39999"
       x2="361.13"
       y2="338.32999"
       style="fill:#0756bd"
       id="line293" />
    <path
       d="m 361.13,338.83 a 0.59,0.59 0 0 1 -0.22,-0.05 l -16.69,-7.93 a 0.5,0.5 0 1 1 0.43,-0.9 l 16.69,7.93 a 0.5,0.5 0 0 1 -0.21,0.95 z"
       style="fill:#263238"
       id="path295" />
    <path
       d="m 372.81,372.21 a 0.54,0.54 0 0 1 -0.33,-0.12 l -1.73,-1.56 a 0.5,0.5 0 1 1 0.67,-0.74 l 1.73,1.55 a 0.51,0.51 0 0 1 0,0.71 0.51,0.51 0 0 1 -0.34,0.16 z"
       style="fill:#263238"
       id="path297" />
    <path
       d="m 367.33,367.28 a 0.55,0.55 0 0 1 -0.34,-0.13 l -11.2,-10.09 a 0.48,0.48 0 0 1 0,-0.7 0.5,0.5 0 0 1 0.71,0 l 11.2,10.08 a 0.51,0.51 0 0 1 0,0.71 0.51,0.51 0 0 1 -0.37,0.13 z"
       style="fill:#263238"
       id="path299" />
  </g>
</svg>
