<?xml version="1.0" encoding="UTF-8" standalone="no"?>
<svg
   viewBox="0 0 500 500"
   version="1.1"
   id="svg309"
   sodipodi:docname="Load_more.svg"
   inkscape:version="1.2.2 (732a01da63, 2022-12-09)"
   xmlns:inkscape="http://www.inkscape.org/namespaces/inkscape"
   xmlns:sodipodi="http://sodipodi.sourceforge.net/DTD/sodipodi-0.dtd"
   xmlns="http://www.w3.org/2000/svg"
   xmlns:svg="http://www.w3.org/2000/svg">
  <defs
     id="defs313" />
  <sodipodi:namedview
     id="namedview311"
     pagecolor="#505050"
     bordercolor="#ffffff"
     borderopacity="1"
     inkscape:showpageshadow="0"
     inkscape:pageopacity="0"
     inkscape:pagecheckerboard="1"
     inkscape:deskcolor="#505050"
     showgrid="false"
     inkscape:zoom="1.314"
     inkscape:cx="181.50685"
     inkscape:cy="249.61948"
     inkscape:window-width="1600"
     inkscape:window-height="837"
     inkscape:window-x="-8"
     inkscape:window-y="327"
     inkscape:window-maximized="1"
     inkscape:current-layer="freepik--Character--inject-2" />
  <g
     id="freepik--background-complete--inject-2">
    <rect
       y="382.4"
       width="500"
       height="0.25"
       style="fill:#ebebeb"
       id="rect2" />
    <rect
       x="416.78"
       y="398.49"
       width="33.12"
       height="0.25"
       style="fill:#ebebeb"
       id="rect4" />
    <rect
       x="322.53"
       y="401.21"
       width="8.69"
       height="0.25"
       style="fill:#ebebeb"
       id="rect6" />
    <rect
       x="396.59"
       y="389.21"
       width="19.19"
       height="0.25"
       style="fill:#ebebeb"
       id="rect8" />
    <rect
       x="52.46"
       y="390.89"
       width="43.19"
       height="0.25"
       style="fill:#ebebeb"
       id="rect10" />
    <rect
       x="104.56"
       y="390.89"
       width="6.33"
       height="0.25"
       style="fill:#ebebeb"
       id="rect12" />
    <rect
       x="131.47"
       y="395.11"
       width="93.68"
       height="0.25"
       style="fill:#ebebeb"
       id="rect14" />
    <path
       d="M237,337.8H43.91a5.71,5.71,0,0,1-5.7-5.71V60.66A5.71,5.71,0,0,1,43.91,55H237a5.71,5.71,0,0,1,5.71,5.71V332.09A5.71,5.71,0,0,1,237,337.8ZM43.91,55.2a5.46,5.46,0,0,0-5.45,5.46V332.09a5.46,5.46,0,0,0,5.45,5.46H237a5.47,5.47,0,0,0,5.46-5.46V60.66A5.47,5.47,0,0,0,237,55.2Z"
       style="fill:#ebebeb"
       id="path16" />
    <path
       d="M453.31,337.8H260.21a5.72,5.72,0,0,1-5.71-5.71V60.66A5.72,5.72,0,0,1,260.21,55h193.1A5.71,5.71,0,0,1,459,60.66V332.09A5.71,5.71,0,0,1,453.31,337.8ZM260.21,55.2a5.47,5.47,0,0,0-5.46,5.46V332.09a5.47,5.47,0,0,0,5.46,5.46h193.1a5.47,5.47,0,0,0,5.46-5.46V60.66a5.47,5.47,0,0,0-5.46-5.46Z"
       style="fill:#ebebeb"
       id="path18" />
    <path
       d="M418.59,350.26c.15-1,3.65-25.18-3.36-33.51a7.59,7.59,0,0,0-5.82-2.87c-14.16-.33-16.09,11-16.11,11.15l1.67.26c.06-.41,1.74-10,14.39-9.72a5.89,5.89,0,0,1,4.57,2.26c6.53,7.76,3,31.93,3,32.18Z"
       style="fill:#ebebeb"
       id="path20" />
    <path
       d="M419.44,349.16l1.69-.06c0-.22-.56-22.25,10.29-26.8,10.64-4.45,15.43,4.71,15.62,5.1l1.51-.76c-.05-.11-5.67-11-17.78-5.89C418.85,325.74,419.41,348.2,419.44,349.16Z"
       style="fill:#ebebeb"
       id="path22" />
    <path
       d="M419.39,350.89c0-.35.11-35.19,6.9-45.38,6.52-9.79,17-5.18,17.49-5l.69-1.54c-.12-.05-12.26-5.41-19.59,5.58-7.07,10.61-7.17,44.86-7.17,46.31Z"
       style="fill:#ebebeb"
       id="path24" />
    <path
       d="M407.38,314.72s6.18,2.28,4.34,7.65-21.37,14.23-21.37,14.23-8.19-7.5-.67-19.7S407.21,310.87,407.38,314.72Z"
       style="fill:#e0e0e0"
       id="path26" />
    <path
       d="M426.59,303.67s-4.38-.47-4-3.14,17.05-9.55,26.91,1.57c0,0-6.31,10.84-15.43,11S426.59,303.67,426.59,303.67Z"
       style="fill:#e0e0e0"
       id="path28" />
    <path
       d="M431.1,321.52s-3-2.44.24-3.63,19.3-.86,19.46,15c0,0-18.67,3.11-21-2.94S431.1,321.52,431.1,321.52Z"
       style="fill:#e0e0e0"
       id="path30" />
    <polygon
       points="404.06 382.61 433.04 382.61 436.16 350.89 400.94 350.89 404.06 382.61"
       style="fill:#ebebeb"
       id="polygon32" />
    <rect
       x="399.39"
       y="347.38"
       width="38.32"
       height="7"
       transform="translate(837.1 701.77) rotate(180)"
       style="fill:#e0e0e0"
       id="rect34" />
    <path
       d="M137.45,281.75s-3.61-7.86.51-15.62,5.31-9.58,2.69-11.17-3.83,6.21-3.83,6.21a17.47,17.47,0,0,1-.39-11c1.83-5.61,3-14.75.48-15.73s-.48,11.4-2.64,15.62a36.37,36.37,0,0,1-2.12-9.21c-.3-4.5.17-11.7-1.8-13.54s-3.24-.57-1.3,9.37a103.56,103.56,0,0,1,1.92,18s-4.28-13-7.15-13.43-2.86,3.85-.41,7.51,7.2,10.23,8,13.61c0,0-4.7-9.82-8.92-6.81s3.68,8.94,7.2,11.08,6,15.57,6,15.57Z"
       style="fill:#ebebeb"
       id="path36" />
    <path
       d="M134.6,285s3.51-7.92-.7-15.61-5.43-9.5-2.82-11.13,3.9,6.15,3.9,6.15a17.55,17.55,0,0,0,.26-11c-1.9-5.58-3.15-14.7-.67-15.72s.61,11.39,2.83,15.58a36.67,36.67,0,0,0,2-9.24c.24-4.51-.31-11.69,1.64-13.57s3.23-.62,1.41,9.36a104,104,0,0,0-1.71,18.05s4.12-13.11,7-13.53,2.91,3.8.5,7.5-7.08,10.34-7.81,13.73c0,0,4.58-9.89,8.84-6.94s-3.57,9-7.07,11.18-5.78,15.66-5.78,15.66Z"
       style="fill:#f5f5f5"
       id="path38" />
    <polygon
       points="150.79 279.33 121.79 279.33 124.14 300.09 148.45 300.09 150.79 279.33"
       style="fill:#e0e0e0"
       id="polygon40" />
    <polygon
       points="49.97 299.61 49.97 382.61 55.97 382.61 55.97 311.61 150.97 311.61 150.97 382.61 157.97 382.61 157.97 299.61 49.97 299.61"
       style="fill:#e0e0e0"
       id="polygon42" />
    <polygon
       points="104.97 299.61 104.97 382.61 110.97 382.61 110.97 311.61 205.97 311.61 205.97 382.61 212.97 382.61 212.97 299.61 104.97 299.61"
       style="fill:#ebebeb"
       id="polygon44" />
    <path
       d="M232.93,349.85l-3-.42c.53-3.74,3.66-10.82,11.66-10.82,9.47,0,14.19,5.47,14.66,10.9l-3,.26c-.35-4.06-4.1-8.16-11.67-8.16C234.24,341.61,233,349.52,232.93,349.85Z"
       style="fill:#e0e0e0"
       id="path46" />
    <rect
       x="214.47"
       y="347.21"
       width="58.39"
       height="34.86"
       rx="4.83"
       style="fill:#ebebeb"
       id="rect48" />
    <path
       d="M256.28,382.61C215,382.61,213,354.3,213,354l1.68-3.28c.07,1.05,3.32,28.87,41.63,28.87,15.77,0,29.38,0,30.76-3,1.21-2.65-4.7-9.46-14.18-20.37V352c12.08,13.91,18.92,21.39,16.91,25.8C287.68,382.43,278.56,382.61,256.28,382.61Z"
       style="fill:#e0e0e0"
       id="path50" />
    <path
       d="M52.11,72.74v29.55a2.81,2.81,0,0,0,3,2.77h99.82s11.54-5.38,10.72-12.9c-.66-6-1.33-10.89-1.89-14.61a9.18,9.18,0,0,0-9.14-7.82H55.11A3,3,0,0,0,52.11,72.74Z"
       style="fill:#f5f5f5"
       id="path52" />
    <path
       d="M52.11,72.74v29.55a2.81,2.81,0,0,0,3,2.77h8.8s11.55-5.38,10.72-12.9c-.65-6-1.33-10.89-1.88-14.61a9.19,9.19,0,0,0-9.14-7.82h-8.5A3,3,0,0,0,52.11,72.74Z"
       style="fill:#e6e6e6;isolation:isolate"
       id="path54" />
    <path
       d="M163.35,94.53H76.16s-2.88,6.39-7.77,9h85.19S162.6,99.42,163.35,94.53Z"
       style="fill:#e0e0e0"
       id="path56" />
    <polygon
       points="157.34 100.55 73.15 100.55 74.41 103.56 157.34 103.56 157.34 100.55"
       style="fill:#ebebeb"
       id="polygon58" />
    <polygon
       points="160.35 96.79 76.16 96.79 77.41 99.8 160.35 99.8 160.35 96.79"
       style="fill:#ebebeb"
       id="polygon60" />
    <rect
       x="79.17"
       y="92.28"
       width="2.13"
       height="0.88"
       transform="translate(160.46 185.44) rotate(180)"
       style="fill:#e0e0e0"
       id="rect62" />
    <rect
       x="82.17"
       y="92.28"
       width="2.13"
       height="0.88"
       transform="translate(166.48 185.44) rotate(180)"
       style="fill:#e0e0e0"
       id="rect64" />
  </g>
  <g
     id="freepik--Shadow--inject-2">
    <ellipse
       id="freepik--path--inject-2"
       cx="250"
       cy="416.24"
       rx="193.89"
       ry="11.32"
       style="fill:#f5f5f5" />
  </g>
  <g
     id="freepik--Screen--inject-2">
    <path
       d="M423.55,146.78v167.4a7.05,7.05,0,0,1-7.05,7.05h-237a7.06,7.06,0,0,1-7.06-7.05V146.78a7.06,7.06,0,0,1,7.06-7.06h237A7.06,7.06,0,0,1,423.55,146.78Z"
       style="fill:#407BFF"
       id="path69" />
    <path
       d="M423.55,146.78v167.4a7.05,7.05,0,0,1-7.05,7.05h-237a7.06,7.06,0,0,1-7.06-7.05V146.78a7.06,7.06,0,0,1,7.06-7.06h237A7.06,7.06,0,0,1,423.55,146.78Z"
       style="fill:#fff;opacity:0.8;isolation:isolate"
       id="path71" />
    <path
       d="M423.55,146.78v13H172.46v-13a7.06,7.06,0,0,1,7.06-7.06h237A7.06,7.06,0,0,1,423.55,146.78Z"
       style="opacity:0.1;isolation:isolate"
       id="path73" />
    <path
       d="M415.22,150.46a3.72,3.72,0,1,1-3.71-3.71A3.71,3.71,0,0,1,415.22,150.46Z"
       style="fill:#407BFF;opacity:0.4"
       id="path75" />
    <path
       d="M401.72,150.46a3.72,3.72,0,1,1-3.71-3.71A3.71,3.71,0,0,1,401.72,150.46Z"
       style="fill:#407BFF;opacity:0.4"
       id="path77" />
    <path
       d="M388.22,150.46a3.72,3.72,0,1,1-3.71-3.71A3.71,3.71,0,0,1,388.22,150.46Z"
       style="fill:#407BFF;opacity:0.4"
       id="path79" />
    <rect
       x="176.97"
       y="168.37"
       width="241.98"
       height="13.71"
       style="fill:#fff;opacity:0.4;isolation:isolate"
       id="rect81" />
    <rect
       x="177.06"
       y="186.38"
       width="241.89"
       height="118.66"
       style="fill:#fff;opacity:0.4;isolation:isolate"
       id="rect83" />
  </g>
  <g
     id="freepik--Images--inject-2">
    <rect
       x="370.23"
       y="86.78"
       width="51.36"
       height="42.44"
       transform="translate(791.82 216) rotate(180)"
       style="fill:#407BFF"
       id="rect86" />
    <path
       d="M370.23,86.78v42.44h51.36V86.78Zm1.67,1.68h48v39.08h-48Z"
       style="fill:#fff;opacity:0.6000000000000001;isolation:isolate"
       id="path88" />
    <rect
       x="370.23"
       y="86.78"
       width="51.36"
       height="42.44"
       transform="translate(791.82 216) rotate(180)"
       style="fill:#fff;opacity:0.4;isolation:isolate"
       id="rect90" />
    <polygon
       points="419.92 115.96 405.19 105.26 394.26 115.96 383.32 109.71 371.9 116.73 371.9 127.54 419.92 127.54 419.92 115.96"
       style="fill:#fff;opacity:0.30000000000000004;isolation:isolate"
       id="polygon92" />
    <circle
       cx="388.75"
       cy="98.1"
       r="3.52"
       style="fill:#fff;opacity:0.6000000000000001;isolation:isolate"
       id="circle94" />
    <rect
       x="294.64"
       y="291.67"
       width="62.12"
       height="51.33"
       style="fill:#407BFF"
       id="rect96" />
    <path
       d="M294.64,291.67V343h62.12V291.67Zm60.1,49.3H296.66V293.69h58.08Z"
       style="fill:#fff;opacity:0.6000000000000001;isolation:isolate"
       id="path98" />
    <polygon
       points="296.67 321.53 308.46 309.61 318.37 320.69 324.74 317.33 330.11 322.93 334.36 320.69 339.79 325.6 354.74 325.6 354.74 340.97 296.67 340.97 296.67 321.53"
       style="fill:#fff;opacity:0.2;isolation:isolate"
       id="polygon100" />
    <path
       d="M335.68,301.31a4.25,4.25,0,0,1-4,5.77,4.1,4.1,0,0,1-1.32-.21,4.25,4.25,0,1,0,5.29-5.56Z"
       style="fill:#fff;opacity:0.6000000000000001;isolation:isolate"
       id="path102" />
    <path
       d="M335.36,341h-38.7V321.53l11.8-11.92,9.91,11.08,6.38-3.36,5.36,5.59,4.25-2.23,5.43,4.91s-17.7,3-17.53,8.32S335.36,341,335.36,341Z"
       style="fill:#fff;opacity:0.2;isolation:isolate"
       id="path104" />
    <rect
       x="321.42"
       y="188.09"
       width="83.03"
       height="68.61"
       style="fill:#407BFF"
       id="rect106" />
    <path
       d="M321.42,188.09V256.7h83V188.09ZM401.75,254H324.13V190.8h77.62Z"
       style="fill:#fff;opacity:0.6000000000000001;isolation:isolate"
       id="path108" />
    <polygon
       points="324.13 225.42 338.47 214.08 356.45 227.87 379.4 209.49 401.75 225.98 401.75 253.99 324.13 253.99 324.13 225.42"
       style="fill:#fff;opacity:0.2;isolation:isolate"
       id="polygon110" />
    <rect
       x="324.13"
       y="236.09"
       width="77.61"
       height="17.9"
       style="fill:#fff;opacity:0.2;isolation:isolate"
       id="rect112" />
    <polygon
       points="357.87 236.09 373.36 253.99 387.8 253.99 357.87 236.09"
       style="fill:#fff;opacity:0.2;isolation:isolate"
       id="polygon114" />
    <circle
       cx="355.33"
       cy="208.62"
       r="4.44"
       style="fill:#fff;opacity:0.6000000000000001;isolation:isolate"
       id="circle116" />
    <rect
       x="157.33"
       y="171.89"
       width="53.9"
       height="44.54"
       transform="translate(368.57 388.31) rotate(180)"
       style="fill:#407BFF"
       id="rect118" />
    <path
       d="M157.33,171.89v44.54h53.91V171.89Zm1.76,1.76h50.39v41H159.09Z"
       style="fill:#fff;opacity:0.6000000000000001;isolation:isolate"
       id="path120" />
    <rect
       x="157.33"
       y="171.89"
       width="53.9"
       height="44.54"
       transform="translate(368.57 388.31) rotate(180)"
       style="fill:#fff;opacity:0.4;isolation:isolate"
       id="rect122" />
    <polygon
       points="209.48 196.12 200.17 188.76 188.5 197.71 173.6 185.78 159.09 196.48 159.09 214.67 209.48 214.67 209.48 196.12"
       style="fill:#fff;opacity:0.2;isolation:isolate"
       id="polygon124" />
    <rect
       x="159.09"
       y="203.04"
       width="50.39"
       height="11.62"
       style="fill:#fff;opacity:0.2;isolation:isolate"
       id="rect126" />
    <polygon
       points="187.57 203.04 177.52 214.67 168.14 214.67 187.57 203.04"
       style="fill:#fff;opacity:0.2;isolation:isolate"
       id="polygon128" />
    <path
       d="M186.34,185.21a2.88,2.88,0,1,0,2.88-2.88A2.88,2.88,0,0,0,186.34,185.21Z"
       style="fill:#fff;opacity:0.6000000000000001;isolation:isolate"
       id="path130" />
    <rect
       x="218.45"
       y="98.06"
       width="122.62"
       height="101.32"
       style="fill:#407BFF"
       id="rect132" />
    <path
       d="M218.45,98.06V199.38H341.07V98.06Zm118.62,97.32H222.45V102.06H337.07Z"
       style="fill:#fff;opacity:0.6000000000000001;isolation:isolate"
       id="path134" />
    <polygon
       points="222.45 167.73 257.6 142.19 283.71 167.73 309.82 152.79 337.07 169.58 337.07 195.38 222.45 195.38 222.45 167.73"
       style="fill:#fff;opacity:0.30000000000000004;isolation:isolate"
       id="polygon136" />
    <path
       d="M305.25,125.08a8.4,8.4,0,1,1-8.4-8.4A8.4,8.4,0,0,1,305.25,125.08Z"
       style="fill:#fff;opacity:0.6000000000000001;isolation:isolate"
       id="path138" />
  </g>
  <g
     id="freepik--Button--inject-2">
    <path
       d="M196,295.42a19.54,19.54,0,1,1,0-39.07h67a19.54,19.54,0,0,1,0,39.07Z"
       style="fill:#407BFF"
       id="path141" />
    <path
       d="M196,295.42a19.54,19.54,0,1,1,0-39.07h67a19.54,19.54,0,0,1,0,39.07Z"
       style="fill:#fff;opacity:0.6000000000000001;isolation:isolate"
       id="path143" />
    <path
       d="M196,293.42a17.54,17.54,0,1,1,0-35.07h67a17.54,17.54,0,0,1,0,35.07Z"
       style="fill:#407BFF"
       id="path145" />
    <path
       d="M196,293.42a17.54,17.54,0,1,1,0-35.07h67a17.54,17.54,0,0,1,0,35.07Z"
       style="fill:#fff;opacity:0.4;isolation:isolate"
       id="path147" />
    <rect
       x="180.45"
       y="260.35"
       width="98.06"
       height="31.07"
       rx="15.54"
       style="fill:#407BFF"
       id="rect149" />
    <path
       d="M196.84,271h1.94v6.81H203v1.59h-6.15Z"
       style="fill:#fff"
       id="path151" />
    <path
       d="M203.42,276.16a3.55,3.55,0,1,1,3.55,3.32A3.32,3.32,0,0,1,203.42,276.16Zm5.2,0A1.66,1.66,0,1,0,207,278,1.63,1.63,0,0,0,208.62,276.16Z"
       style="fill:#fff"
       id="path153" />
    <path
       d="M217.36,275.71v3.68h-1.75v-.81a2.1,2.1,0,0,1-2,.9c-1.52,0-2.41-.84-2.41-2s.8-1.93,2.77-1.93h1.48c0-.81-.48-1.27-1.48-1.27a3,3,0,0,0-1.86.6l-.67-1.31a5,5,0,0,1,2.78-.78C216.22,272.84,217.36,273.75,217.36,275.71Zm-1.87,1.64v-.66h-1.28c-.88,0-1.15.32-1.15.76s.39.77,1.05.77A1.36,1.36,0,0,0,215.49,277.35Z"
       style="fill:#fff"
       id="path155" />
    <path
       d="M225.7,270.49v8.9h-1.78v-.75a2.48,2.48,0,0,1-2,.84,3.32,3.32,0,0,1,0-6.64,2.47,2.47,0,0,1,1.93.78v-3.13Zm-1.83,5.67a1.66,1.66,0,1,0-1.64,1.79A1.63,1.63,0,0,0,223.87,276.16Z"
       style="fill:#fff"
       id="path157" />
    <path
       d="M241.73,275.69v3.7h-1.87V276c0-1-.47-1.52-1.22-1.52s-1.43.54-1.43,1.69v3.24h-1.87V276c0-1-.44-1.52-1.22-1.52s-1.42.54-1.42,1.69v3.24h-1.87v-6.45h1.79v.74a2.62,2.62,0,0,1,2-.84,2.44,2.44,0,0,1,2.13,1.05,2.91,2.91,0,0,1,2.32-1.05C240.63,272.84,241.73,273.73,241.73,275.69Z"
       style="fill:#fff"
       id="path159" />
    <path
       d="M243,276.16a3.55,3.55,0,1,1,3.55,3.32A3.32,3.32,0,0,1,243,276.16Zm5.19,0a1.65,1.65,0,1,0-1.64,1.79A1.62,1.62,0,0,0,248.2,276.16Z"
       style="fill:#fff"
       id="path161" />
    <path
       d="M255.36,272.84v1.73l-.42,0a1.59,1.59,0,0,0-1.72,1.8v3.05h-1.87v-6.45h1.79v.85A2.58,2.58,0,0,1,255.36,272.84Z"
       style="fill:#fff"
       id="path163" />
    <path
       d="M262.7,276.69h-4.88a1.71,1.71,0,0,0,1.84,1.29,2.17,2.17,0,0,0,1.62-.62l1,1.08a3.39,3.39,0,0,1-2.66,1c-2.23,0-3.69-1.4-3.69-3.32a3.29,3.29,0,0,1,3.45-3.32,3.19,3.19,0,0,1,3.35,3.35C262.73,276.33,262.71,276.53,262.7,276.69Zm-4.91-1.09H261a1.61,1.61,0,0,0-3.18,0Z"
       style="fill:#fff"
       id="path165" />
  </g>
  <g
     id="freepik--Character--inject-2"
     style="display:inline">
    <path
       d="m 163.4608,397.99741 v 6.33354 c 0,1.6157 -1.9173,2.28352 -3.533,2.28352 H 33.472439 c -1.637241,0 -3.57608,-0.66782 -3.57608,-2.28352 v -6.33354 z"
       style="fill:#263238;stroke-width:2.15427"
       id="path216" />
    <path
       d="m 163.4608,397.99741 v 6.33354 c 0,1.6157 -1.9173,2.28352 -3.533,2.28352 H 33.472439 c -1.637241,0 -3.57608,-0.66782 -3.57608,-2.28352 v -6.33354 z"
       style="opacity:0.4;isolation:isolate;fill:#ffffff;stroke-width:2.15427"
       id="path218" />
    <path
       d="m 163.4608,397.99741 v 6.33354 c 0,1.6157 -1.9173,2.28352 -3.533,2.28352 H 76.51466 c -1.6157,0 -3.533,-0.66782 -3.533,-2.28352 v -6.33354 z"
       style="opacity:0.2;isolation:isolate;stroke-width:2.15427"
       id="path220" />
    <path
       d="m 184.61568,332.29233 -15.07985,68.2902 a 5.127151,5.127151 0 0 1 -4.89019,3.87768 H 82.43889 a 3.3175683,3.3175683 0 0 1 -3.10215,-4.30853 L 94.4166,332.3785 a 4.7178406,4.7178406 0 0 1 4.89018,-3.33911 h 82.24985 c 2.15426,0.0215 3.55453,1.0125 3.05905,3.25294 z"
       style="fill:#263238;stroke-width:2.15427"
       id="path222" />
    <path
       d="m 184.61568,332.29233 -15.07985,68.2902 a 5.127151,5.127151 0 0 1 -4.89019,3.87768 H 85.21789 a 3.3175683,3.3175683 0 0 1 -3.10214,-4.30853 L 97.1956,332.3785 a 4.696298,4.696298 0 0 1 4.89019,-3.33911 h 79.44929 c 2.17581,0.0215 3.57608,1.0125 3.0806,3.25294 z"
       style="opacity:0.4;isolation:isolate;fill:#ffffff;stroke-width:2.15427"
       id="path224" />
    <path
       d="m 144.07241,366.99754 v 0 c 0,5.83806 -6.26891,10.59898 -10.87904,10.59898 -4.61012,0 -7.30295,-4.76092 -6.0104,-10.59898 1.29256,-5.83806 5.88115,-10.4051 10.38356,-10.57744 -1.3141,5.83805 1.50799,10.57744 6.07503,10.57744 z"
       style="opacity:0.2;isolation:isolate;stroke-width:2.15427"
       id="path226" />
  </g>
</svg>
