<?xml version="1.0" encoding="UTF-8" standalone="no"?>
<svg
   viewBox="0 0 500 500"
   version="1.1"
   id="svg493"
   sodipodi:docname="need_auth.svg"
   inkscape:version="1.2.2 (732a01da63, 2022-12-09)"
   xmlns:inkscape="http://www.inkscape.org/namespaces/inkscape"
   xmlns:sodipodi="http://sodipodi.sourceforge.net/DTD/sodipodi-0.dtd"
   xmlns="http://www.w3.org/2000/svg"
   xmlns:svg="http://www.w3.org/2000/svg">
  <defs
     id="defs497" />
  <sodipodi:namedview
     id="namedview495"
     pagecolor="#505050"
     bordercolor="#ffffff"
     borderopacity="1"
     inkscape:showpageshadow="0"
     inkscape:pageopacity="0"
     inkscape:pagecheckerboard="1"
     inkscape:deskcolor="#505050"
     showgrid="false"
     inkscape:zoom="1.314"
     inkscape:cx="289.57382"
     inkscape:cy="261.79604"
     inkscape:window-width="1600"
     inkscape:window-height="837"
     inkscape:window-x="-8"
     inkscape:window-y="327"
     inkscape:window-maximized="1"
     inkscape:current-layer="layer1" />
  <g
     id="freepik--background-simple--inject-2">
    <path
       d="M400.7,431.59c24.71-22.22,43.07-52.57,56.93-82,20.59-43.72,31.55-98.27,2.81-140.78-16.58-24.52-42.48-40-71.23-45.83-27.66-5.6-54.56-4.39-78.35-21.92-24.06-17.75-45-39.89-66.54-60.5-55.38-53-156-37.8-202.73,33.56s-34,164.06,11,207.06C93,359.81,149.38,367.36,194,397.56c22.11,15,37.57,37.07,61,50.24,27.25,15.31,60.66,21.59,91.36,13.77C367.26,456.24,385.22,445.51,400.7,431.59Z"
       style="fill:#0756BD"
       id="path2" />
    <path
       d="M400.7,431.59c24.71-22.22,43.07-52.57,56.93-82,20.59-43.72,31.55-98.27,2.81-140.78-16.58-24.52-42.48-40-71.23-45.83-27.66-5.6-54.56-4.39-78.35-21.92-24.06-17.75-45-39.89-66.54-60.5-55.38-53-156-37.8-202.73,33.56s-34,164.06,11,207.06C93,359.81,149.38,367.36,194,397.56c22.11,15,37.57,37.07,61,50.24,27.25,15.31,60.66,21.59,91.36,13.77C367.26,456.24,385.22,445.51,400.7,431.59Z"
       style="fill:#fff;opacity:0.7000000000000001"
       id="path4" />
  </g>
  <g
     id="freepik--Plants--inject-2">
    <line
       x1="446.76"
       y1="443.85"
       x2="442.89"
       y2="407.52"
       style="fill:none;stroke:#263238;stroke-linecap:round;stroke-linejoin:round;stroke-width:0.9853323101997375px"
       id="line7" />
    <path
       d="M442.87,408.54s-6.95-5.41-6.95-17.78,9.27-22.41,9.27-22.41,10.05,12.37,7.73,24.73S442.87,408.54,442.87,408.54Z"
       style="fill:#0756BD;stroke:#263238;stroke-linecap:round;stroke-linejoin:round;stroke-width:0.9853323101997375px"
       id="path9" />
    <line
       x1="442.89"
       y1="407.52"
       x2="444.66"
       y2="380.22"
       style="fill:none;stroke:#263238;stroke-linecap:round;stroke-linejoin:round;stroke-width:0.9853323101997375px"
       id="line11" />
    <path
       d="M450.33,441.17a161.91,161.91,0,0,1,12.31-25.07"
       style="fill:none;stroke:#263238;stroke-linecap:round;stroke-linejoin:round;stroke-width:0.9853323101997375px"
       id="path13" />
    <path
       d="M459,422.67s-3.86-7.93,1.6-19,18.22-16,18.22-16,3.55,15.53-4,25.6S459,422.67,459,422.67Z"
       style="fill:#0756BD;stroke:#263238;stroke-linecap:round;stroke-linejoin:round;stroke-width:0.9853323101997375px"
       id="path15" />
    <line
       x1="459"
       y1="422.67"
       x2="473.07"
       y2="399.54"
       style="fill:none;stroke:#263238;stroke-linecap:round;stroke-linejoin:round;stroke-width:0.9853323101997375px"
       id="line17" />
    <path
       d="M440.49,444.41a100.59,100.59,0,0,0-8.5-20.09L426.58,415"
       style="fill:none;stroke:#263238;stroke-linecap:round;stroke-linejoin:round;stroke-width:0.9853323101997375px"
       id="path19" />
    <path
       d="M430.93,422.21a26.45,26.45,0,0,1-25-5.22c-12-10.08-11.33-30.65-11.33-30.65s23.26-3.32,32.65,9.86A27.65,27.65,0,0,1,430.93,422.21Z"
       style="fill:#0756BD;stroke:#263238;stroke-linecap:round;stroke-linejoin:round;stroke-width:0.9853323101997375px"
       id="path21" />
    <line
       x1="430.93"
       y1="422.21"
       x2="403.36"
       y2="393.48"
       style="fill:none;stroke:#263238;stroke-linecap:round;stroke-linejoin:round;stroke-width:0.9853323101997375px"
       id="line23" />
    <rect
       x="430.05"
       y="436.07"
       width="29.43"
       height="28.86"
       style="fill:#263238;stroke:#263238;stroke-linecap:round;stroke-linejoin:round;stroke-width:0.9853323101997375px"
       id="rect25" />
  </g>
  <g
     id="freepik--Window--inject-2">
    <line
       x1="81.72"
       y1="285.27"
       x2="81.72"
       y2="283.79"
       style="fill:none;stroke:#263238;stroke-linecap:round;stroke-linejoin:round;stroke-width:0.9853323101997375px"
       id="line114" />
    <path
       d="M81.72,280.86V154.07a19.5,19.5,0,0,1,19.51-19.5H194"
       style="fill:none;stroke:#263238;stroke-linecap:round;stroke-linejoin:round;stroke-width:0.9853323101997375px;stroke-dasharray:2.9267220497131348,2.9267220497131348"
       id="path116" />
    <line
       x1="195.51"
       y1="134.57"
       x2="196.98"
       y2="134.57"
       style="fill:none;stroke:#263238;stroke-linecap:round;stroke-linejoin:round;stroke-width:0.9853323101997375px"
       id="line118" />
    <polygon
       points="206.73 135.38 190.79 126.17 190.79 144.58 206.73 135.38"
       style="fill:#263238"
       id="polygon120" />
    <line
       x1="358.9"
       y1="408.76"
       x2="360.38"
       y2="408.76"
       style="fill:none;stroke:#263238;stroke-linecap:round;stroke-linejoin:round;stroke-width:0.9853323101997375px"
       id="line122" />
    <path
       d="M363.31,408.76h5.47a19.57,19.57,0,0,0,19.57-19.57v-185"
       style="fill:none;stroke:#263238;stroke-linecap:round;stroke-linejoin:round;stroke-width:0.9853323101997375px;stroke-dasharray:2.9297451972961426,2.9297451972961426"
       id="path124" />
    <line
       x1="388.35"
       y1="202.73"
       x2="388.35"
       y2="201.26"
       style="fill:none;stroke:#263238;stroke-linecap:round;stroke-linejoin:round;stroke-width:0.9853323101997375px"
       id="line126" />
    <polygon
       points="353.32 407.9 369.26 417.1 369.26 398.69 353.32 407.9"
       style="fill:#263238"
       id="polygon128" />
  </g>
  <g
     id="freepik--Device--inject-2">
    <path
       d="M341.76,464.48H210L205.68,392a4.93,4.93,0,0,1,4.86-5.74H341.2a4.92,4.92,0,0,1,4.86,5.74Z"
       style="fill:#263238;stroke:#263238;stroke-linecap:round;stroke-linejoin:round;stroke-width:0.9853323101997375px"
       id="path464" />
    <path
       d="M216.47,388H340.25a4.8,4.8,0,0,1,4.79,5.56"
       style="fill:none;stroke:#fff;stroke-linecap:round;stroke-linejoin:round;stroke-width:0.9853323101997375px"
       id="path466" />
    <path
       d="M206.66,392.45A4.82,4.82,0,0,1,211.5,388"
       style="fill:none;stroke:#fff;stroke-linecap:round;stroke-linejoin:round;stroke-width:0.9853323101997375px"
       id="path468" />
    <rect
       x="209.43"
       y="457.42"
       width="132.88"
       height="7.06"
       style="fill:#fff;stroke:#263238;stroke-linecap:round;stroke-linejoin:round;stroke-width:0.9853323101997375px"
       id="rect470" />
    <path
       d="M284.82,425.66c0,3.12-4.22,5.65-9.42,5.65s-9.41-2.53-9.41-5.65,4.22-5.65,9.41-5.65S284.82,422.54,284.82,425.66Z"
       style="fill:#fff;stroke:#263238;stroke-linecap:round;stroke-linejoin:round;stroke-width:0.9853323101997375px"
       id="path472" />
  </g>
  <g
     id="freepik--Mug--inject-2">
    <path
       d="M78.94,457.2a22.65,22.65,0,0,1-8.09-1.93,2.8,2.8,0,0,1,2.21-5.14c2.58,1.1,5.89,1.78,6.78,1.4,1.62-1.83,4.13-12.88.89-18.15a2.56,2.56,0,0,0-1.85-1.45c-1.84-.25-4.56,1.64-5.52,2.54a2.8,2.8,0,0,1-3.82-4.09c.51-.48,5.15-4.65,10.08-4a8.09,8.09,0,0,1,5.87,4.06C90.26,438.2,87,453,83.33,455.9A6.94,6.94,0,0,1,78.94,457.2Z"
       style="fill:#263238;stroke:#263238;stroke-linecap:round;stroke-linejoin:round;stroke-width:0.9853323101997375px"
       id="path475" />
    <rect
       x="43.14"
       y="424.1"
       width="30.85"
       height="40.95"
       style="fill:#263238;stroke:#263238;stroke-linecap:round;stroke-linejoin:round;stroke-width:0.9853323101997375px"
       id="rect477" />
    <path
       d="M45.94,421.86s0-3.41,6.25-6.82,9.66-8.52,6.25-18.18-2.84-16.48,4-22.17"
       style="fill:none;stroke:#263238;stroke-linecap:round;stroke-linejoin:round;stroke-width:0.9853323101997375px"
       id="path479" />
    <path
       d="M47.36,385.51c.32-4.15,2.17-7.66,6-10.82"
       style="fill:none;stroke:#263238;stroke-linecap:round;stroke-linejoin:round;stroke-width:0.9853323101997375px"
       id="path481" />
    <path
       d="M49.35,396.86a39.78,39.78,0,0,1-1.51-5.28"
       style="fill:none;stroke:#263238;stroke-linecap:round;stroke-linejoin:round;stroke-width:0.9853323101997375px"
       id="path483" />
    <path
       d="M71.32,400.19a25.07,25.07,0,0,0-.95-3.33l-.52-1.54"
       style="fill:none;stroke:#263238;stroke-linecap:round;stroke-linejoin:round;stroke-width:0.9853323101997375px"
       id="path485" />
    <path
       d="M57.87,421.86s0-3.41,6.25-6.82c4.1-2.24,7-5.21,7.51-9.71"
       style="fill:none;stroke:#263238;stroke-linecap:round;stroke-linejoin:round;stroke-width:0.9853323101997375px"
       id="path487" />
  </g>
  <g
     id="freepik--Table--inject-2">
    <rect
       x="14.59"
       y="464.35"
       width="465.44"
       height="10.3"
       style="fill:#263238"
       id="rect490" />
  </g>
  <g
     inkscape:groupmode="layer"
     id="layer1"
     inkscape:label="Layer 1"
     style="display:inline"
     transform="matrix(1.5481351,0,0,1.5481351,-414.60815,83.236003)">
    <rect
       x="352.86377"
       y="15.248513"
       width="196.86"
       height="165.85001"
       style="fill:#ffffff;stroke:#263238;stroke-width:0.985332px;stroke-linecap:round;stroke-linejoin:round"
       id="rect28" />
    <path
       d="m 393.72376,108.48851 h -1.6 l -0.27,-1.82 h -1.94 l -0.28,1.82 h -1.45 l 1.61,-10.069997 h 2.32 z m -3.61,-3.19 h 1.52 l -0.76,-5.1 z"
       style="fill:#263238"
       id="path30" />
    <path
       d="m 395.96376,98.418513 v 7.769997 c 0,0.72 0.32,1 0.82,1 0.5,0 0.83,-0.26 0.83,-1 v -7.769997 h 1.49 v 7.669997 c 0,1.61 -0.8,2.53 -2.36,2.53 -1.56,0 -2.36,-0.92 -2.36,-2.53 v -7.669997 z"
       style="fill:#263238"
       id="path32" />
    <path
       d="m 399.72376,98.418513 h 4.89 v 1.44 h -1.65 v 8.629997 h -1.55 v -8.629997 h -1.65 z"
       style="fill:#263238"
       id="path34" />
    <path
       d="m 406.89376,108.48851 h -1.59 V 98.418513 h 1.59 v 4.319997 h 1.79 v -4.319997 h 1.62 v 10.069997 h -1.62 v -4.31 h -1.79 z"
       style="fill:#263238"
       id="path36" />
    <path
       d="m 413.03376,102.65851 h 2.17 v 1.44 h -2.17 v 3 h 2.73 v 1.44 h -4.35 V 98.418513 h 4.31 v 1.44 h -2.73 z"
       style="fill:#263238"
       id="path38" />
    <path
       d="m 418.15376,101.24851 v 7.29 h -1.42 V 98.418513 h 2 l 1.63,5.999997 v -5.999997 h 1.41 v 10.069997 h -1.63 z"
       style="fill:#263238"
       id="path40" />
    <path
       d="m 422.41376,98.418513 h 4.9 v 1.44 h -1.66 v 8.629997 h -1.58 v -8.629997 h -1.66 z"
       style="fill:#263238"
       id="path42" />
    <path
       d="m 428.01376,98.418513 h 1.58 v 10.069997 h -1.58 z"
       style="fill:#263238"
       id="path44" />
    <path
       d="m 435.33376,104.73851 v 1.34 c 0,1.61 -0.8,2.53 -2.36,2.53 -1.56,0 -2.36,-0.92 -2.36,-2.53 v -5.24 c 0,-1.619997 0.81,-2.539997 2.36,-2.539997 1.55,0 2.36,0.92 2.36,2.539997 v 1 h -1.49 v -1.08 c 0,-0.72 -0.32,-0.999997 -0.82,-0.999997 -0.5,0 -0.82,0.279997 -0.82,0.999997 v 5.44 c 0,0.72 0.31,1 0.82,1 0.51,0 0.82,-0.25 0.82,-1 v -1.44 z"
       style="fill:#263238"
       id="path46" />
    <path
       d="m 441.41376,108.48851 h -1.6 l -0.27,-1.82 h -1.93 l -0.28,1.82 h -1.45 l 1.61,-10.069997 h 2.32 z m -3.61,-3.19 h 1.52 l -0.76,-5.1 z"
       style="fill:#263238"
       id="path48" />
    <path
       d="m 441.14376,98.418513 h 4.9 v 1.44 h -1.63 v 8.629997 h -1.58 v -8.629997 h -1.66 z"
       style="fill:#263238"
       id="path50" />
    <path
       d="m 448.31376,102.65851 h 2.17 v 1.44 h -2.17 v 3 h 2.74 v 1.44 h -4.32 V 98.418513 h 4.32 v 1.44 h -2.74 z"
       style="fill:#263238"
       id="path52" />
    <path
       d="m 455.74376,105.14851 -2,-6.729997 h 1.67 l 1.21,4.589997 1.21,-4.589997 h 1.51 l -2,6.729997 v 3.34 h -1.58 z"
       style="fill:#263238"
       id="path54" />
    <path
       d="m 459.61376,100.83851 a 2.4,2.4 0 1 1 4.8,0 v 5.24 a 2.4,2.4 0 1 1 -4.8,0 z m 1.58,5.34 c 0,0.72 0.32,1 0.82,1 0.5,0 0.82,-0.27 0.82,-1 v -5.44 c 0,-0.72 -0.32,-0.999997 -0.82,-0.999997 -0.5,0 -0.82,0.279997 -0.82,0.999997 z"
       style="fill:#263238"
       id="path56" />
    <path
       d="m 466.94376,98.418513 v 7.769997 c 0,0.72 0.32,1 0.82,1 0.5,0 0.82,-0.26 0.82,-1 v -7.769997 h 1.5 v 7.669997 c 0,1.61 -0.8,2.53 -2.36,2.53 -1.56,0 -2.36,-0.92 -2.36,-2.53 v -7.669997 z"
       style="fill:#263238"
       id="path58" />
    <path
       d="m 474.47376,108.48851 a 3,3 0 0 1 -0.14,-1.24 v -1.58 c 0,-0.93 -0.32,-1.28 -1,-1.28 h -0.55 v 4.1 h -1.58 V 98.418513 h 2.39 c 1.64,0 2.34,0.76 2.34,2.319997 v 0.79 a 2,2 0 0 1 -1,2 c 0.79,0.33 1.05,1.09 1.05,2.14 v 1.58 a 2.91,2.91 0 0 0 0.17,1.22 z m -1.73,-8.629997 v 3.089997 h 0.67 c 0.59,0 0.95,-0.26 0.95,-1.06 v -1 c 0,-0.72 -0.24,-0.999997 -0.8,-0.999997 z"
       style="fill:#263238"
       id="path60" />
    <path
       d="m 484.30376,108.48851 h -1.6 l -0.27,-1.82 h -1.95 l -0.27,1.82 h -1.45 l 1.65,-10.069997 h 2.32 z m -3.61,-3.19 h 1.52 l -0.8,-5.05 z"
       style="fill:#263238"
       id="path62" />
    <path
       d="m 489.61376,104.73851 v 1.34 c 0,1.61 -0.81,2.53 -2.36,2.53 -1.55,0 -2.36,-0.92 -2.36,-2.53 v -5.24 c 0,-1.619997 0.8,-2.539997 2.36,-2.539997 1.56,0 2.36,0.92 2.36,2.539997 v 1 h -1.5 v -1.08 c 0,-0.72 -0.32,-0.999997 -0.82,-0.999997 -0.5,0 -0.82,0.279997 -0.82,0.999997 v 5.44 c 0,0.72 0.32,1 0.82,1 0.5,0 0.82,-0.25 0.82,-1 v -1.44 z"
       style="fill:#263238"
       id="path64" />
    <path
       d="m 495.16376,104.73851 v 1.34 c 0,1.61 -0.8,2.53 -2.36,2.53 -1.56,0 -2.36,-0.92 -2.36,-2.53 v -5.24 c 0,-1.619997 0.81,-2.539997 2.36,-2.539997 1.55,0 2.36,0.92 2.36,2.539997 v 1 h -1.5 v -1.08 c 0,-0.72 -0.31,-0.999997 -0.82,-0.999997 -0.51,0 -0.82,0.279997 -0.82,0.999997 v 5.44 c 0,0.72 0.32,1 0.82,1 0.5,0 0.82,-0.25 0.82,-1 v -1.44 z"
       style="fill:#263238"
       id="path66" />
    <path
       d="m 495.99376,100.83851 a 2.41,2.41 0 1 1 4.81,0 v 5.24 a 2.41,2.41 0 1 1 -4.81,0 z m 1.59,5.34 c 0,0.72 0.31,1 0.82,1 0.51,0 0.82,-0.27 0.82,-1 v -5.44 c 0,-0.72 -0.32,-0.999997 -0.82,-0.999997 -0.5,0 -0.82,0.279997 -0.82,0.999997 z"
       style="fill:#263238"
       id="path68" />
    <path
       d="m 503.33376,98.418513 v 7.769997 c 0,0.72 0.32,1 0.82,1 0.5,0 0.82,-0.26 0.82,-1 v -7.769997 h 1.5 v 7.669997 c 0,1.61 -0.8,2.53 -2.36,2.53 -1.56,0 -2.36,-0.92 -2.36,-2.53 v -7.669997 z"
       style="fill:#263238"
       id="path70" />
    <path
       d="m 508.96376,101.24851 v 7.29 h -1.42 V 98.418513 h 2 l 1.63,5.999997 v -5.999997 h 1.41 v 10.069997 h -1.63 z"
       style="fill:#263238"
       id="path72" />
    <path
       d="m 513.23376,98.418513 h 4.9 v 1.44 h -1.66 v 8.629997 h -1.58 v -8.629997 h -1.66 z"
       style="fill:#263238"
       id="path74" />
    <circle
       cx="8.7803726"
       cy="456.63062"
       r="22.58"
       transform="rotate(-80.85)"
       style="fill:#0756bd"
       id="circle76" />
    <path
       d="m 462.06376,58.738513 a 9.85,9.85 0 1 1 -9.85,-9.85 9.85,9.85 0 0 1 9.85,9.85 z"
       style="fill:#ffffff"
       id="path78" />
    <path
       d="m 436.00376,79.648513 a 22.56,22.56 0 0 0 32.42,0 v -0.65 a 8.68,8.68 0 0 0 -8.68,-8.69 h -15.05 a 8.69,8.69 0 0 0 -8.69,8.69 z"
       style="fill:#ffffff"
       id="path80" />
    <rect
       x="383.66376"
       y="126.63851"
       width="136.22"
       height="16.559999"
       style="fill:none;stroke:#263238;stroke-width:0.985332px;stroke-miterlimit:10"
       id="rect82" />
    <rect
       x="383.66376"
       y="151.46852"
       width="136.22"
       height="16.559999"
       style="fill:#0756bd;stroke:#263238;stroke-width:0.985332px;stroke-miterlimit:10"
       id="rect84" />
    <path
       d="m 429.35376,135.38851 v 1 h -2.46 v 3.58 h 3 v 1 h -4.14 v -10.04 h 4.14 v 1 h -3 v 3.44 z"
       style="fill:#bdbdbd"
       id="path86" />
    <path
       d="m 431.94376,141.00851 h -1 v -10.08 h 1.47 l 2.33,7.28 v -7.28 h 1 v 10.08 h -1.17 l -2.58,-8.15 z"
       style="fill:#bdbdbd"
       id="path88" />
    <path
       d="m 438.30376,141.00851 v -9.06 h -1.89 v -1 h 4.84 v 1 h -1.84 v 9.06 z"
       style="fill:#bdbdbd"
       id="path90" />
    <path
       d="m 445.64376,135.38851 v 1 h -2.46 v 3.58 h 3 v 1 h -4.14 v -10.04 h 4.14 v 1 h -3 v 3.44 z"
       style="fill:#bdbdbd"
       id="path92" />
    <path
       d="m 449.48376,130.92851 c 1.59,0 2.25,0.81 2.25,2.3 v 0.82 a 1.89,1.89 0 0 1 -1.25,2.08 c 0.92,0.27 1.26,1 1.26,2.1 v 1.57 a 2.64,2.64 0 0 0 0.2,1.21 h -1.13 a 2.65,2.65 0 0 1 -0.19,-1.23 v -1.53 c 0,-1.14 -0.53,-1.5 -1.47,-1.5 h -0.74 v 4.31 h -1.12 v -10.13 z m -0.28,4.75 c 0.89,0 1.42,-0.29 1.42,-1.38 v -1 c 0,-0.9 -0.33,-1.38 -1.17,-1.38 h -1.04 v 3.73 z"
       style="fill:#bdbdbd"
       id="path94" />
    <path
       d="m 459.59376,133.35851 v 0.89 h -1.07 v -1 c 0,-0.91 -0.36,-1.46 -1.18,-1.46 -0.82,0 -1.18,0.55 -1.18,1.46 v 5.32 c 0,0.91 0.37,1.46 1.18,1.46 0.81,0 1.18,-0.55 1.18,-1.46 v -1.31 h 1.07 v 1.25 c 0,1.53 -0.73,2.54 -2.28,2.54 -1.55,0 -2.26,-1 -2.26,-2.54 v -5.21 c 0,-1.52 0.72,-2.53 2.26,-2.53 1.54,0 2.28,1.07 2.28,2.59 z"
       style="fill:#bdbdbd"
       id="path96" />
    <path
       d="m 460.52376,133.35851 c 0,-1.54 0.76,-2.53 2.3,-2.53 1.54,0 2.32,1 2.32,2.53 v 5.21 c 0,1.53 -0.76,2.54 -2.32,2.54 -1.56,0 -2.3,-1 -2.3,-2.54 z m 1.11,5.27 c 0,0.92 0.39,1.46 1.19,1.46 0.8,0 1.2,-0.54 1.2,-1.46 v -5.32 c 0,-0.91 -0.38,-1.46 -1.2,-1.46 -0.82,0 -1.19,0.55 -1.19,1.46 z"
       style="fill:#bdbdbd"
       id="path98" />
    <path
       d="m 468.56376,130.92851 c 1.57,0 2.29,0.95 2.29,2.51 v 5.08 c 0,1.54 -0.72,2.49 -2.29,2.49 h -2.36 v -10.08 z m 0,9 c 0.8,0 1.19,-0.5 1.19,-1.42 v -5.18 c 0,-0.92 -0.39,-1.43 -1.21,-1.43 h -1.21 v 8 z"
       style="fill:#bdbdbd"
       id="path100" />
    <path
       d="m 475.48376,135.38851 v 1 h -2.46 v 3.58 h 3 v 1 h -4.15 v -10.04 h 4.15 v 1 h -3 v 3.44 z"
       style="fill:#bdbdbd"
       id="path102" />
    <path
       d="m 442.61376,155.84851 c 1.56,0 2.28,1 2.28,2.51 v 5.08 c 0,1.54 -0.72,2.49 -2.28,2.49 h -2.37 v -10.08 z m 0,9.06 c 0.81,0 1.2,-0.51 1.2,-1.43 v -5.18 c 0,-0.92 -0.39,-1.42 -1.21,-1.42 h -1.19 v 8 z"
       style="fill:#ffffff"
       id="path104" />
    <path
       d="m 445.86376,158.24851 c 0,-1.54 0.76,-2.54 2.3,-2.54 1.54,0 2.32,1 2.32,2.54 v 5.21 a 2.22,2.22 0 0 1 -2.32,2.53 c -1.54,0 -2.3,-1 -2.3,-2.53 z m 1.1,5.27 c 0,0.92 0.39,1.45 1.2,1.45 0.81,0 1.19,-0.53 1.19,-1.45 v -5.27 c 0,-0.91 -0.37,-1.46 -1.19,-1.46 -0.82,0 -1.2,0.55 -1.2,1.46 z"
       style="fill:#ffffff"
       id="path106" />
    <path
       d="m 452.53376,165.92851 h -1 v -10.08 h 1.42 l 2.33,7.29 v -7.29 h 1 v 10.08 h -1.17 l -2.58,-8.15 z"
       style="fill:#ffffff"
       id="path108" />
    <path
       d="m 461.01376,160.31851 v 1 h -2.46 v 3.59 h 3 v 1 h -4.14 v -10.06 h 4.15 v 1 h -3 v 3.44 z"
       style="fill:#ffffff"
       id="path110" />
    <rect
       x="352.86377"
       y="15.248513"
       width="196.86"
       height="8.0200005"
       style="fill:#0756bd;stroke:#263238;stroke-width:0.985332px;stroke-linecap:round;stroke-linejoin:round"
       id="rect112" />
  </g>
</svg>
