<?xml version="1.0" encoding="UTF-8" standalone="no"?>
<svg
   viewBox="0 0 500 500"
   version="1.1"
   id="svg350"
   sodipodi:docname="no-orders.svg"
   inkscape:version="1.2.2 (732a01da63, 2022-12-09)"
   xmlns:inkscape="http://www.inkscape.org/namespaces/inkscape"
   xmlns:sodipodi="http://sodipodi.sourceforge.net/DTD/sodipodi-0.dtd"
   xmlns="http://www.w3.org/2000/svg"
   xmlns:svg="http://www.w3.org/2000/svg">
  <defs
     id="defs354" />
  <sodipodi:namedview
     id="namedview352"
     pagecolor="#505050"
     bordercolor="#ffffff"
     borderopacity="1"
     inkscape:showpageshadow="0"
     inkscape:pageopacity="0"
     inkscape:pagecheckerboard="1"
     inkscape:deskcolor="#505050"
     showgrid="false"
     inkscape:zoom="0.92913831"
     inkscape:cx="43.588774"
     inkscape:cy="311.04088"
     inkscape:window-width="1600"
     inkscape:window-height="837"
     inkscape:window-x="-8"
     inkscape:window-y="327"
     inkscape:window-maximized="1"
     inkscape:current-layer="svg350" />
  <g
     id="freepik--background-complete--inject-187"
     style="display:inline">
    <rect
       x="167.00999"
       y="378.75"
       width="104.15"
       height="80.330002"
       style="fill:#0756bd;fill-opacity:1;opacity:0.17875648"
       id="rect2" />
    <path
       d="m 245.07,458.52 c -0.14,0 -0.26,-17.91 -0.26,-40 0,-22.09 0.12,-40 0.26,-40 0.14,0 0.26,17.91 0.26,40 0,22.09 -0.12,40 -0.26,40 z"
       style="fill:#0756bd;fill-opacity:1;opacity:0.17875648"
       id="path4" />
    <rect
       x="254.35001"
       y="440.79999"
       width="7.98"
       height="9.0299997"
       style="fill:#0756bd;fill-opacity:1;opacity:0.17875648"
       id="rect6" />
    <rect
       x="198.78999"
       y="378.95999"
       width="11.83"
       height="17.139999"
       style="fill:#0756bd;fill-opacity:1;opacity:0.17875648"
       id="rect8" />
    <rect
       x="198.78999"
       y="441.70001"
       width="11.83"
       height="17.139999"
       style="fill:#0756bd;fill-opacity:1;opacity:0.17875648"
       id="rect10" />
    <rect
       x="328.82001"
       y="358.60999"
       width="131.33"
       height="101.29"
       style="fill:#0756bd;fill-opacity:1;opacity:0.17875648"
       id="rect12" />
    <path
       d="m 427.24,459.18 c -0.14,0 -0.26,-22.57 -0.26,-50.42 0,-27.85 0.12,-50.42 0.26,-50.42 0.14,0 0.26,22.57 0.26,50.42 0,27.85 -0.11,50.42 -0.26,50.42 z"
       style="fill:#0756bd;fill-opacity:1;opacity:0.17875648"
       id="path14" />
    <rect
       x="438.94"
       y="436.84"
       width="10.07"
       height="11.38"
       style="fill:#0756bd;fill-opacity:1;opacity:0.17875648"
       id="rect16" />
    <rect
       x="368.88"
       y="358.87"
       width="14.92"
       height="21.610001"
       style="fill:#0756bd;fill-opacity:1;opacity:0.17875648"
       id="rect18" />
    <rect
       x="368.88"
       y="437.98001"
       width="14.92"
       height="21.610001"
       style="fill:#0756bd;fill-opacity:1;opacity:0.17875648"
       id="rect20" />
    <path
       d="m 81.46,361.59 c 5.32,-2.74 11.58,-3.1 17.48,-2.12 3.17,0.52 6.47,1.47 8.63,3.85 2.16,2.38 2.56,6.57 0.09,8.62 -1.48,1.22 -3.53,1.4 -5.45,1.38 -4.62,-0.06 -9.74,-0.87 -13.43,1.91 -2.11,1.59 -3.51,4.22 -6,5 -2.49,0.78 -5.24,-0.69 -6.54,-2.91 a 10.15,10.15 0 0 1 -0.74,-7.51 11.45,11.45 0 0 1 5.96,-8.22 z"
       style="fill:#0756bd;fill-opacity:1;opacity:0.17875648"
       id="path22" />
    <path
       d="m 69.28,338.08 c 3.25,4.64 9.57,3.11 12.5,0.27 2.93,-2.84 4.17,-6.94 5.29,-10.85 2.58,-8.95 5.17,-18.34 3.26,-27.45 a 15.19,15.19 0 0 0 -3.51,-7.46 8,8 0 0 0 -7.54,-2.51 c -3.19,0.84 -5.17,4 -6.6,6.93 a 65.29,65.29 0 0 0 -6.46,28.07 c 0,4.53 0.51,9.27 3.06,13"
       style="fill:#0756bd;fill-opacity:1;opacity:0.17875648"
       id="path24" />
    <path
       d="m 60.36,344.74 c 3.53,-4.19 4.2,-10.29 2.63,-15.54 -1.57,-5.25 -5.12,-9.71 -9.21,-13.36 a 49.6,49.6 0 0 0 -16.48,-9.72 17.58,17.58 0 0 0 -7.42,-1.26 7.77,7.77 0 0 0 -6.22,3.76 c -1.74,3.31 -0.07,7.32 1.73,10.6 a 125.87,125.87 0 0 0 10.82,16.49 c 3.25,4.18 7,8.31 11.91,10.2 4.91,1.89 10.09,1.67 12.71,-1.76"
       style="fill:#0756bd;fill-opacity:1;opacity:0.17875648"
       id="path26" />
    <path
       d="m 69.06,408.1 a 10.07,10.07 0 0 0 0.3,-2.1 c 0.15,-1.54 0.33,-3.47 0.56,-5.76 a 84,84 0 0 1 1.29,-8.44 64.62,64.62 0 0 1 3.07,-10 37,37 0 0 1 5.09,-9 19.22,19.22 0 0 1 6.43,-5.35 18.1,18.1 0 0 1 5.42,-1.68 9.88,9.88 0 0 0 2.1,-0.31 9.72,9.72 0 0 0 -2.13,0 16.37,16.37 0 0 0 -5.65,1.47 18.94,18.94 0 0 0 -6.79,5.4 35.67,35.67 0 0 0 -5.28,9.19 61.15,61.15 0 0 0 -3,10.13 73.35,73.35 0 0 0 -1.13,8.55 c -0.18,2.45 -0.25,4.43 -0.28,5.8 a 10,10 0 0 0 0,2.1 z"
       style="fill:#0756bd;fill-opacity:1;opacity:0.17875648"
       id="path28" />
    <path
       d="m 69.46,403.68 a 4.25,4.25 0 0 0 0.06,-1 c 0,-0.74 0,-1.67 0,-2.8 0,-2.43 0,-5.95 0.12,-10.29 0.22,-8.68 1,-18 2.41,-31.19 1.37,-12.39 3.2,-26.8 5.14,-36.17 0.41,-2.13 0.83,-4.05 1.23,-5.73 0.4,-1.68 0.69,-3.14 1,-4.31 0.31,-1.17 0.48,-2 0.66,-2.72 a 4.1,4.1 0 0 0 0.17,-1 4,4 0 0 0 -0.34,0.92 c -0.22,0.71 -0.49,1.59 -0.82,2.68 -0.33,1.09 -0.73,2.61 -1.15,4.28 -0.42,1.67 -0.9,3.59 -1.35,5.72 a 317,317 0 0 0 -5.41,33.56 c -1.44,13.2 -2.09,25.22 -2.15,33.92 0,4.35 0,7.88 0.15,10.31 0.07,1.13 0.13,2.06 0.17,2.79 a 4.31,4.31 0 0 0 0.11,1.03 z"
       style="fill:#0756bd;fill-opacity:1;opacity:0.17875648"
       id="path30" />
    <path
       d="m 69.52,380.5 a 18.8,18.8 0 0 0 0,-2.93 c -0.11,-1.88 -0.37,-4.59 -0.9,-7.92 A 104.22,104.22 0 0 0 66,358.11 95.33,95.33 0 0 0 61.17,344.45 72.62,72.62 0 0 0 47,322.39 a 35.08,35.08 0 0 0 -3.34,-3.1 c -0.51,-0.44 -1,-0.87 -1.42,-1.21 L 41,317.19 a 17.72,17.72 0 0 0 -2.47,-1.58 c -0.14,0.19 3.49,2.33 8.07,7.2 a 76.6,76.6 0 0 1 13.82,22 106.14,106.14 0 0 1 4.85,13.53 117.56,117.56 0 0 1 2.73,11.42 c 0.6,3.29 1,6 1.16,7.84 a 18.36,18.36 0 0 0 0.36,2.9 z"
       style="fill:#0756bd;fill-opacity:1;opacity:0.17875648"
       id="path32" />
    <polygon
       points="45.56,417.86 47.88,449.69 88.77,449.69 91.09,417.86 "
       style="fill:#0756bd;fill-opacity:1;opacity:0.17875648"
       id="polygon34" />
    <rect
       x="41.610001"
       y="405.32001"
       width="54.349998"
       height="12.54"
       style="fill:#0756bd;fill-opacity:1;opacity:0.17875648"
       id="rect36" />
    <polygon
       points="95.07,448.47 41.61,448.47 41.61,451.94 44.17,451.94 95.07,451.94 "
       style="fill:#0756bd;fill-opacity:1;opacity:0.17875648"
       id="polygon38" />
    <polygon
       points="46.67,457.68 44.17,451.56 93.12,451.56 90.2,457.68 "
       style="fill:#0756bd;fill-opacity:1;opacity:0.17875648"
       id="polygon40" />
    <path
       d="m 90.33,428.26 a 1.48,1.48 0 0 1 -0.19,0.3 c -0.16,0.21 -0.37,0.48 -0.61,0.81 l -2.38,3 -0.11,0.14 -0.1,-0.14 -5.85,-8.09 h 0.33 l -5.76,8.15 -0.18,0.26 -0.2,-0.24 -6.83,-8.13 h 0.39 l -0.37,0.48 -6.11,7.65 -0.21,0.26 -0.18,-0.27 -5.77,-8.15 h 0.34 l -7.1,8.08 -0.12,0.15 -0.1,-0.17 -2.22,-3.68 c -0.24,-0.4 -0.42,-0.73 -0.57,-1 a 1.55,1.55 0 0 1 -0.18,-0.36 1.54,1.54 0 0 1 0.24,0.32 l 0.63,0.95 2.33,3.67 h -0.22 l 7,-8.18 0.17,-0.21 0.16,0.22 5.82,8.12 H 62 l 6.09,-7.67 c 0.13,-0.16 0.26,-0.32 0.37,-0.47 l 0.2,-0.25 0.2,0.24 6.81,8.15 h -0.38 l 5.82,-8.11 0.17,-0.24 0.16,0.24 c 2.31,3.29 4.27,6.08 5.73,8.18 h -0.21 l 2.48,-3 c 0.27,-0.31 0.49,-0.56 0.66,-0.77 a 2.27,2.27 0 0 1 0.23,-0.24 z"
       style="fill:#0756bd;fill-opacity:1;opacity:0.17875648"
       id="path42" />
    <path
       d="m 91.66,417.65 c 0,0.14 -10.25,0.26 -22.88,0.26 -12.63,0 -22.88,-0.12 -22.88,-0.26 0,-0.14 10.24,-0.25 22.88,-0.25 12.64,0 22.88,0.11 22.88,0.25 z"
       style="fill:#0756bd;fill-opacity:1;opacity:0.17875648"
       id="path44" />
    <rect
       x="370.14999"
       y="56.84"
       width="8.3800001"
       height="41.700001"
       transform="rotate(-0.31,371.29254,76.783104)"
       style="fill:#0756bd;fill-opacity:1;opacity:0.17875648"
       id="rect46" />
    <rect
       x="297.5"
       y="56.990002"
       width="21.700001"
       height="23.02"
       transform="rotate(-0.31,304.78066,67.361872)"
       style="fill:#0756bd;fill-opacity:1;opacity:0.17875648"
       id="rect48" />
    <rect
       x="319.10001"
       y="56.869999"
       width="21.700001"
       height="23.02"
       transform="rotate(-0.31,326.95962,67.421872)"
       style="fill:#0756bd;fill-opacity:1;opacity:0.17875648"
       id="rect50" />
    <path
       d="m 297.47,63.4 q 21.64,0.18 43.3,-0.2 a 0.23,0.23 0 0 0 0,-0.46 c -14.42,-0.08 -28.88,0 -43.3,0.27 a 0.2,0.2 0 0 0 0,0.39 z"
       style="fill:#0756bd;fill-opacity:1;opacity:0.17875648"
       id="path52" />
    <rect
       x="283.95999"
       y="79.669998"
       width="39.43"
       height="18.76"
       transform="rotate(-0.31,301.02917,87.682583)"
       style="fill:#0756bd;fill-opacity:1;opacity:0.17875648"
       id="rect54" />
    <rect
       x="323.20001"
       y="79.459999"
       width="39.43"
       height="18.76"
       transform="rotate(-0.31,339.84235,87.787583)"
       style="fill:#0756bd;fill-opacity:1;opacity:0.17875648"
       id="rect56" />
    <path
       d="m 283.94,85 c 26.19,0.29 52.47,0 78.67,-0.39 a 0.23,0.23 0 0 0 0,-0.46 c -26.19,-0.14 -52.48,-0.13 -78.67,0.45 a 0.2,0.2 0 0 0 0,0.4 z"
       style="fill:#0756bd;fill-opacity:1;opacity:0.17875648"
       id="path58" />
    <rect
       x="269.19"
       y="98.540001"
       width="152.75999"
       height="6.7199998"
       style="fill:#0756bd;fill-opacity:1;opacity:0.17875648"
       id="rect60" />
    <rect
       x="294.20001"
       y="101.77"
       width="6.1999998"
       height="22.93"
       style="fill:#0756bd;fill-opacity:1;opacity:0.17875648"
       id="rect62" />
    <rect
       x="386.76999"
       y="101.77"
       width="6.1999998"
       height="22.93"
       style="fill:#0756bd;fill-opacity:1;opacity:0.17875648"
       id="rect64" />
    <rect
       x="378.37"
       y="41.290001"
       width="8.3800001"
       height="57.349998"
       transform="rotate(-0.31,378.70552,69.410118)"
       style="fill:#0756bd;fill-opacity:1;opacity:0.17875648"
       id="rect66" />
    <rect
       x="386.79001"
       y="51.98"
       width="13.02"
       height="46.48"
       transform="rotate(-0.31,389.78,74.984858)"
       style="fill:#0756bd;fill-opacity:1;opacity:0.17875648"
       id="rect68" />
    <path
       d="m 399.6,60.9 a 92.25,92.25 0 0 1 -13,0 96.43,96.43 0 0 1 13,0 z"
       style="fill:#0756bd;fill-opacity:1;opacity:0.17875648"
       id="path70" />
    <path
       d="m 399.6,59 a 48.59,48.59 0 0 1 -6.51,0.22 48.72,48.72 0 0 1 -6.51,-0.22 92.25,92.25 0 0 1 13,0 z"
       style="fill:#0756bd;fill-opacity:1;opacity:0.17875648"
       id="path72" />
    <path
       d="m 399.6,91.43 a 92.25,92.25 0 0 1 -13,0 96.43,96.43 0 0 1 13,0 z"
       style="fill:#0756bd;fill-opacity:1;opacity:0.17875648"
       id="path74" />
    <path
       d="m 399.6,89.48 a 96.43,96.43 0 0 1 -13,0 92.25,92.25 0 0 1 13,0 z"
       style="fill:#0756bd;fill-opacity:1;opacity:0.17875648"
       id="path76" />
    <path
       d="m 393.3,85.22 c -0.12,0 -0.22,-4.69 -0.22,-10.47 0,-5.78 0.1,-10.48 0.22,-10.48 0.12,0 0.23,4.69 0.23,10.48 0,5.79 -0.1,10.47 -0.23,10.47 z"
       style="fill:#0756bd;fill-opacity:1;opacity:0.17875648"
       id="path78" />
    <rect
       x="399.75"
       y="63.360001"
       width="14.17"
       height="35.080002"
       style="fill:#0756bd;fill-opacity:1;opacity:0.17875648"
       id="rect80" />
    <circle
       cx="382.28"
       cy="51.060001"
       r="2.4100001"
       style="fill:#0756bd;fill-opacity:1;opacity:0.17875648"
       id="circle82" />
    <rect
       x="381.54001"
       y="57.689999"
       width="1.49"
       height="34.119999"
       style="fill:#0756bd;fill-opacity:1;opacity:0.17875648"
       id="rect84" />
  </g>
  <g
     id="freepik--Floor--inject-187">
    <path
       d="M464.66,459.35c0,.15-96.12.26-214.65.26s-214.67-.11-214.67-.26,96.1-.26,214.67-.26S464.66,459.21,464.66,459.35Z"
       style="fill:#263238"
       id="path87" />
  </g>
  <g
     id="freepik--Plant--inject-187">
    <path
       d="M433.77,433.18a2.35,2.35,0,0,1,.18-.42c.14-.3.33-.7.56-1.21a29.54,29.54,0,0,0,1.67-4.84c1.1-4.3,1.49-10.87-.14-18.67a100.91,100.91,0,0,0-3.47-12.55c-1.46-4.45-3.17-9.17-4.56-14.28a55.38,55.38,0,0,1-2.25-16.42c.21-5.81,1.93-11.6,3.82-17.38S433.42,336,434,330.3a26.11,26.11,0,0,0-3.14-15.8c-2.5-4.61-5.65-8.56-8-12.64a44,44,0,0,1-4.81-12.16,45.33,45.33,0,0,1-.31-18.82,34.68,34.68,0,0,1,2-6.65,2.57,2.57,0,0,1-.12.44l-.4,1.27c-.34,1.12-.79,2.8-1.22,5a46,46,0,0,0,.49,18.69,43.51,43.51,0,0,0,4.83,12c2.35,4,5.51,8,8.07,12.63a26.64,26.64,0,0,1,3.23,16.13c-.59,5.78-2.55,11.47-4.44,17.24s-3.59,11.5-3.8,17.21a54.63,54.63,0,0,0,2.2,16.26c1.37,5.08,3.05,9.8,4.5,14.27a98.25,98.25,0,0,1,3.4,12.62c1.59,7.86,1.14,14.5,0,18.81a27.84,27.84,0,0,1-1.79,4.83l-.62,1.19A2.06,2.06,0,0,1,433.77,433.18Z"
       style="fill:#263238"
       id="path227" />
    <path
       d="M426.06,305.89s-4.78-15.31,3.8-24.27a.53.53,0,0,1,.91.26C431.23,284.41,431.8,292.11,426.06,305.89Z"
       style="fill:#0756BD"
       id="path229" />
    <path
       d="M428.93,286.72a14.65,14.65,0,0,1-.32,2.82c-.32,1.95-.69,4.23-1.09,6.75s-.77,4.81-1.08,6.75a16.84,16.84,0,0,1-.5,2.8A11.86,11.86,0,0,1,426,303c.16-1.75.47-4.15.9-6.79s.9-5,1.27-6.73A12.4,12.4,0,0,1,428.93,286.72Z"
       style="fill:#263238"
       id="path231" />
    <path
       d="M431.68,342s2.93-15.77,14.71-19.67a.53.53,0,0,1,.68.66C446.29,325.42,443.2,332.49,431.68,342Z"
       style="fill:#0756BD"
       id="path233" />
    <path
       d="M443.18,326.38a14.81,14.81,0,0,1-1.6,2.35l-4.13,5.45-4.1,5.47a16,16,0,0,1-1.75,2.23,11.84,11.84,0,0,1,1.4-2.48c1-1.47,2.36-3.45,4-5.58s3.13-4,4.26-5.36A12.88,12.88,0,0,1,443.18,326.38Z"
       style="fill:#263238"
       id="path235" />
    <path
       d="M428.5,381.53s-1.78-15.94,8.36-23.09a.52.52,0,0,1,.84.43C437.67,361.44,436.76,369.1,428.5,381.53Z"
       style="fill:#0756BD"
       id="path237" />
    <path
       d="M435,363.26a13.32,13.32,0,0,1-.85,2.71l-2.36,6.42c-.88,2.4-1.67,4.57-2.34,6.42a16.44,16.44,0,0,1-1,2.65,11.68,11.68,0,0,1,.62-2.78c.49-1.68,1.25-4,2.18-6.5s1.84-4.75,2.53-6.36A13.93,13.93,0,0,1,435,363.26Z"
       style="fill:#263238"
       id="path239" />
    <path
       d="M437.37,421.31s-1.2-16,9.18-22.78a.53.53,0,0,1,.83.46C447.26,401.56,446.08,409.19,437.37,421.31Z"
       style="fill:#0756BD"
       id="path241" />
    <path
       d="M444.49,403.29a13.85,13.85,0,0,1-.95,2.68c-.74,1.82-1.62,4-2.59,6.33s-1.82,4.5-2.56,6.33a15.56,15.56,0,0,1-1.13,2.61,12,12,0,0,1,.73-2.76c.55-1.66,1.39-3.94,2.41-6.41s2-4.69,2.75-6.27A13.36,13.36,0,0,1,444.49,403.29Z"
       style="fill:#263238"
       id="path243" />
    <path
       d="M419.18,292.44S405,285,404.69,272.61a.54.54,0,0,1,.83-.46C407.63,273.61,413.49,278.65,419.18,292.44Z"
       style="fill:#0756BD"
       id="path245" />
    <path
       d="M407.64,276.87a13.75,13.75,0,0,1,1.77,2.23c1.16,1.59,2.51,3.47,4,5.54l4,5.52a15.67,15.67,0,0,1,1.62,2.33,11.76,11.76,0,0,1-1.95-2.07c-1.13-1.34-2.61-3.26-4.17-5.43s-2.93-4.18-3.87-5.65A13.66,13.66,0,0,1,407.64,276.87Z"
       style="fill:#263238"
       id="path247" />
    <path
       d="M434.45,325.31s-14.64-6.55-15.67-18.92a.53.53,0,0,1,.8-.5C421.77,307.22,427.92,311.88,434.45,325.31Z"
       style="fill:#0756BD"
       id="path249" />
    <path
       d="M422,310.47a13.57,13.57,0,0,1,1.9,2.11l4.34,5.29,4.35,5.27a16,16,0,0,1,1.76,2.23,12.18,12.18,0,0,1-2.08-1.95c-1.2-1.28-2.8-3.1-4.49-5.17s-3.17-4-4.21-5.41A12.85,12.85,0,0,1,422,310.47Z"
       style="fill:#263238"
       id="path251" />
    <path
       d="M426,362s-10-12.5-5.33-24a.53.53,0,0,1,.94-.08C423,340.09,426.33,347.05,426,362Z"
       style="fill:#0756BD"
       id="path253" />
    <path
       d="M421.68,343.08a13.63,13.63,0,0,1,.74,2.75c.42,1.92.91,4.18,1.45,6.68s1.05,4.75,1.47,6.67a15.67,15.67,0,0,1,.55,2.79,12,12,0,0,1-1-2.68c-.49-1.69-1.09-4-1.65-6.66s-1-5-1.28-6.72A13,13,0,0,1,421.68,343.08Z"
       style="fill:#263238"
       id="path255" />
    <path
       d="M436,405.11s-14.53-6.79-15.35-19.17a.53.53,0,0,1,.81-.5C423.61,386.81,429.68,391.58,436,405.11Z"
       style="fill:#0756BD"
       id="path257" />
    <path
       d="M423.77,390.06a14.89,14.89,0,0,1,1.86,2.15l4.25,5.35,4.26,5.35a15.68,15.68,0,0,1,1.72,2.26,11.78,11.78,0,0,1-2-2c-1.19-1.3-2.75-3.15-4.41-5.25s-3.1-4.05-4.12-5.48A12.23,12.23,0,0,1,423.77,390.06Z"
       style="fill:#263238"
       id="path259" />
    <path
       d="M464.91,342.07s0,.12,0,.35,0,.61,0,1c0,1-.1,2.27-.17,3.89-.18,3.42-.45,8.19-.76,13.89h0v0c-1,5.8-4,12.23-8,18.48-2.91,4.6-6,8.78-8.6,12.67A89.36,89.36,0,0,0,441,403.05a44.9,44.9,0,0,0-3,7.82c-.25.95-.45,1.7-.56,2.21a4.65,4.65,0,0,1-.21.78,3.63,3.63,0,0,1,.1-.8c.07-.52.22-1.28.45-2.25a40.87,40.87,0,0,1,2.85-7.95A85.88,85.88,0,0,1,447,392.09c2.62-3.92,5.65-8.11,8.55-12.68,3.95-6.22,6.89-12.55,8-18.26v0c.4-5.69.73-10.45,1-13.87.13-1.62.24-2.91.32-3.88,0-.4.07-.74.1-1A1.32,1.32,0,0,1,464.91,342.07Z"
       style="fill:#263238"
       id="path261" />
    <path
       d="M456.26,378.53s6.15-14.8-1.58-24.51a.53.53,0,0,0-.93.18C453.06,356.68,451.79,364.29,456.26,378.53Z"
       style="fill:#0756BD"
       id="path263" />
    <path
       d="M455.14,359.19a13,13,0,0,1,.49,2.8c.22,1.74.46,4.15.65,6.82s.28,5.09.28,6.85a11.6,11.6,0,0,1-.17,2.84,15,15,0,0,1-.25-2.83c-.13-2-.29-4.27-.46-6.82s-.33-4.86-.47-6.82A14.46,14.46,0,0,1,455.14,359.19Z"
       style="fill:#263238"
       id="path265" />
    <g
       style="opacity:0.30000000000000004"
       id="g269">
      <path
         d="M456.26,378.53s6.15-14.8-1.58-24.51a.53.53,0,0,0-.93.18C453.06,356.68,451.79,364.29,456.26,378.53Z"
         id="path267" />
    </g>
    <path
       d="M437.21,414.22s4.93-15.26-3.57-24.3a.53.53,0,0,0-.91.25C432.25,392.69,431.6,400.39,437.21,414.22Z"
       style="fill:#0756BD"
       id="path271" />
    <path
       d="M434.52,395a12.27,12.27,0,0,1,.72,2.76c.36,1.71.79,4.1,1.2,6.74s.69,5.05.84,6.8a12,12,0,0,1,.05,2.85,17.08,17.08,0,0,1-.48-2.8c-.29-1.95-.63-4.23-1-6.76s-.73-4.81-1-6.76A14.48,14.48,0,0,1,434.52,395Z"
       style="fill:#263238"
       id="path273" />
    <g
       style="opacity:0.30000000000000004"
       id="g277">
      <path
         d="M437.21,414.22s4.93-15.26-3.57-24.3a.53.53,0,0,0-.91.25C432.25,392.69,431.6,400.39,437.21,414.22Z"
         id="path275" />
    </g>
    <path
       d="M464.1,360.44s13.13-9.2,11.81-21.54a.53.53,0,0,0-.88-.34C473.12,340.28,468,346,464.1,360.44Z"
       style="fill:#0756BD"
       id="path279" />
    <g
       style="opacity:0.30000000000000004"
       id="g283">
      <path
         d="M464.1,360.44s13.13-9.2,11.81-21.54a.53.53,0,0,0-.88-.34C473.12,340.28,468,346,464.1,360.44Z"
         id="path281" />
    </g>
    <path
       d="M473.53,343.51a12.33,12.33,0,0,1-1.09,2.63c-.75,1.58-1.84,3.74-3.11,6.1s-2.49,4.45-3.43,5.93a11.86,11.86,0,0,1-1.67,2.3,14.73,14.73,0,0,1,1.3-2.52c.94-1.73,2.05-3.75,3.27-6l3.26-6A14.61,14.61,0,0,1,473.53,343.51Z"
       style="fill:#263238"
       id="path285" />
    <path
       d="M442.51,399.09s15.84-2.47,20.08-14.13a.53.53,0,0,0-.63-.7C459.49,385,452.33,387.85,442.51,399.09Z"
       style="fill:#0756BD"
       id="path287" />
    <g
       style="opacity:0.30000000000000004"
       id="g291">
      <path
         d="M442.51,399.09s15.84-2.47,20.08-14.13a.53.53,0,0,0-.63-.7C459.49,385,452.33,387.85,442.51,399.09Z"
         id="path289" />
    </g>
    <path
       d="M458.43,388.05a12.84,12.84,0,0,1-2.14,1.87c-1.37,1.1-3.3,2.56-5.47,4.12s-4.2,2.89-5.7,3.81a11.57,11.57,0,0,1-2.52,1.33,15.44,15.44,0,0,1,2.29-1.69l5.58-3.94,5.57-4A13.29,13.29,0,0,1,458.43,388.05Z"
       style="fill:#263238"
       id="path293" />
    <polygon
       points="427.39 428.25 422.77 459.35 451.57 459.35 447.84 428.25 427.39 428.25"
       style="fill:#455a64"
       id="polygon295" />
    <path
       d="M449,437.88c0,.17-5.2.3-11.61.3s-11.62-.13-11.62-.3a114.71,114.71,0,0,1,11.62-.3A114.58,114.58,0,0,1,449,437.88Z"
       style="fill:#263238"
       id="path297" />
    <path
       d="M449.56,440.36c0,.17-5.37.3-12,.3s-12-.13-12-.3,5.37-.3,12-.3S449.56,440.19,449.56,440.36Z"
       style="fill:#263238"
       id="path299" />
  </g>
  <g
     id="freepik--Boxes--inject-187"
     style="display:inline">
    <path
       d="m 337.57,126.54 c 0,0 -0.27,0 -0.79,0 a 19.23,19.23 0 0 0 -2.28,0 25.62,25.62 0 0 0 -8.53,2 26.19,26.19 0 0 0 -10.82,8.43 23.63,23.63 0 0 0 -3.78,7.73 26,26 0 0 0 2.63,19.64 22.22,22.22 0 0 0 3.4,4.52 18.48,18.48 0 0 0 4.6,3.6 11.3,11.3 0 0 0 5.77,1.45 8.29,8.29 0 0 0 5.59,-2.26 8.07,8.07 0 0 0 2.23,-5.76 10.62,10.62 0 0 0 -2,-6.13 c -2.59,-3.65 -6.79,-6.1 -11.26,-7.42 a 27.65,27.65 0 0 0 -14.2,-0.2 29.76,29.76 0 0 0 -6.84,2.72 24.65,24.65 0 0 0 -5.87,4.61 c -0.41,0.47 -0.88,0.9 -1.25,1.42 l -1.13,1.52 a 28.55,28.55 0 0 0 -1.84,3.34 27.1,27.1 0 0 0 -2.17,7.37 27.94,27.94 0 0 0 2,15 23.17,23.17 0 0 0 9.65,11 16,16 0 0 0 6.84,2.07 12.08,12.08 0 0 0 6.75,-1.62 10.55,10.55 0 0 0 4.56,-5 9.06,9.06 0 0 0 0.17,-6.57 13.23,13.23 0 0 0 -3.76,-5.32 17.22,17.22 0 0 0 -5.53,-3.21 21.43,21.43 0 0 0 -12.18,-0.21 23.73,23.73 0 0 0 -10,5.57 22.84,22.84 0 0 0 -5.73,8.87 25.7,25.7 0 0 0 0.27,18 27.29,27.29 0 0 0 8.23,11 29.61,29.61 0 0 0 7.57,4.41 c 0.94,0.35 1.67,0.61 2.17,0.75 l 0.74,0.24 c 0,0 -0.26,-0.05 -0.76,-0.19 a 21.51,21.51 0 0 1 -2.18,-0.71 28.33,28.33 0 0 1 -7.66,-4.34 27.41,27.41 0 0 1 -8.39,-11.05 26,26 0 0 1 -0.33,-18.19 22.93,22.93 0 0 1 5.79,-9 24.19,24.19 0 0 1 10.15,-5.7 21.89,21.89 0 0 1 12.44,0.2 17.52,17.52 0 0 1 5.69,3.29 13.58,13.58 0 0 1 3.9,5.51 9.58,9.58 0 0 1 -0.1,6.89 11.2,11.2 0 0 1 -4.77,5.21 12.62,12.62 0 0 1 -7,1.7 16.26,16.26 0 0 1 -7,-2.14 23.64,23.64 0 0 1 -9.89,-11.19 28.5,28.5 0 0 1 -2.06,-15.28 27.86,27.86 0 0 1 2.22,-7.52 28.94,28.94 0 0 1 1.88,-3.41 l 1.16,-1.55 c 0.37,-0.53 0.85,-1 1.27,-1.46 a 25.33,25.33 0 0 1 6,-4.7 30.13,30.13 0 0 1 7,-2.76 28.14,28.14 0 0 1 14.47,0.21 c 4.56,1.36 8.83,3.85 11.52,7.63 a 11,11 0 0 1 2.1,6.4 8.54,8.54 0 0 1 -2.37,6.09 8.75,8.75 0 0 1 -5.9,2.37 11.63,11.63 0 0 1 -6,-1.51 18.59,18.59 0 0 1 -4.7,-3.69 23,23 0 0 1 -3.45,-4.61 26.37,26.37 0 0 1 -2.64,-20 23.9,23.9 0 0 1 3.87,-7.81 26.32,26.32 0 0 1 11,-8.45 25,25 0 0 1 8.59,-1.88 17.47,17.47 0 0 1 2.3,0 z"
       style="fill:#263238"
       id="path302" />
    <rect
       x="230.75"
       y="226.60001"
       width="140.21001"
       height="108.14"
       style="fill:#0756bd"
       id="rect304" />
    <polygon
       points="394.48,250.76 370.96,226.6 230.75,226.6 256.65,250.76 "
       style="fill:#0756bd"
       id="polygon306" />
    <path
       d="M 230.75,226.6 371,226.35 h 0.11 l 0.08,0.07 23.28,23.91 0.24,0.25 0.43,0.44 h -0.62 l -137.83,-0.11 h -0.06 v 0 l -25.88,-24.31 26,24 h -0.11 l 137.83,-0.1 -0.18,0.44 -0.25,-0.25 -23.27,-23.91 0.18,0.08 z"
       style="fill:#263238"
       id="path308" />
    <path
       d="m 272.87,276.47 a 2.9,2.9 0 1 0 0.21,0"
       style="fill:#ffffff"
       id="path310" />
    <path
       d="m 306,276.47 a 2.89,2.89 0 1 0 0.22,0"
       style="fill:#ffffff"
       id="path312" />
    <path
       d="m 306.19,302.35 a 20.72,20.72 0 0 0 -2.78,-6.21 18.25,18.25 0 0 0 -5.3,-5.08 16.17,16.17 0 0 0 -17.13,-0.47 18.47,18.47 0 0 0 -5.57,4.78 20.5,20.5 0 0 0 -3.11,6.06 2.07,2.07 0 0 1 0.08,-0.48 11.17,11.17 0 0 1 0.37,-1.33 16,16 0 0 1 2.37,-4.47 18.19,18.19 0 0 1 5.63,-5 16.45,16.45 0 0 1 17.62,0.48 18.14,18.14 0 0 1 5.34,5.28 16,16 0 0 1 2.13,4.6 11.74,11.74 0 0 1 0.29,1.35 2.78,2.78 0 0 1 0.06,0.49 z"
       style="fill:#ffffff"
       id="path314" />
    <polygon
       points="370.96,259.23 370.96,250.76 256.65,250.76 231.07,227.79 255.87,259.23 "
       style="opacity:0.5"
       id="polygon316" />
    <path
       d="m 343.31,334.5 c -0.14,0 -0.26,-18.81 -0.26,-42 0,-23.19 0.12,-42 0.26,-42 0.14,0 0.27,18.8 0.27,42 0,23.2 -0.12,42 -0.27,42 z"
       style="fill:#ffffff"
       id="path318" />
    <rect
       x="352.97"
       y="309.98001"
       width="12.36"
       height="13.97"
       style="fill:#f5f5f5"
       id="rect320" />
    <polygon
       points="230.75,250.76 230.75,226.6 201.97,250.76 "
       style="fill:#0756bd"
       id="polygon322" />
    <g
       style="opacity:0.4"
       id="g326">
      <polygon
         points="230.75,250.76 230.75,226.6 201.97,250.76 "
         id="polygon324" />
    </g>
    <rect
       x="213.89"
       y="334.73999"
       width="161.21001"
       height="124.34"
       style="fill:#0756bd"
       id="rect328" />
    <rect
       x="213.89"
       y="334.73999"
       width="161.21001"
       height="124.34"
       style="opacity:0.3"
       id="rect330" />
    <path
       d="m 334.71,458.2 c -0.14,0 -0.26,-27.71 -0.26,-61.89 0,-34.18 0.12,-61.9 0.26,-61.9 0.14,0 0.26,27.71 0.26,61.9 0,34.19 -0.12,61.89 -0.26,61.89 z"
       style="fill:#ffffff"
       id="path332" />
    <rect
       x="349.07001"
       y="430.78"
       width="12.36"
       height="13.97"
       style="fill:#f5f5f5"
       id="rect334" />
    <rect
       x="263.07001"
       y="335.07001"
       width="18.309999"
       height="26.530001"
       style="fill:#ffffff"
       id="rect336" />
    <rect
       x="263.07001"
       y="432.17999"
       width="18.309999"
       height="26.530001"
       style="fill:#ffffff"
       id="rect338" />
    <path
       d="m 373.7,334.74 h -0.42 -1.21 l -4.65,0.05 -17.13,0.08 -56.49,0.13 -56.51,-0.07 -17.12,-0.08 -4.65,-0.05 h -1.22 -0.41 0.41 1.22 l 4.65,-0.05 17.12,-0.08 56.51,-0.08 56.49,0.08 17.13,0.08 4.65,0.05 h 1.21 z"
       style="fill:#263238"
       id="path340" />
  </g>
  <g
     id="freepik--speech-bubble--inject-187"
     transform="matrix(1.6993245,0,0,1.6993245,37.9308,41.861409)">
    <path
       d="m 97.42,119.47 -17.56,-4.32 h 0.13 A 29.15,29.15 0 0 1 64.84,119.7 31.87,31.87 0 0 1 55.45,118.33 29.44,29.44 0 0 1 35.23,93.89 29,29 0 0 1 42.77,70.46 30.08,30.08 0 0 1 47.86,66 c 0.94,-0.59 1.88,-1.2 2.86,-1.71 l 1.49,-0.72 0.74,-0.36 0.78,-0.28 A 29.51,29.51 0 0 1 66.35,61 a 29.23,29.23 0 0 1 25.76,19.7 30.46,30.46 0 0 1 1.62,9.48 29.09,29.09 0 0 1 -4.21,15.21 v -0.16 c 4.88,8.81 7.34,13.26 7.89,14.24 -0.57,-1 -3.12,-5.37 -8.17,-14.09 v -0.08 -0.08 a 28.86,28.86 0 0 0 4,-15 A 29.78,29.78 0 0 0 91.6,80.9 28.76,28.76 0 0 0 66.31,61.6 29,29 0 0 0 53.94,63.5 l -0.76,0.27 -0.73,0.36 -1.46,0.7 c -1,0.51 -1.88,1.1 -2.81,1.68 a 29.71,29.71 0 0 0 -5,4.34 28.49,28.49 0 0 0 -7.41,23 28.93,28.93 0 0 0 10.83,19.23 28.47,28.47 0 0 0 9,4.8 31.16,31.16 0 0 0 9.23,1.39 28.88,28.88 0 0 0 15,-4.39 H 79.89 80 Z"
       style="fill:#263238"
       id="path343" />
    <path
       d="M 62,77.3 62.89,92 a 2.38,2.38 0 0 0 2.23,2.23 v 0 a 2.39,2.39 0 0 0 2.51,-2.12 L 69.26,77.38 A 1.87,1.87 0 0 0 67.37,75.31 H 63.8 A 1.86,1.86 0 0 0 62,77.3 Z"
       style="fill:#0756bd"
       id="path345" />
    <path
       d="M 69,102.44 A 3.58,3.58 0 1 1 66.73,97.91 3.58,3.58 0 0 1 69,102.44 Z"
       style="fill:#0756bd"
       id="path347" />
  </g>
</svg>
