<svg xmlns="http://www.w3.org/2000/svg" viewBox="0 0 500 500"><g id="freepik--background-complete--inject-1"><rect y="382.4" width="500" height="0.25" style="fill:#ebebeb"></rect><rect x="416.78" y="398.49" width="33.12" height="0.25" style="fill:#ebebeb"></rect><rect x="322.53" y="401.21" width="8.69" height="0.25" style="fill:#ebebeb"></rect><rect x="396.59" y="389.21" width="19.19" height="0.25" style="fill:#ebebeb"></rect><rect x="52.46" y="390.89" width="43.19" height="0.25" style="fill:#ebebeb"></rect><rect x="104.56" y="390.89" width="6.33" height="0.25" style="fill:#ebebeb"></rect><rect x="131.47" y="395.11" width="93.68" height="0.25" style="fill:#ebebeb"></rect><path d="M237,337.8H43.91a5.71,5.71,0,0,1-5.7-5.71V60.66A5.71,5.71,0,0,1,43.91,55H237a5.71,5.71,0,0,1,5.71,5.71V332.09A5.71,5.71,0,0,1,237,337.8ZM43.91,55.2a5.46,5.46,0,0,0-5.45,5.46V332.09a5.46,5.46,0,0,0,5.45,5.46H237a5.47,5.47,0,0,0,5.46-5.46V60.66A5.47,5.47,0,0,0,237,55.2Z" style="fill:#ebebeb"></path><path d="M453.31,337.8H260.21a5.72,5.72,0,0,1-5.71-5.71V60.66A5.72,5.72,0,0,1,260.21,55h193.1A5.71,5.71,0,0,1,459,60.66V332.09A5.71,5.71,0,0,1,453.31,337.8ZM260.21,55.2a5.47,5.47,0,0,0-5.46,5.46V332.09a5.47,5.47,0,0,0,5.46,5.46h193.1a5.47,5.47,0,0,0,5.46-5.46V60.66a5.47,5.47,0,0,0-5.46-5.46Z" style="fill:#ebebeb"></path><rect x="88.11" y="90.88" width="49.05" height="59.98" style="fill:#f0f0f0"></rect><rect x="91.27" y="90.88" width="56.42" height="59.98" style="fill:#f5f5f5"></rect><rect x="94.22" y="97.39" width="50.53" height="46.97" transform="translate(240.35 1.39) rotate(90)" style="fill:#fff"></rect><rect x="106.46" y="108.77" width="26.03" height="24.2" transform="translate(240.35 1.39) rotate(90)" style="fill:#f5f5f5"></rect><rect x="170.87" y="118.76" width="49.05" height="59.98" style="fill:#f0f0f0"></rect><rect x="174.04" y="118.76" width="56.42" height="59.98" style="fill:#f5f5f5"></rect><rect x="176.99" y="125.27" width="50.53" height="46.97" transform="translate(351 -53.5) rotate(90)" style="fill:#fff"></rect><rect x="189.23" y="136.65" width="26.03" height="24.2" rx="9.68" transform="translate(351 -53.5) rotate(90)" style="fill:#f5f5f5"></rect><rect x="417.2" y="331.48" width="27.19" height="50.92" style="fill:#e6e6e6"></rect><polygon points="439.22 382.4 444.39 382.4 444.39 363.25 433.81 363.25 439.22 382.4" style="fill:#f0f0f0"></polygon><rect x="262.07" y="331.48" width="27.19" height="50.92" style="fill:#e6e6e6"></rect><rect x="284.75" y="331.48" width="159.63" height="45.69" style="fill:#f0f0f0"></rect><polygon points="289.92 382.4 284.75 382.4 284.75 363.25 295.33 363.25 289.92 382.4" style="fill:#f0f0f0"></polygon><rect x="299.13" y="330.32" width="29.19" height="47.32" transform="translate(-40.26 667.71) rotate(-90)" style="fill:#e6e6e6"></rect><path d="M318.4,349.47H309c-4.07,0-8-4.1-10.75-11.34h30.86C326.36,345.37,322.47,349.47,318.4,349.47Z" style="fill:#f0f0f0"></path><rect x="349.98" y="330.32" width="29.19" height="47.32" transform="translate(10.59 718.55) rotate(-90)" style="fill:#e6e6e6"></rect><path d="M369.73,349.47h-9.36c-4.07,0-8-4.1-10.75-11.34h30.86C377.68,345.37,373.8,349.47,369.73,349.47Z" style="fill:#f0f0f0"></path><rect x="400.82" y="330.32" width="29.19" height="47.32" transform="translate(61.43 769.4) rotate(-90)" style="fill:#e6e6e6"></rect><path d="M420.58,349.47h-9.36c-4.07,0-8-4.1-10.75-11.34h30.86C428.53,345.37,424.64,349.47,420.58,349.47Z" style="fill:#f0f0f0"></path><rect x="280.83" y="84.18" width="155.62" height="132.46" style="fill:#e6e6e6"></rect><rect x="283.21" y="84.18" width="158.33" height="132.46" style="fill:#f0f0f0"></rect><rect x="280.83" y="216.64" width="155.62" height="9.44" style="fill:#e6e6e6"></rect><rect x="291.67" y="216.64" width="158.33" height="9.44" style="fill:#f0f0f0"></rect><rect x="303.25" y="78.36" width="118.24" height="144.11" transform="translate(512.78 -211.96) rotate(90)" style="fill:#fafafa"></rect><polygon points="382.06 209.53 393.44 91.3 413.15 91.3 401.76 209.53 382.06 209.53" style="fill:#fff"></polygon><path d="M293.61,169.45a.55.55,0,0,1-.55-.54v-73a.55.55,0,0,1,.55-.54.54.54,0,0,1,.54.54v73A.54.54,0,0,1,293.61,169.45Z" style="fill:#f0f0f0"></path><polygon points="405.99 209.53 417.38 91.3 425.06 91.3 413.67 209.53 405.99 209.53" style="fill:#fff"></polygon><rect x="374.85" y="149.96" width="118.24" height="0.9" transform="translate(584.39 -283.56) rotate(90)" style="fill:#e6e6e6"></rect><polygon points="443.22 104.19 287.59 104.19 286.94 94.06 442.56 94.06 443.22 104.19" style="fill:#e0e0e0;opacity:0.5"></polygon><polygon points="443.22 120.84 287.59 120.84 286.94 110.71 442.56 110.71 443.22 120.84" style="fill:#e0e0e0;opacity:0.5"></polygon><polygon points="443.22 137.49 287.59 137.49 286.94 127.36 442.56 127.36 443.22 137.49" style="fill:#e0e0e0;opacity:0.5"></polygon><polygon points="443.22 154.14 287.59 154.14 286.94 144.01 442.56 144.01 443.22 154.14" style="fill:#e0e0e0;opacity:0.5"></polygon><polygon points="443.22 170.79 287.59 170.79 286.94 160.66 442.56 160.66 443.22 170.79" style="fill:#e0e0e0;opacity:0.5"></polygon><polygon points="443.22 187.44 287.59 187.44 286.94 177.31 442.56 177.31 443.22 187.44" style="fill:#e0e0e0;opacity:0.5"></polygon><rect x="195.17" y="261.15" width="47.42" height="121.25" style="fill:#e6e6e6"></rect><polygon points="237.82 382.4 242.59 382.4 242.59 365.89 232.82 365.89 237.82 382.4" style="fill:#f0f0f0"></polygon><rect x="120.85" y="261.15" width="47.42" height="121.25" style="fill:#e6e6e6"></rect><rect x="164.11" y="261.15" width="78.48" height="111.12" style="fill:#f0f0f0"></rect><rect x="167.81" y="266.07" width="71.08" height="30.47" style="fill:#e6e6e6"></rect><path d="M210.31,275.54H199.59c-4.65,0-9.1-3.76-12.3-10.39h35.32C219.41,271.78,215,275.54,210.31,275.54Z" style="fill:#f0f0f0"></path><polygon points="168.88 382.4 164.11 382.4 164.11 365.89 173.88 365.89 168.88 382.4" style="fill:#f0f0f0"></polygon><rect x="167.81" y="301.47" width="71.08" height="30.47" style="fill:#e6e6e6"></rect><path d="M210.31,310.94H199.59c-4.65,0-9.1-3.76-12.3-10.4h35.32C219.41,307.18,215,310.94,210.31,310.94Z" style="fill:#f0f0f0"></path><rect x="167.81" y="336.87" width="71.08" height="30.47" style="fill:#e6e6e6"></rect><path d="M210.31,346.34H199.59c-4.65,0-9.1-3.76-12.3-10.4h35.32C219.41,342.58,215,346.34,210.31,346.34Z" style="fill:#f0f0f0"></path><rect x="293.67" y="272.37" width="40.66" height="58.99" rx="6.31" transform="translate(627.99 603.73) rotate(180)" style="fill:#f5f5f5"></rect><path d="M399.18,298.54s-1,32.82-39.44,32.82-39.44-32.82-39.44-32.82Z" style="fill:#f0f0f0"></path><path d="M91,356.08h2c0-8.35,0-11.15.21-59.71.35-88,1-93.37,1-93.37l-4.67,40.63C86.61,288.62,90.43,315.44,91,356.08Z" style="fill:#f0f0f0"></path><path d="M90.6,382.4h0a26.7,26.7,0,0,1-26.1-21,55.3,55.3,0,0,0-2.72-9.4l-.2-.49h58l-.2.49a55.3,55.3,0,0,0-2.72,9.4A26.7,26.7,0,0,1,90.6,382.4Z" style="fill:#fafafa"></path><polygon points="123.37 354.42 57.82 354.42 55.95 340.23 125.25 340.23 123.37 354.42" style="fill:#f0f0f0"></polygon><path d="M89.36,277.2c11.45-19.95-18.24-27.09-27.87-44.87C49.93,246.37,75.94,300.57,89.36,277.2Z" style="fill:#f0f0f0"></path><path d="M91.57,260.81c-4.42-10.05,16.84-22.25,21.43-38.59C121.48,231.65,104.64,290.58,91.57,260.81Z" style="fill:#f0f0f0"></path><path d="M91.4,291.13c3.6-12.67,24.18-3.53,34.68-27.33C137.25,297.42,81.42,326.33,91.4,291.13Z" style="fill:#f0f0f0"></path><path d="M92.31,306.27c-.24-12-13.32-1.36-37-22.81C51,305.6,93.22,352.78,92.31,306.27Z" style="fill:#f0f0f0"></path></g><g id="freepik--Shadow--inject-1"><ellipse id="freepik--path--inject-1" cx="250" cy="416.24" rx="193.89" ry="11.32" style="fill:#f5f5f5"></ellipse></g><g id="freepik--Filter--inject-1"><circle cx="238.06" cy="128.13" r="33.6" transform="translate(75.88 344.43) rotate(-81.43)" style="fill:#407BFF"></circle><path d="M264.2,137.4a27.73,27.73,0,0,1-52.27-18.55A27.73,27.73,0,0,1,264.2,137.4Z" style="fill:#fff"></path><path d="M256.62,148.73a27.73,27.73,0,0,1-46-16.31,43.9,43.9,0,0,1,46,16.31Z" style="fill:#407BFF;opacity:0.4"></path><path d="M252.88,123.32a12.35,12.35,0,1,1-7.51-15.78A12.34,12.34,0,0,1,252.88,123.32Z" style="fill:#407BFF;opacity:0.4"></path><circle cx="114.23" cy="135.51" r="28.35" transform="translate(-0.4 0.34) rotate(-0.17)" style="fill:#407BFF"></circle><circle cx="114.23" cy="135.51" r="28.35" transform="translate(-0.4 0.34) rotate(-0.17)" style="fill:#fafafa;opacity:0.6000000000000001"></circle><path d="M136.16,127.37a23.39,23.39,0,0,1-43.87,16.27,23.39,23.39,0,0,1,43.87-16.27Z" style="fill:#fff"></path><path d="M137.39,138.8a23.4,23.4,0,0,1-38.57,14.31,37.06,37.06,0,0,1,38.57-14.31Z" style="fill:#263238"></path><path d="M121.22,124.38a10.42,10.42,0,1,1-13.4-6.15A10.41,10.41,0,0,1,121.22,124.38Z" style="fill:#263238"></path><circle cx="167.25" cy="91.06" r="32.35" transform="translate(-15.4 144.93) rotate(-45)" style="fill:#263238"></circle><path d="M193.7,87.46a26.7,26.7,0,1,1-30-22.86A26.52,26.52,0,0,1,193.7,87.46Z" style="fill:#fff"></path><path d="M192.21,100.5a26.69,26.69,0,0,1-46.51,6.31,42.29,42.29,0,0,1,46.51-6.31Z" style="fill:#407BFF"></path><circle cx="166.02" cy="82" r="11.89" transform="translate(0.22 164.46) rotate(-52.73)" style="fill:#407BFF"></circle><rect x="157.12" y="407.4" width="50.96" height="8.84" style="fill:#407BFF"></rect><rect x="159.64" y="407.4" width="2.04" height="8.84" style="opacity:0.2"></rect><rect x="165.12" y="407.4" width="2.04" height="8.84" style="opacity:0.2"></rect><rect x="170.61" y="407.4" width="2.04" height="8.84" style="opacity:0.2"></rect><rect x="176.1" y="407.4" width="2.04" height="8.84" style="opacity:0.2"></rect><rect x="181.58" y="407.4" width="2.04" height="8.84" style="opacity:0.2"></rect><rect x="187.07" y="407.4" width="2.04" height="8.84" style="opacity:0.2"></rect><rect x="192.55" y="407.4" width="2.04" height="8.84" style="opacity:0.2"></rect><rect x="198.04" y="407.4" width="2.04" height="8.84" style="opacity:0.2"></rect><rect x="203.53" y="407.4" width="2.04" height="8.84" style="opacity:0.2"></rect><rect x="155.32" y="398.56" width="50.96" height="8.84" style="fill:#407BFF"></rect><rect x="157.84" y="398.56" width="2.04" height="8.84" style="opacity:0.2"></rect><rect x="163.32" y="398.56" width="2.04" height="8.84" style="opacity:0.2"></rect><rect x="168.81" y="398.56" width="2.04" height="8.84" style="opacity:0.2"></rect><rect x="174.3" y="398.56" width="2.04" height="8.84" style="opacity:0.2"></rect><rect x="179.78" y="398.56" width="2.04" height="8.84" style="opacity:0.2"></rect><rect x="185.27" y="398.56" width="2.04" height="8.84" style="opacity:0.2"></rect><rect x="190.76" y="398.56" width="2.04" height="8.84" style="opacity:0.2"></rect><rect x="196.24" y="398.56" width="2.04" height="8.84" style="opacity:0.2"></rect><rect x="201.73" y="398.56" width="2.04" height="8.84" style="opacity:0.2"></rect><rect x="156.75" y="389.72" width="50.96" height="8.84" style="fill:#407BFF"></rect><rect x="159.27" y="389.72" width="2.04" height="8.84" style="opacity:0.2"></rect><rect x="164.76" y="389.72" width="2.04" height="8.84" style="opacity:0.2"></rect><rect x="170.24" y="389.72" width="2.04" height="8.84" style="opacity:0.2"></rect><rect x="175.73" y="389.72" width="2.04" height="8.84" style="opacity:0.2"></rect><rect x="181.22" y="389.72" width="2.04" height="8.84" style="opacity:0.2"></rect><rect x="186.7" y="389.72" width="2.04" height="8.84" style="opacity:0.2"></rect><rect x="192.19" y="389.72" width="2.04" height="8.84" style="opacity:0.2"></rect><rect x="197.67" y="389.72" width="2.04" height="8.84" style="opacity:0.2"></rect><rect x="203.16" y="389.72" width="2.04" height="8.84" style="opacity:0.2"></rect><circle cx="179.78" cy="359.85" r="25.69" transform="translate(-76.3 49.63) rotate(-12.99)" style="fill:#407BFF"></circle><path d="M198.08,371.29a21.57,21.57,0,1,1-6.86-29.73A21.58,21.58,0,0,1,198.08,371.29Z" style="opacity:0.2"></path><circle cx="180.14" cy="360.72" r="21.2" transform="translate(-76.49 49.73) rotate(-12.99)" style="fill:#407BFF"></circle><path d="M187.21,364.48l-3.18,5.1a1.64,1.64,0,0,1-1.1.75,1.72,1.72,0,0,1-1.33-.22l-4.48-2.8-2.24,3.59a1.74,1.74,0,0,1-2.39.55,1.72,1.72,0,0,1-.8-1.1,1.6,1.6,0,0,1,.21-1.31l2.26-3.63-4.44-2.78a1.69,1.69,0,0,1-.77-1.07,1.66,1.66,0,0,1,.22-1.32,1.65,1.65,0,0,1,1.08-.77,1.69,1.69,0,0,1,1.31.22l10.4,6.5,1.32-2.12-10.36-6.48a1.66,1.66,0,0,1-.78-1.07,1.64,1.64,0,0,1,.22-1.32l3.18-5.07a1.66,1.66,0,0,1,1.08-.78,1.73,1.73,0,0,1,1.31.22l4.41,2.76,2.24-3.59a1.74,1.74,0,0,1,2.45-.52,1.66,1.66,0,0,1,.75,1.07,1.63,1.63,0,0,1-.22,1.31l-2.24,3.59,4.51,2.83a1.72,1.72,0,0,1,.79,1.1,1.63,1.63,0,0,1-.2,1.31,1.67,1.67,0,0,1-1.11.78A1.7,1.7,0,0,1,188,360l-10.4-6.5-1.31,2.1,10.37,6.48a1.73,1.73,0,0,1,.78,1.1A1.61,1.61,0,0,1,187.21,364.48Z" style="fill:#fafafa"></path><path d="M193.4,338.07a25.71,25.71,0,0,0-39.19,19.26h51.14A25.64,25.64,0,0,0,193.4,338.07Z" style="opacity:0.4"></path><path d="M273.4,133.67H86.92a8.51,8.51,0,0,0-7,13.35l20.82,30.07a8.53,8.53,0,0,0,7,3.66H252.58a8.51,8.51,0,0,0,7-3.66L280.4,147A8.51,8.51,0,0,0,273.4,133.67Z" style="fill:#407BFF;opacity:0.2"></path><polygon points="274.45 170.62 85.88 170.62 147.2 302.72 213.12 302.72 274.45 170.62" style="fill:#407BFF"></polygon><rect x="109.22" y="221.69" width="1" height="14.83" transform="translate(-86.27 67.5) rotate(-24.9)" style="fill:#407BFF"></rect><rect x="115.65" y="239.5" width="1" height="6.94" transform="translate(-91.51 71.5) rotate(-24.9)" style="fill:#407BFF"></rect><polygon points="274.45 170.62 85.88 170.62 147.2 302.72 213.12 302.72 274.45 170.62" style="opacity:0.30000000000000004"></polygon><polygon points="140.92 170.62 105.24 170.62 159.28 302.72 170.82 302.72 140.92 170.62" style="opacity:0.2"></polygon><rect x="75.26" y="145.21" width="209.81" height="25.41" rx="4.77" style="fill:#407BFF"></rect><path d="M203.44,350.63H156.89a6.62,6.62,0,0,1-6.6-6.13l-3.09-41.78h65.92L210,344.5A6.61,6.61,0,0,1,203.44,350.63Z" style="fill:#407BFF"></path><path d="M203.44,350.63H156.89a6.62,6.62,0,0,1-6.6-6.13l-3.09-41.78h65.92L210,344.5A6.61,6.61,0,0,1,203.44,350.63Z" style="opacity:0.2"></path></g></svg>