<?xml version="1.0" encoding="UTF-8" standalone="no"?>
<svg
   viewBox="0 0 500 500"
   version="1.1"
   id="svg133"
   sodipodi:docname="not_allowed.svg"
   inkscape:version="1.2.2 (732a01da63, 2022-12-09)"
   xmlns:inkscape="http://www.inkscape.org/namespaces/inkscape"
   xmlns:sodipodi="http://sodipodi.sourceforge.net/DTD/sodipodi-0.dtd"
   xmlns="http://www.w3.org/2000/svg"
   xmlns:svg="http://www.w3.org/2000/svg">
  <defs
     id="defs137" />
  <sodipodi:namedview
     id="namedview135"
     pagecolor="#505050"
     bordercolor="#ffffff"
     borderopacity="1"
     inkscape:showpageshadow="0"
     inkscape:pageopacity="0"
     inkscape:pagecheckerboard="1"
     inkscape:deskcolor="#505050"
     showgrid="false"
     inkscape:zoom="1.314"
     inkscape:cx="185.31202"
     inkscape:cy="250.38052"
     inkscape:window-width="1600"
     inkscape:window-height="837"
     inkscape:window-x="-8"
     inkscape:window-y="327"
     inkscape:window-maximized="1"
     inkscape:current-layer="svg133" />
  <g
     id="freepik--background-complete--inject-384">
    <rect
       y="382.4"
       width="500"
       height="0.25"
       style="fill:#ebebeb"
       id="rect2" />
    <rect
       x="290.21"
       y="389.21"
       width="25.46"
       height="0.25"
       style="fill:#ebebeb"
       id="rect4" />
    <rect
       x="395.11"
       y="394.62"
       width="60.33"
       height="0.25"
       style="fill:#ebebeb"
       id="rect6" />
    <rect
       x="222.46"
       y="389.33"
       width="62.33"
       height="0.25"
       style="fill:#ebebeb"
       id="rect8" />
    <rect
       x="169"
       y="396.81"
       width="13.04"
       height="0.25"
       style="fill:#ebebeb"
       id="rect10" />
    <rect
       x="194.71"
       y="396.81"
       width="59.38"
       height="0.25"
       style="fill:#ebebeb"
       id="rect12" />
    <rect
       x="52.46"
       y="392.59"
       width="38.45"
       height="0.25"
       style="fill:#ebebeb"
       id="rect14" />
    <path
       d="M237,337.8H43.91a5.71,5.71,0,0,1-5.7-5.71V60.66A5.71,5.71,0,0,1,43.91,55H237a5.71,5.71,0,0,1,5.71,5.71V332.09A5.71,5.71,0,0,1,237,337.8ZM43.91,55.2a5.46,5.46,0,0,0-5.45,5.46V332.09a5.46,5.46,0,0,0,5.45,5.46H237a5.47,5.47,0,0,0,5.46-5.46V60.66A5.47,5.47,0,0,0,237,55.2Z"
       style="fill:#ebebeb"
       id="path16" />
    <path
       d="M453.31,337.8H260.21a5.72,5.72,0,0,1-5.71-5.71V60.66A5.72,5.72,0,0,1,260.21,55h193.1A5.71,5.71,0,0,1,459,60.66V332.09A5.71,5.71,0,0,1,453.31,337.8ZM260.21,55.2a5.47,5.47,0,0,0-5.46,5.46V332.09a5.47,5.47,0,0,0,5.46,5.46h193.1a5.47,5.47,0,0,0,5.46-5.46V60.66a5.47,5.47,0,0,0-5.46-5.46Z"
       style="fill:#ebebeb"
       id="path18" />
    <polygon
       points="195.96 295.67 129.56 295.67 125.53 249.17 191.93 249.17 195.96 295.67"
       style="fill:#e6e6e6"
       id="polygon20" />
    <polygon
       points="199.4 295.67 133 295.67 128.97 249.17 195.37 249.17 199.4 295.67"
       style="fill:#f0f0f0"
       id="polygon22" />
    <polygon
       points="142.08 285.68 139.86 259.15 186.29 259.15 188.51 285.68 142.08 285.68"
       style="fill:#fff"
       id="polygon24" />
    <rect
       x="203.1"
       y="295.67"
       width="7.79"
       height="86.73"
       style="fill:#e6e6e6"
       id="rect26" />
    <rect
       x="207.94"
       y="295.67"
       width="5.41"
       height="86.73"
       style="fill:#f0f0f0"
       id="rect28" />
    <rect
       x="137.94"
       y="295.67"
       width="75.41"
       height="9.57"
       transform="translate(351.29 600.91) rotate(180)"
       style="fill:#f0f0f0"
       id="rect30" />
    <rect
       x="132.81"
       y="305.24"
       width="7.79"
       height="77.16"
       style="fill:#e6e6e6"
       id="rect32" />
    <rect
       x="137.65"
       y="305.24"
       width="5.41"
       height="77.16"
       style="fill:#f0f0f0"
       id="rect34" />
    <rect
       x="77.36"
       y="305.24"
       width="7.79"
       height="77.16"
       style="fill:#e6e6e6"
       id="rect36" />
    <rect
       x="82.2"
       y="305.24"
       width="5.41"
       height="77.16"
       style="fill:#f0f0f0"
       id="rect38" />
    <rect
       x="153.8"
       y="305.24"
       width="7.79"
       height="77.16"
       style="fill:#e6e6e6"
       id="rect40" />
    <rect
       x="158.63"
       y="305.24"
       width="5.41"
       height="77.16"
       style="fill:#f0f0f0"
       id="rect42" />
    <rect
       x="77.36"
       y="295.67"
       width="60.58"
       height="9.57"
       style="fill:#e6e6e6"
       id="rect44" />
    <rect
       x="129.51"
       y="79.41"
       width="234.33"
       height="130.46"
       style="fill:#e0e0e0"
       id="rect46" />
    <rect
       x="130.69"
       y="79.41"
       width="246.02"
       height="130.46"
       style="fill:#f5f5f5"
       id="rect48" />
    <rect
       x="192.49"
       y="25.65"
       width="122.42"
       height="237.98"
       transform="translate(398.34 -109.06) rotate(90)"
       style="fill:#fff"
       id="rect50" />
    <polygon
       points="231.07 205.85 276 83.43 201.85 83.43 156.92 205.85 231.07 205.85"
       style="fill:#f5f5f5"
       id="polygon52" />
    <polygon
       points="302.44 205.85 347.37 83.43 291.43 83.43 246.5 205.85 302.44 205.85"
       style="fill:#f5f5f5"
       id="polygon54" />
    <rect
       x="418.19"
       y="257.8"
       width="19.92"
       height="124.6"
       style="fill:#e6e6e6"
       id="rect56" />
    <polygon
       points="432.87 382.4 438.11 382.4 438.11 372.81 427.38 372.81 432.87 382.4"
       style="fill:#fafafa"
       id="polygon58" />
    <rect
       x="234.53"
       y="257.8"
       width="19.92"
       height="124.6"
       style="fill:#e6e6e6"
       id="rect60" />
    <rect
       x="249.88"
       y="257.8"
       width="188.23"
       height="122.01"
       style="fill:#fafafa"
       id="rect62" />
    <path
       d="M434.55,297.17H253.45V262.71h181.1Zm-180.1-1h179.1V263.71H254.45Z"
       style="fill:#e6e6e6"
       id="path64" />
    <path
       d="M402.67,279.44H288.84c-5.28,0-10.37-4.26-14-11.7l-.34-.71H417l-.34.71C413,275.18,408,279.44,402.67,279.44ZM276.14,268c3.38,6.63,8,10.41,12.7,10.41H402.67c4.72,0,9.32-3.78,12.7-10.41Z"
       style="fill:#e6e6e6"
       id="path66" />
    <polygon
       points="255.12 382.4 249.88 382.4 249.88 372.81 260.61 372.81 255.12 382.4"
       style="fill:#fafafa"
       id="polygon68" />
    <path
       d="M434.55,336H253.45V301.58h181.1Zm-180.1-1h179.1V302.58H254.45Z"
       style="fill:#e6e6e6"
       id="path70" />
    <path
       d="M402.67,318.31H288.84c-5.28,0-10.37-4.27-14-11.7l-.34-.72H417l-.34.72C413,314,408,318.31,402.67,318.31ZM276.14,306.89c3.38,6.63,8,10.42,12.7,10.42H402.67c4.72,0,9.32-3.79,12.7-10.42Z"
       style="fill:#e6e6e6"
       id="path72" />
    <path
       d="M434.55,374.9H253.45V340.44h181.1Zm-180.1-1h179.1V341.44H254.45Z"
       style="fill:#e6e6e6"
       id="path74" />
    <path
       d="M402.67,357.17H288.84c-5.28,0-10.37-4.26-14-11.69l-.34-.72H417l-.34.72C413,352.91,408,357.17,402.67,357.17ZM276.14,345.76c3.38,6.63,8,10.41,12.7,10.41H402.67c4.72,0,9.32-3.78,12.7-10.41Z"
       style="fill:#e6e6e6"
       id="path76" />
    <polygon
       points="120.98 274.28 120.98 276.7 119.44 276.7 118.16 295.67 99.32 295.67 98.05 276.7 96.5 276.7 96.5 274.28 120.98 274.28"
       style="fill:#e6e6e6"
       id="polygon78" />
    <path
       d="M114.78,227.21c-1.54-11.3-16.79-14.52-36.14-14.94-18.41-.39-24.31-6.9-24.31-6.9s.06,26.37,26.59,35.93C106.11,250.36,116.33,238.53,114.78,227.21Z"
       style="fill:#e6e6e6"
       id="path80" />
    <path
       d="M105.38,252.82c.32-4.64,7.74-13.18,25.59-9.3,12.9,2.81,17.7-3.88,17.7-3.88s-1.2,18.88-20.6,24.55C109.64,269.58,104.81,261,105.38,252.82Z"
       style="fill:#e6e6e6"
       id="path82" />
    <path
       d="M109.45,281.4a.69.69,0,0,0,.53-.24c1.29-1.53.23-5.19-1.23-10.26-1.88-6.5-4.22-14.6-2.24-20.47a82.34,82.34,0,0,1,3.84-9.08c2.8-5.92,5.22-11,3.2-16.38a.69.69,0,1,0-1.29.49c1.81,4.79-.38,9.43-3.16,15.31a85.59,85.59,0,0,0-3.9,9.22c-2.11,6.28.29,14.61,2.22,21.29,1.14,4,2.32,8,1.51,9a.68.68,0,0,0,.08,1A.66.66,0,0,0,109.45,281.4Z"
       style="fill:#e6e6e6"
       id="path84" />
  </g>
  <g
     id="freepik--Shadow--inject-384">
    <ellipse
       id="freepik--path--inject-384"
       cx="250"
       cy="416.24"
       rx="193.89"
       ry="11.32"
       style="fill:#f5f5f5" />
  </g>
  <g
     id="freepik--Login--inject-384">
    <polygon
       points="249.96 361.05 107.96 361.05 100.19 132.68 242.19 132.68 249.96 361.05"
       style="fill:#0756BD"
       id="polygon89" />
    <polygon
       points="257.05 353.96 115.05 353.96 107.27 125.59 249.27 125.59 257.05 353.96"
       style="fill:#0756BD"
       id="polygon91" />
    <polygon
       points="257.05 353.96 115.05 353.96 107.27 125.59 249.27 125.59 257.05 353.96"
       style="fill:#fff;opacity:0.30000000000000004"
       id="polygon93" />
    <ellipse
       cx="180.5"
       cy="191.09"
       rx="39.27"
       ry="40.63"
       transform="translate(-82.31 185.84) rotate(-45.49)"
       style="fill:#0756BD"
       id="ellipse95" />
    <path
       d="M213.47,191.09a32,32,0,0,1-3.45,15.7,31.59,31.59,0,0,1-28.4,17.26,34.26,34.26,0,0,1-29.56-17.26,33.49,33.49,0,0,1-4.52-15.7,31.64,31.64,0,0,1,31.84-33A34.36,34.36,0,0,1,213.47,191.09Z"
       style="fill:#fff"
       id="path97" />
    <path
       d="M210,206.79a31.59,31.59,0,0,1-28.4,17.26,34.26,34.26,0,0,1-29.56-17.26A50.59,50.59,0,0,1,180.74,198,53.48,53.48,0,0,1,210,206.79Z"
       style="fill:#0756BD;opacity:0.6000000000000001"
       id="path99" />
    <ellipse
       cx="180.12"
       cy="179.81"
       rx="14.44"
       ry="14.94"
       transform="translate(-74.38 182.19) rotate(-45.49)"
       style="fill:#0756BD;opacity:0.6000000000000001"
       id="ellipse101" />
    <polygon
       points="228.52 271.26 137.94 271.26 137.33 253.26 227.91 253.26 228.52 271.26"
       style="fill:#fff"
       id="polygon103" />
    <polygon
       points="229.62 303.43 139.03 303.43 138.42 285.43 229.01 285.43 229.62 303.43"
       style="fill:#fff"
       id="polygon105" />
    <path
       d="M194.66,287.91l-21.83,3a1.52,1.52,0,0,0-1.32,1.8l2.87,14.63a1.76,1.76,0,0,0,1.94,1.37l21.83-3a1.53,1.53,0,0,0,1.31-1.81l-2.86-14.63A1.75,1.75,0,0,0,194.66,287.91Zm-6.27,14.82-4,.53-.39-4.72a2.8,2.8,0,0,1-1.63-2,2.49,2.49,0,0,1,2.16-3,2.86,2.86,0,0,1,3.16,2.23,2.45,2.45,0,0,1-.78,2.33Z"
       style="fill:#0756BD"
       id="path107" />
    <path
       d="M192.5,287.12h0a1.56,1.56,0,0,1-1.72-1.21l-.28-1.43a8.23,8.23,0,0,0-8.62-6.56,7,7,0,0,0-6.46,8.39l.32,1.65a1.34,1.34,0,0,1-1.17,1.6h0a1.54,1.54,0,0,1-1.72-1.21l-.27-1.39a9.85,9.85,0,0,1,8-11.75,11.2,11.2,0,0,1,12.8,8.67l.32,1.64A1.34,1.34,0,0,1,192.5,287.12Z"
       style="fill:#0756BD"
       id="path109" />
    <polygon
       points="214.67 328.64 155.7 328.64 155.31 316.92 214.27 316.92 214.67 328.64"
       style="fill:#0756BD"
       id="polygon111" />
    <path
       d="M186.22,262.26a3.16,3.16,0,0,1-3.18,3.29,3.44,3.44,0,0,1-3.41-3.29,3.16,3.16,0,0,1,3.18-3.29A3.43,3.43,0,0,1,186.22,262.26Z"
       style="fill:#263238"
       id="path113" />
    <path
       d="M172,262.26a3.15,3.15,0,0,1-3.18,3.29,3.43,3.43,0,0,1-3.4-3.29,3.16,3.16,0,0,1,3.18-3.29A3.42,3.42,0,0,1,172,262.26Z"
       style="fill:#263238"
       id="path115" />
    <path
       d="M157.87,262.26a3.16,3.16,0,0,1-3.18,3.29,3.42,3.42,0,0,1-3.4-3.29,3.16,3.16,0,0,1,3.18-3.29A3.42,3.42,0,0,1,157.87,262.26Z"
       style="fill:#263238"
       id="path117" />
    <path
       d="M200.39,262.26a3.16,3.16,0,0,1-3.18,3.29,3.42,3.42,0,0,1-3.4-3.29A3.15,3.15,0,0,1,197,259,3.42,3.42,0,0,1,200.39,262.26Z"
       style="fill:#263238"
       id="path119" />
    <path
       d="M214.56,262.26a3.15,3.15,0,0,1-3.18,3.29,3.43,3.43,0,0,1-3.4-3.29,3.16,3.16,0,0,1,3.18-3.29A3.42,3.42,0,0,1,214.56,262.26Z"
       style="fill:#263238"
       id="path121" />
  </g>
  <g
     id="freepik--Thinking--inject-384"
     transform="matrix(2.0835365,0,0,2.0835365,-433.08801,-1.6492883)">
    <ellipse
       cx="381.87"
       cy="86.330002"
       rx="36.09"
       ry="23"
       style="fill:#0756bd"
       id="ellipse124" />
    <path
       d="M 368.85,97.91 A 10.11,10.11 0 0 1 358.92,89.52 10.22,10.22 0 0 1 366.63,78 v 0 a 10.06,10.06 0 0 1 10.82,4.52 l 23.17,-4.78 a 3.62,3.62 0 0 1 4.24,2.49 3.49,3.49 0 0 1 -2.67,4.31 l -0.6,0.12 a 0.59,0.59 0 0 0 -0.42,0.31 0.63,0.63 0 0 0 0,0.52 l 0.41,1.06 a 1.59,1.59 0 0 1 -0.62,1.93 1.9,1.9 0 0 0 -0.89,1.41 1.57,1.57 0 0 1 -1.21,1.39 l -0.47,0.1 a 1.56,1.56 0 0 1 -1.66,-0.8 1.95,1.95 0 0 0 -3.61,0.75 1.55,1.55 0 0 1 -1.2,1.38 l -0.47,0.1 a 1.57,1.57 0 0 1 -1.66,-0.8 2,2 0 0 0 -1.39,-0.94 1.59,1.59 0 0 1 -1.4,-1.57 v -1.14 a 0.62,0.62 0 0 0 -0.74,-0.58 l -7.39,1.52 a 10.07,10.07 0 0 1 -7.95,8.4 10.36,10.36 0 0 1 -2.07,0.21 z m -2,-19 a 9.21,9.21 0 0 0 -7,10.42 9.11,9.11 0 0 0 18,-0.52 V 88.45 L 386,86.8 a 1.62,1.62 0 0 1 2,1.52 v 1.14 a 0.59,0.59 0 0 0 0.48,0.57 2.91,2.91 0 0 1 2.11,1.43 0.58,0.58 0 0 0 0.59,0.32 l 0.46,-0.1 a 0.56,0.56 0 0 0 0.42,-0.52 2.95,2.95 0 0 1 5.5,-1.16 0.57,0.57 0 0 0 0.58,0.32 l 0.48,-0.1 a 0.56,0.56 0 0 0 0.41,-0.52 2.9,2.9 0 0 1 1.37,-2.15 0.61,0.61 0 0 0 0.21,-0.72 l -0.41,-1.06 a 1.61,1.61 0 0 1 1.18,-2.16 l 0.61,-0.13 a 2.51,2.51 0 0 0 1.91,-3.07 2.61,2.61 0 0 0 -3.08,-1.77 L 377,83.59 376.82,83.28 a 9,9 0 0 0 -9.92,-4.35 z m 2,15.28 a 6.41,6.41 0 0 1 -3.51,-1 6.41,6.41 0 1 1 4.81,0.92 v 0 a 6.37,6.37 0 0 1 -1.29,0.1 z m 0,-11.81 a 6,6 0 0 0 -1.11,0.11 5.4240137,5.4240137 0 0 0 2.26,10.61 v 0 a 5.41,5.41 0 0 0 1.88,-9.81 5.32,5.32 0 0 0 -2.99,-0.89 z"
       style="fill:#ffffff"
       id="path126" />
    <ellipse
       cx="352.5"
       cy="115.26"
       rx="11.86"
       ry="7.5599999"
       style="opacity:0.6;fill:#0756bd"
       id="ellipse128" />
    <ellipse
       cx="333.63"
       cy="122.82"
       rx="4.8699999"
       ry="3.0999999"
       style="opacity:0.3;fill:#0756bd"
       id="ellipse130" />
  </g>
</svg>
