<?xml version="1.0" encoding="UTF-8" standalone="no"?>
<svg
   version="1.1"
   x="0px"
   y="0px"
   viewBox="0 0 30 30"
   enable-background="new 0 0 32 32"
   xml:space="preserve"
   id="svg34"
   sodipodi:docname="strore_with_arrow.svg"
   inkscape:version="1.2.2 (732a01da63, 2022-12-09)"
   width="30"
   height="30"
   xmlns:inkscape="http://www.inkscape.org/namespaces/inkscape"
   xmlns:sodipodi="http://sodipodi.sourceforge.net/DTD/sodipodi-0.dtd"
   xmlns="http://www.w3.org/2000/svg"
   xmlns:svg="http://www.w3.org/2000/svg"><defs
     id="defs38" /><sodipodi:namedview
     id="namedview36"
     pagecolor="#505050"
     bordercolor="#ffffff"
     borderopacity="1"
     inkscape:showpageshadow="0"
     inkscape:pageopacity="0"
     inkscape:pagecheckerboard="1"
     inkscape:deskcolor="#505050"
     showgrid="false"
     inkscape:zoom="11.614229"
     inkscape:cx="4.2620135"
     inkscape:cy="13.604003"
     inkscape:window-width="1600"
     inkscape:window-height="837"
     inkscape:window-x="-8"
     inkscape:window-y="327"
     inkscape:window-maximized="1"
     inkscape:current-layer="svg34" /><g
     id="g28"
     transform="translate(-1.0000562,-1)"><path
       d="M 30.825,9.019 27.519,1 H 4.48 L 1.179,9.011 C 1.003,9.428 0.954,9.826 1.03,10.19 1.33,11.661 2.887,12.78 4.936,12.978 5.117,12.99 5.298,13 5.49,13 6.919,13 8.173,12.534 8.991,11.792 9.812,12.534 11.068,13 12.5,13 c 1.428,0 2.681,-0.466 3.5,-1.207 0.819,0.741 2.071,1.207 3.5,1.207 1.432,0 2.688,-0.466 3.509,-1.208 0.818,0.742 2.072,1.208 3.501,1.208 0.192,0 0.373,-0.01 0.587,-0.025 2.016,-0.195 3.572,-1.313 3.873,-2.783 0.076,-0.369 0.027,-0.766 -0.145,-1.173 z"
       id="path6"
       style="fill:#ffffff" /><g
       id="g10"><path
         d="M 19.5,13 C 16.977,13 15,11.546 15,9.69 c 0,-0.552 0.448,-1 1,-1 0.552,0 1,0.448 1,1 0,0.618 1.069,1.31 2.5,1.31 1.437,0 2.51,-0.692 2.51,-1.31 0,-0.552 0.447,-1 1,-1 0.553,0 1,0.448 1,1 0,1.856 -1.981,3.31 -4.51,3.31 z"
         id="path8"
         style="fill:#ffffff" /></g><g
       id="g14"><path
         d="M 12.5,13 C 9.971,13 7.99,11.546 7.99,9.69 c 0,-0.552 0.448,-1 1,-1 0.552,0 1,0.448 1,1 0,0.618 1.073,1.31 2.51,1.31 1.431,0 2.5,-0.692 2.5,-1.31 0,-0.552 0.448,-1 1,-1 0.552,0 1,0.448 1,1 0,1.856 -1.977,3.31 -4.5,3.31 z"
         id="path12"
         style="fill:#ffffff" /></g><g
       id="g18"><path
         d="m 5,18.26 c -0.552,0 -1,-0.447 -1,-1 v -6.346 l 1.064,0.068 C 5.203,10.991 5.342,11 5.49,11 c 1.431,0 2.5,-0.692 2.5,-1.31 0,-0.552 0.448,-1 1,-1 0.552,0 1,0.448 1,1 0,1.729 -1.715,3.109 -3.99,3.29 v 4.28 c 0,0.553 -0.448,1 -1,1 z"
         id="path16"
         style="fill:#ffffff" /></g><g
       id="g22"><path
         d="M 28,31 H 9 C 8.448,31 8,30.553 8,30 8,29.447 8.448,29 9,29 H 26 V 12.98 c -2.274,-0.181 -3.99,-1.561 -3.99,-3.29 0,-0.552 0.447,-1 1,-1 0.553,0 1,0.448 1,1 0,0.618 1.069,1.31 2.5,1.31 0.147,0 0.287,-0.009 0.427,-0.018 L 28,10.914 Z"
         id="path20"
         style="display:inline;fill:#ffffff" /></g><path
       d="m 22,18 h -1 c -1.103,0 -2,0.897 -2,2 v 2 c 0,1.103 0.897,2 2,2 h 1 c 1.103,0 2,-0.897 2,-2 v -2 c 0,-1.103 -0.897,-2 -2,-2 z"
       id="path24"
       style="fill:#ffffff" /><path
       d="M 9,15 C 7.339,15 5.756,15.499 4.431,16.438 2.283,17.925 1,20.378 1,23 1,25.622 2.283,28.075 4.422,29.557 5.756,30.501 7.339,31 9,31 c 4.411,0 8,-3.589 8,-8 0,-4.411 -3.589,-8 -8,-8 z m 3,9 H 8.414 l 0.414,0.414 c 0.391,0.391 0.391,1.023 0,1.414 -0.195,0.195 -0.451,0.293 -0.707,0.293 -0.256,0 -0.512,-0.098 -0.707,-0.293 l -2.12,-2.12 C 5.201,23.616 5.128,23.505 5.077,23.382 c -0.101,-0.244 -0.101,-0.52 0,-0.764 0.051,-0.123 0.124,-0.233 0.217,-0.326 l 2.12,-2.12 c 0.391,-0.391 1.023,-0.391 1.414,0 0.391,0.391 0.391,1.023 0,1.414 L 8.414,22 H 12 c 0.552,0 1,0.447 1,1 0,0.553 -0.448,1 -1,1 z"
       id="path26"
       style="fill:#ffffff" /></g></svg>
