<?xml version="1.0" encoding="UTF-8" standalone="no"?>
<svg
   viewBox="0 0 576 512"
   version="1.1"
   id="svg4"
   sodipodi:docname="favicon.svg"
   inkscape:version="1.2.2 (732a01da63, 2022-12-09)"
   xmlns:inkscape="http://www.inkscape.org/namespaces/inkscape"
   xmlns:sodipodi="http://sodipodi.sourceforge.net/DTD/sodipodi-0.dtd"
   xmlns="http://www.w3.org/2000/svg"
   xmlns:svg="http://www.w3.org/2000/svg">
  <defs
     id="defs8">
    <filter
       inkscape:collect="always"
       style="color-interpolation-filters:sRGB"
       id="filter1701"
       x="-0.078562724"
       y="-0.08762839"
       width="1.1571254"
       height="1.1752568">
      <feGaussianBlur
         inkscape:collect="always"
         stdDeviation="11.752194"
         id="feGaussianBlur1703" />
    </filter>
  </defs>
  <sodipodi:namedview
     id="namedview6"
     pagecolor="#505050"
     bordercolor="#ffffff"
     borderopacity="1"
     inkscape:showpageshadow="0"
     inkscape:pageopacity="0"
     inkscape:pagecheckerboard="1"
     inkscape:deskcolor="#505050"
     showgrid="false"
     inkscape:zoom="0.64160156"
     inkscape:cx="156.63927"
     inkscape:cy="250.93455"
     inkscape:window-width="1600"
     inkscape:window-height="837"
     inkscape:window-x="-8"
     inkscape:window-y="327"
     inkscape:window-maximized="1"
     inkscape:current-layer="svg4" />
  <circle
     style="opacity:1;fill:#00a2ff;stroke-width:4.05387;stop-color:#000000;fill-opacity:1"
     id="path343"
     cx="288"
     cy="256"
     r="253.76859" />
  <path
     d="m 117.7432,114.43628 c 0,-8.36067 6.72626,-15.086939 15.08694,-15.086939 h 28.60231 c 13.82968,0 26.08782,8.046379 31.80828,20.115929 h 258.36373 c 16.53277,0 28.60231,15.71555 24.26482,31.68255 l -25.77351,95.73917 c -5.34329,19.73874 -23.25902,33.50556 -43.68925,33.50556 H 225.04901 l 3.39456,17.91574 c 1.38297,7.10343 7.60633,12.25813 14.83549,12.25813 h 181.23178 c 8.36068,0 15.08694,6.72626 15.08694,15.08693 0,8.36068 -6.72626,15.08693 -15.08694,15.08693 H 243.27906 c -21.75033,0 -40.42041,-15.4641 -44.44359,-36.7744 L 166.39856,133.60926 c -0.44003,-2.38876 -2.51449,-4.08605 -4.96611,-4.08605 h -28.60231 c -8.36068,0 -15.08694,-6.72625 -15.08694,-15.08693 z m 80.46365,276.59378 a 30.173866,30.173866 0 1 1 60.34772,0 30.173866,30.173866 0 1 1 -60.34772,0 z m 211.21706,-30.17387 a 30.17387,30.17387 0 1 1 0,60.34774 30.17387,30.17387 0 1 1 0,-60.34774 z"
     id="path2-8"
     style="fill:#0756bd;stroke-width:0.628622;filter:url(#filter1701);fill-opacity:1" />
  <path
     d="m 108.49205,110.15013 c 0,-8.36067 6.72626,-15.086932 15.08694,-15.086932 h 28.60231 c 13.82968,0 26.08782,8.046372 31.80828,20.115922 h 258.36373 c 16.53277,0 28.60231,15.71555 24.26482,31.68255 l -25.77351,95.73917 c -5.34329,19.73874 -23.25902,33.50556 -43.68925,33.50556 H 215.79786 l 3.39456,17.91574 c 1.38297,7.10343 7.60633,12.25813 14.83549,12.25813 h 181.23178 c 8.36068,0 15.08694,6.72626 15.08694,15.08693 0,8.36068 -6.72626,15.08693 -15.08694,15.08693 H 234.02791 c -21.75033,0 -40.42041,-15.4641 -44.44359,-36.7744 L 157.14741,129.32311 c -0.44003,-2.38876 -2.51449,-4.08605 -4.96611,-4.08605 h -28.60231 c -8.36068,0 -15.08694,-6.72625 -15.08694,-15.08693 z m 80.46365,276.59378 a 30.173866,30.173866 0 1 1 60.34772,0 30.173866,30.173866 0 1 1 -60.34772,0 z m 211.21706,-30.17387 a 30.17387,30.17387 0 1 1 0,60.34774 30.17387,30.17387 0 1 1 0,-60.34774 z"
     id="path2"
     style="stroke-width:0.628622;fill:#ffffff" />
</svg>
